<svg width="81" height="104" viewBox="0 0 81 104" fill="none" xmlns="http://www.w3.org/2000/svg">
<path d="M80.61 7.14696C80.7355 12.6879 80.6309 18.2323 80.6658 23.7767C80.739 26.3676 79.4907 28.9585 77.3775 30.4683C75.8641 31.6016 73.9532 32.0794 72.0807 32.0096C69.8978 31.9399 67.5998 32.2921 65.5425 31.3645C62.6761 30.1894 60.6815 27.2149 60.6815 24.1184C60.6641 18.7553 60.6711 13.3888 60.678 8.0257C60.6397 4.93268 62.582 1.94079 65.4169 0.713353C67.7219 -0.339736 70.3162 0.110093 72.7641 0.0298909C76.6871 -0.018928 80.2752 3.24146 80.61 7.14696Z" fill="white" fill-opacity="0.15"/>
<path d="M53.1877 12.0557C55.1649 12.2231 56.7933 14.0886 56.7166 16.0693C56.7306 17.9906 55.1579 19.7725 53.24 19.9573C51.357 20.0968 49.4636 19.9504 47.5806 20.034C46.8866 21.2406 45.8475 22.196 44.6828 22.9388C44.6759 42.3128 44.6724 61.6834 44.6863 81.0574C45.851 81.7862 46.8657 82.7556 47.5527 83.9517C49.746 84.1574 52.0056 83.6866 54.1467 84.255C56.8178 85.1442 57.6023 88.9904 55.4997 90.8595C53.3481 92.7913 50.2203 91.6929 47.6189 91.9893C46.123 94.5035 43.2427 96.1459 40.2996 95.9611C37.6181 95.8599 35.1213 94.2733 33.7509 91.9893C31.9202 91.9544 30.0826 92.0346 28.2519 91.9544C26.3688 91.8254 24.7543 90.1725 24.6462 88.293C24.437 86.2426 26.0759 84.2236 28.1298 84.0319C30.0128 83.9098 31.8993 84.0528 33.7823 83.9586C34.4902 82.7695 35.5049 81.8001 36.6731 81.0679C36.687 61.6938 36.687 42.3198 36.6731 22.9457C35.5084 22.203 34.4867 21.2336 33.7858 20.034C31.8958 19.9538 30.0024 20.0863 28.1124 19.9678C26.062 19.7621 24.43 17.7396 24.6497 15.6927C24.7648 13.8236 26.3654 12.1742 28.2414 12.0417C30.0721 11.9685 31.9063 12.0452 33.7405 12.0103C35.1841 9.61474 37.8587 7.98629 40.6797 8.02813C43.5007 7.98629 46.1718 9.61823 47.6085 12.0103C49.4705 12.0487 51.3291 11.9545 53.1877 12.0557Z" fill="white" fill-opacity="0.15"/>
<path d="M20.6362 7.15629C20.7548 12.6902 20.6536 18.2277 20.6885 23.7616C20.8036 26.886 18.9241 29.9755 16.0647 31.2553C13.84 32.3467 11.3049 31.9283 8.92321 32.005C5.89645 32.1026 2.90456 30.3487 1.56554 27.6253C0.822793 26.2305 0.641473 24.6299 0.690293 23.0712C0.70424 18.0638 0.683318 13.0529 0.700753 8.042C0.655421 4.9455 2.59422 1.95013 5.43268 0.715712C7.74111 -0.344351 10.3424 0.108965 12.7938 0.0287629C16.7203 -0.0165689 20.3049 3.2508 20.6362 7.15629Z" fill="white" fill-opacity="0.15"/>
<path d="M20.6501 79.3069C20.7338 84.8583 20.671 90.4131 20.6815 95.9645C20.7094 98.6147 19.3111 101.22 17.0863 102.656C15.6183 103.657 13.8155 104.044 12.058 103.985C9.95185 103.912 7.74454 104.243 5.74298 103.409C2.73714 102.259 0.641422 99.1482 0.697215 95.9297C0.704188 90.4829 0.669324 85.0361 0.714655 79.5928C0.808806 75.5025 4.50508 71.9457 8.5919 72.0015C10.998 72.0852 13.5365 71.6389 15.8101 72.6292C18.4916 73.7381 20.4444 76.4057 20.6501 79.3069Z" fill="white" fill-opacity="0.15"/>
<path d="M80.6581 93.1636C80.6732 88.5497 80.6882 83.9362 80.6313 79.325C80.6211 79.1509 80.6044 78.9778 80.5815 78.8062L72.6342 88.4704L80.4136 98.0231C80.5611 97.4619 80.6427 96.881 80.6487 96.2895C80.6513 95.2476 80.6547 94.2056 80.6581 93.1636Z" fill="#EB5757"/>
<path d="M78.7379 101.167L70.4064 91.1276L62.358 100.875C63.1133 101.855 64.09 102.663 65.2186 103.19C66.9772 104.068 68.9329 104.025 70.865 103.981C71.5034 103.967 72.1392 103.952 72.7645 103.972C75.0736 104.005 77.2568 102.884 78.7379 101.167Z" fill="#EB5757"/>
<path d="M60.8185 97.4966L68.1292 88.599L60.6914 79.5145C60.6851 79.6383 60.6819 79.7623 60.6819 79.8865C60.6645 85.2391 60.6714 90.5952 60.6784 95.9478C60.6706 96.4693 60.719 96.9882 60.8185 97.4966Z" fill="#EB5757"/>
<path d="M61.9237 75.7127L70.4064 85.899L79.1816 75.3616C77.7162 73.3357 75.3179 71.9711 72.775 72.0022C72.1339 72.0237 71.482 72.0085 70.8277 71.9932C68.9303 71.9489 67.0125 71.9041 65.2778 72.752C63.8954 73.3831 62.7334 74.4363 61.9237 75.7127Z" fill="#EB5757"/>
</svg>
