<svg width="135" height="129" viewBox="0 0 135 129" fill="none" xmlns="http://www.w3.org/2000/svg">
<path d="M68.3036 125.783L68.3046 125.784C68.4885 125.954 68.7188 126.023 68.9385 125.993L68.9391 125.993L97.7633 122.08L68.3036 125.783ZM68.3036 125.783C68.1183 125.611 67.9998 125.35 67.9998 125.061C67.9998 125.57 67.8721 126.069 67.6317 126.509C67.6317 126.509 67.6317 126.509 67.6316 126.509C67.6299 126.512 67.6282 126.515 67.6264 126.519L68.3036 125.783ZM65.9998 125.061C65.9998 125.35 65.8814 125.611 65.696 125.783L65.6951 125.784C65.5111 125.954 65.2808 126.023 65.0612 125.993L65.0605 125.993L36.2364 122.08M65.9998 125.061L36.2364 122.08M65.9998 125.061C65.9998 125.57 66.1275 126.069 66.368 126.509C66.3698 126.512 66.3715 126.515 66.3733 126.519C65.9764 126.886 65.4498 127.055 64.926 126.984L36.1014 123.071M65.9998 125.061L36.2364 122.08M36.2364 122.08L36.1014 123.071M36.1014 123.071C35.363 122.97 34.7549 122.411 34.5614 121.653M36.1014 123.071L36.2359 122.08C35.926 122.037 35.6294 121.794 35.5303 121.405L35.5301 121.405L6.67622 8.63941L6.67604 8.63868L6.67602 8.6386L6.676 8.63854L6.67597 8.63842C6.67595 8.63835 6.67593 8.63827 5.70744 8.8873M34.5614 121.653H99.4383L128.292 8.8873C128.292 8.8873 128.643 7.52458 128.978 5.23522M34.5614 121.653L5.70744 8.8873M34.5614 121.653L5.02134 5.23522M5.70744 8.8873L6.67593 8.63827L6.67559 8.63694L6.67327 8.62774L6.66293 8.58605C6.6536 8.548 6.63951 8.48961 6.62136 8.41172C6.58507 8.25593 6.53259 8.02222 6.46957 7.71736C6.34354 7.10755 6.17551 6.21372 6.01076 5.09014M5.70744 8.8873C5.70744 8.8873 5.35704 7.52458 5.02134 5.23522M6.01076 5.09014C5.96875 4.80131 6.04987 4.5156 6.2183 4.30787C6.38522 4.10296 6.61424 4 6.83834 4L65.1608 4C65.5746 4 65.9998 4.37018 65.9998 4.93923H66.9998H67.9998C67.9998 4.37018 68.4251 4 68.8389 4L127.161 4C127.385 4 127.614 4.10296 127.781 4.3078C127.95 4.51569 128.031 4.80169 127.989 5.09073L128.978 5.23522M6.01076 5.09014C6.01079 5.09034 6.01081 5.09053 6.01084 5.09073L5.02134 5.23522M6.01076 5.09014L5.02134 5.23522M128.978 5.23522L127.989 5.09014C127.824 6.21372 127.656 7.10754 127.53 7.71735C127.467 8.02221 127.415 8.25592 127.378 8.41171C127.36 8.48959 127.346 8.54799 127.337 8.58603L127.326 8.62773L127.324 8.63693L127.324 8.63825M128.978 5.23522C129.06 4.67619 128.907 4.10745 128.557 3.67705C128.208 3.24761 127.698 3 127.161 3L68.8389 3L127.324 8.63825M127.324 8.63825L127.324 8.6384L127.324 8.63852L127.324 8.63858L127.324 8.63866L127.323 8.63941L98.4695 121.405L98.4694 121.405C98.3703 121.794 98.0737 122.037 97.7638 122.08L127.324 8.63825Z" fill="#F2C94C" fill-opacity="0.5" stroke="#F2C94C" stroke-width="2"/>
</svg>
