<svg width="135" height="129" viewBox="0 0 135 129" fill="none" xmlns="http://www.w3.org/2000/svg">
<path d="M67.6265 126.519C67.6283 126.515 67.6301 126.512 67.6318 126.509C67.6318 126.509 67.6318 126.509 67.6318 126.509C67.8723 126.069 68 125.57 68 125.061C68 125.35 68.1185 125.611 68.3038 125.783L68.3048 125.784C68.4887 125.954 68.719 126.023 68.9387 125.993L68.9393 125.993L97.7635 122.08L67.6265 126.519ZM98.4695 121.405C98.3704 121.794 98.0739 122.037 97.7639 122.08H36.2361C35.9261 122.037 35.6296 121.794 35.5304 121.405L35.5303 121.405L6.67638 8.63941L6.67619 8.63868L6.67617 8.6386L6.67616 8.63854L6.67612 8.63842L6.67609 8.63827L6.67574 8.63694L6.67342 8.62774L6.66309 8.58605C6.65376 8.548 6.63966 8.48961 6.62151 8.41172C6.58522 8.25593 6.53274 8.02222 6.46973 7.71736C6.34369 7.10755 6.17567 6.21372 6.01091 5.09014C5.9689 4.80131 6.05002 4.5156 6.21845 4.30787C6.38538 4.10296 6.6144 4 6.83849 4L65.161 4C65.5747 4 66 4.37018 66 4.93923H67H68C68 4.37018 68.4253 4 68.839 4L127.161 4C127.386 4 127.615 4.10296 127.781 4.3078C127.95 4.51569 128.031 4.80169 127.989 5.09073L128.979 5.23522L127.989 5.09014C127.824 6.21372 127.656 7.10754 127.53 7.71735C127.467 8.02221 127.415 8.25592 127.378 8.41171C127.36 8.48959 127.346 8.54799 127.337 8.58603L127.327 8.62773L127.324 8.63693L127.324 8.63825L127.324 8.6384L127.324 8.63852L127.324 8.63858L127.324 8.63866L127.324 8.63941L98.4697 121.405L98.4695 121.405ZM66 125.061C66 125.35 65.8815 125.611 65.6962 125.783L65.6952 125.784C65.5113 125.954 65.281 126.023 65.0613 125.993L65.0607 125.993L36.2365 122.08L66 125.061Z" fill="#EB5757" fill-opacity="0.5" stroke="#EB5757" stroke-width="2"/>
</svg>
