<svg width="135" height="129" viewBox="0 0 135 129" fill="none" xmlns="http://www.w3.org/2000/svg">
<path d="M68.3036 125.783L68.3046 125.784C68.3503 125.826 68.3987 125.862 68.4486 125.892L67.9389 126.752C68.1673 126.887 68.4203 126.969 68.6812 126.993L68.7712 125.997C68.8262 126.002 68.8822 126.001 68.9385 125.993L68.9391 125.993L70.7407 125.748L70.8752 126.739L74.4783 126.25L74.3438 125.259L77.9468 124.77L78.0814 125.761L81.6844 125.272L81.5499 124.281L85.153 123.792L85.2875 124.783L88.8906 124.294L88.7561 123.303L92.3591 122.813L92.4937 123.804L96.0968 123.315L95.9622 122.324L97.7633 122.08L68.3036 125.783ZM68.3036 125.783C68.2572 125.74 68.2149 125.691 68.1775 125.638L67.3575 126.21C67.2062 125.993 67.0994 125.746 67.0439 125.483L67.9395 125.664C67.9655 125.536 67.9832 125.405 67.9925 125.273L68.0205 125.267C68.0069 125.2 67.9998 125.131 67.9998 125.061H66.9998H65.9998C65.9998 125.131 65.9928 125.2 65.9792 125.267L66.0072 125.273C66.0164 125.405 66.0342 125.536 66.0602 125.664L66.9558 125.483C66.9003 125.746 66.7935 125.993 66.6422 126.21L65.8222 125.638C65.7848 125.691 65.7425 125.74 65.696 125.783L65.6951 125.784C65.6494 125.826 65.601 125.862 65.5511 125.892L66.0607 126.752C65.8324 126.887 65.5793 126.969 65.3185 126.993L65.2285 125.997C65.1734 126.002 65.1174 126.001 65.0612 125.993L65.0605 125.993L63.259 125.748L63.1245 126.739L59.5214 126.25L59.6559 125.259L56.0528 124.77L55.9183 125.761L52.3152 125.272L52.4498 124.281L48.8467 123.792L48.7122 124.783L45.1091 124.294L45.2436 123.303L41.6405 122.814L41.506 123.804L37.9029 123.315L38.0374 122.324L36.2364 122.08L68.3036 125.783ZM98.4278 122.911L97.9937 122.01C97.921 122.045 97.8439 122.069 97.7638 122.08L98.4278 122.911ZM98.4278 122.911C98.7586 122.752 99.0378 122.492 99.2287 122.165L98.3653 121.661C98.4099 121.584 98.4456 121.499 98.4694 121.405L98.4695 121.405L98.9504 119.525L99.9192 119.773L100.881 116.015L99.9122 115.767L100.874 112.008L101.843 112.256L102.805 108.497L101.836 108.249L102.798 104.49L103.766 104.738L104.728 100.979L103.759 100.731L104.721 96.9724L105.69 97.2203L106.652 93.4614L105.683 93.2135L106.645 89.4547L107.614 89.7026L108.575 85.9437L107.607 85.6958L108.568 81.937L109.537 82.1849L110.499 78.426L109.53 78.1781L110.492 74.4193L111.461 74.6672L112.423 70.9083L111.454 70.6604L112.416 66.9016L113.384 67.1494L114.346 63.3906L113.377 63.1427L114.339 59.3839L115.308 59.6318L116.27 55.8729L115.301 55.625L116.263 51.8662L117.232 52.1141L118.193 48.3552L117.225 48.1073L118.186 44.3485L119.155 44.5964L120.117 40.8375L119.148 40.5896L120.11 36.8308L121.079 37.0787L122.041 33.3198L121.072 33.0719L122.034 29.3131L123.002 29.561L123.964 25.8021L122.995 25.5542L123.957 21.7954L124.926 22.0433L125.888 18.2844L124.919 18.0365L125.881 14.2777L126.85 14.5256L127.811 10.7667L126.843 10.5188L127.323 8.63941L127.324 8.63866L127.324 8.6386L127.324 8.63851L127.324 8.6384L127.324 8.63833L127.324 8.63825L127.324 8.6371L127.326 8.62859L127.336 8.58978C127.345 8.55432 127.358 8.49982 127.375 8.42706C127.409 8.28153 127.458 8.06297 127.518 7.77752L128.497 7.98166C128.591 7.52646 128.711 6.90966 128.835 6.15417L127.849 5.99152C127.895 5.71044 127.942 5.40957 127.989 5.09014L128.978 5.23522L127.989 5.09073C127.999 5.02002 128.002 4.94903 127.998 4.87892L128.996 4.82115C128.98 4.54268 128.907 4.271 128.783 4.0248L127.891 4.47682C127.86 4.41617 127.823 4.35954 127.781 4.3078C127.74 4.25752 127.696 4.21347 127.648 4.17562L128.273 3.395C128.062 3.22564 127.818 3.10647 127.559 3.04589L127.331 4.01964C127.276 4.00664 127.219 4 127.161 4H125.078V3H120.912V4L116.747 4V3H112.581V4L108.415 4V3H104.249V4H100.083V3L95.9172 3V4H91.7513V3L87.5854 3V4H83.4195V3L79.2536 3V4H75.0877V3L70.9218 3V4H68.8389C68.7285 4 68.6245 4.02346 68.5287 4.06655L68.1187 3.15444C67.7105 3.33789 67.378 3.67252 67.1845 4.09155L67.8004 3.85552C67.8832 4.07158 67.9417 4.29949 67.9731 4.53533L68.0669 4.57125C68.0243 4.68237 67.9998 4.80616 67.9998 4.93923H66.9998H65.9998C65.9998 4.80616 65.9754 4.68237 65.9328 4.57125L66.0265 4.53533C66.0579 4.29949 66.1165 4.07158 66.1993 3.85552L66.8152 4.09155C66.6217 3.67252 66.2891 3.33789 65.881 3.15444L65.471 4.06655C65.3752 4.02346 65.2712 4 65.1608 4H63.0779V3L58.912 3V4H54.7461V3L50.5802 3V4H46.4143V3L42.2484 3V4H38.0825V3H33.9166V4L29.7507 4V3H25.5848V4L21.419 4V3H17.2531V4H13.0872V3L8.92129 3V4H6.83834C6.78094 4 6.72411 4.00664 6.66853 4.01964L6.4409 3.04589C6.18172 3.10647 5.93784 3.22564 5.72632 3.395L6.35132 4.17562C6.30402 4.21348 6.25929 4.25755 6.2183 4.30787C6.17637 4.35959 6.13973 4.41619 6.10902 4.47681L5.217 4.0248C5.09225 4.271 5.01938 4.54268 5.00327 4.82115L6.00159 4.87891C5.99754 4.94882 6.0005 5.01962 6.01076 5.09014C6.05759 5.40957 6.10471 5.71044 6.15104 5.99152L5.16435 6.15417C5.28889 6.90966 5.4082 7.52646 5.50312 7.98166L6.48207 7.77753C6.54159 8.06298 6.59092 8.28154 6.62495 8.42708C6.64196 8.49984 6.65514 8.55433 6.66385 8.58979L6.67348 8.6286L6.67564 8.63712L6.67593 8.63827L6.67595 8.63835L6.67597 8.63842L6.67599 8.63853L6.67602 8.63862L6.67603 8.63868L6.67622 8.63941L7.15711 10.5188L6.18832 10.7667L7.15012 14.5255L8.11891 14.2776L9.08071 18.0365L8.11192 18.2844L9.07372 22.0432L10.0425 21.7953L11.0043 25.5542L10.0355 25.8021L10.9973 29.5609L11.9661 29.3131L12.9279 33.0719L11.9591 33.3198L12.9209 37.0787L13.8897 36.8308L14.8515 40.5896L13.8827 40.8375L14.8445 44.5964L15.8133 44.3485L16.7751 48.1073L15.8063 48.3552L16.7681 52.1141L17.7369 51.8662L18.6987 55.625L17.7299 55.8729L18.6917 59.6318L19.6605 59.3839L20.6223 63.1427L19.6535 63.3906L20.6153 67.1495L21.5841 66.9016L22.5459 70.6604L21.5771 70.9083L22.5389 74.6672L23.5077 74.4193L24.4695 78.1781L23.5007 78.426L24.4625 82.1849L25.4313 81.937L26.3931 85.6958L25.4243 85.9437L26.3861 89.7026L27.3549 89.4547L28.3167 93.2135L27.3479 93.4614L28.3097 97.2202L29.2785 96.9724L30.2403 100.731L29.2715 100.979L30.2333 104.738L31.2021 104.49L32.1639 108.249L31.1951 108.497L32.1569 112.256L33.1256 112.008L34.0874 115.767L33.1187 116.014L34.0805 119.773L35.0492 119.525L35.5301 121.405L35.5303 121.405C35.5541 121.499 35.5898 121.584 35.6344 121.661L34.771 122.165C34.9619 122.492 35.2411 122.752 35.5718 122.911L36.006 122.01C36.0786 122.045 36.1557 122.069 36.2359 122.08L98.4278 122.911Z" fill="#EB5757" fill-opacity="0.5" stroke="#EB5757" stroke-width="2" stroke-dasharray="4 4"/>
</svg>
