<svg width="135" height="128" viewBox="0 0 135 128" fill="none" xmlns="http://www.w3.org/2000/svg">
<path d="M67 3.93923C67 2.86855 67.8237 2 68.839 2L127.161 2C127.698 2 128.208 2.24761 128.557 2.67705C128.907 3.10745 129.06 3.67619 128.979 4.23522C128.643 6.52458 128.292 7.8873 128.292 7.8873L99.4385 120.653C99.2449 121.411 98.6368 121.97 97.8984 122.071L69.0738 125.984C68.5492 126.056 68.0217 125.885 67.6246 125.517C67.2274 125.149 67 124.618 67 124.061C67 124.618 66.7725 125.149 66.3754 125.517C65.9782 125.885 65.4508 126.056 64.9262 125.984L36.1015 122.071C35.3632 121.97 34.755 121.411 34.5615 120.653L5.70759 7.8873C5.70759 7.8873 5.35719 6.52458 5.02149 4.23522C4.93986 3.67619 5.09307 3.10745 5.44253 2.67705C5.79199 2.24761 6.30193 2 6.83849 2L65.161 2C66.1763 2 67 2.86855 67 3.93923Z" fill="#D9D9D9" fill-opacity="0.35"/>
</svg>
