<svg width="74" height="47" viewBox="0 0 74 47" fill="none" xmlns="http://www.w3.org/2000/svg">
<path d="M4.07339 11.5208H1C0.447715 11.5208 0 11.9685 0 12.5208V41.3142C0 41.8665 0.447715 42.3142 1 42.3142H4.07339V46.0001C4.07339 46.5524 4.52111 47.0001 5.07339 47.0001H24.1193C24.6716 47.0001 25.1193 46.5524 25.1193 46.0001V33.6117H39.055C39.6073 33.6117 40.055 33.164 40.055 32.6117V29.5952H73C73.5523 29.5952 74 29.1475 74 28.5952V19.8844C74 19.3321 73.5523 18.8844 73 18.8844H40.055V6.16575L16.9725 0.140625H5.07339C4.52111 0.140625 4.07339 0.588341 4.07339 1.14063V11.5208Z" fill="white" fill-opacity="0.35"/>
</svg>
