<svg width="76" height="49" viewBox="0 0 76 49" fill="none" xmlns="http://www.w3.org/2000/svg">
<path d="M5.07339 12.5208H2C1.44772 12.5208 1 12.9685 1 13.5208V42.3142C1 42.8665 1.44772 43.3142 2 43.3142H5.07339V47.0001C5.07339 47.5524 5.52111 48.0001 6.07339 48.0001H25.1193C25.6716 48.0001 26.1193 47.5524 26.1193 47.0001V34.6117H40.055C40.6073 34.6117 41.055 34.164 41.055 33.6117V30.5952H74C74.5523 30.5952 75 30.1475 75 29.5952V20.8844C75 20.3321 74.5523 19.8844 74 19.8844H41.055V7.16575L17.9725 1.14062H6.07339C5.52111 1.14062 5.07339 1.58834 5.07339 2.14063V12.5208Z" fill="#F2C94C" fill-opacity="0.5" stroke="#F2C94C" stroke-width="2"/>
</svg>
