<svg width="74" height="81" viewBox="0 0 74 81" fill="none" xmlns="http://www.w3.org/2000/svg">
<path d="M69.9266 45.5207H73C73.5523 45.5207 74 45.9684 74 46.5207V75.314C74 75.8663 73.5523 76.314 73 76.314H69.9266V80C69.9266 80.5523 69.4789 81 68.9266 81H49.8807C49.3284 81 48.8807 80.5523 48.8807 80V67.6116H34.945C34.3927 67.6116 33.945 67.1639 33.945 66.6116V63.595H1C0.447716 63.595 0 63.1473 0 62.595V53.8843C0 53.332 0.447716 52.8843 1 52.8843H33.945V40.1653H30.1927C29.6404 40.1653 29.1927 39.7176 29.1927 39.1653V22.0909L18.3735 11.4228C17.9763 11.0312 17.9763 10.3903 18.3735 9.99868L27.8116 0.692317C28.201 0.308397 28.8265 0.308397 29.2159 0.692317L41.9031 13.2025C42.0267 13.3243 42.1165 13.4763 42.1636 13.6434L45.4862 25.438L57.0275 34.1405H68.9266C69.4789 34.1405 69.9266 34.5882 69.9266 35.1405V45.5207Z" fill="white" fill-opacity="0.35"/>
</svg>
