<svg width="76" height="83" viewBox="0 0 76 83" fill="none" xmlns="http://www.w3.org/2000/svg">
<path d="M70.9266 46.5207H74C74.5523 46.5207 75 46.9684 75 47.5207V76.314C75 76.8663 74.5523 77.314 74 77.314H70.9266V81C70.9266 81.5523 70.4789 82 69.9266 82H50.8807C50.3284 82 49.8807 81.5523 49.8807 81V68.6116H35.945C35.3927 68.6116 34.945 68.1639 34.945 67.6116V64.595H2C1.44772 64.595 1 64.1473 1 63.595V54.8843C1 54.332 1.44772 53.8843 2 53.8843H34.945V41.1653H31.1927C30.6404 41.1653 30.1927 40.7176 30.1927 40.1653V23.0909L19.3735 12.4228C18.9763 12.0312 18.9763 11.3903 19.3735 10.9987L28.8116 1.69232C29.201 1.3084 29.8265 1.3084 30.2159 1.69232L42.9031 14.2025C43.0267 14.3243 43.1165 14.4763 43.1636 14.6434L46.4862 26.438L58.0275 35.1405H69.9266C70.4789 35.1405 70.9266 35.5882 70.9266 36.1405V46.5207Z" fill="#EB5757" fill-opacity="0.5" stroke="#EB5757" stroke-width="2" stroke-dasharray="4 4"/>
</svg>
