<svg width="30" height="30" viewBox="0 0 30 30" fill="none" xmlns="http://www.w3.org/2000/svg">
<path d="M15 0C23.2842 0 30 6.71572 30 15C30 23.2842 23.2842 30 15 30C6.71572 30 0 23.2842 0 15C0 6.71572 6.71572 0 15 0ZM16.1705 8.20345L16.0443 8.09452C15.6528 7.80405 15.1155 7.80047 14.7204 8.08377L14.5794 8.20345L14.4705 8.32962C14.1801 8.72111 14.1765 9.25844 14.4599 9.65352L14.5794 9.79444L18.659 13.874H8.62393L8.47127 13.8841C7.97209 13.9519 7.57693 14.3471 7.5092 14.8463L7.49893 14.999L7.5092 15.1516C7.57693 15.6508 7.97209 16.046 8.47127 16.1136L8.62393 16.124L18.659 16.124L14.5785 20.2045L14.4696 20.3307C14.1428 20.7711 14.1789 21.396 14.5782 21.7955C14.9777 22.1951 15.6026 22.2314 16.0431 21.9048L16.1693 21.7959L22.1715 15.7959L22.2806 15.6696C22.5711 15.2781 22.5747 14.7408 22.2914 14.3457L22.1717 14.2047L16.1705 8.20345L16.0443 8.09452L16.1705 8.20345Z" fill="white" fill-opacity="0.5"/>
</svg>
