<svg width="30" height="30" viewBox="0 0 30 30" fill="none" xmlns="http://www.w3.org/2000/svg">
<path d="M15 30C6.71579 30 5.87135e-07 23.2843 1.31137e-06 15C2.0356e-06 6.7158 6.71579 -2.03557e-06 15 -1.31134e-06C23.2843 -5.87107e-07 30 6.7158 30 15C30 23.2843 23.2843 30 15 30ZM13.8295 21.7965L13.9557 21.9055C14.3472 22.1959 14.8845 22.1995 15.2796 21.9162L15.4206 21.7965L15.5295 21.6704C15.8199 21.2789 15.8235 20.7416 15.5401 20.3465L15.4206 20.2056L11.341 16.126L21.3761 16.126L21.5287 16.1158C22.0279 16.048 22.4231 15.6529 22.4908 15.1537L22.5011 15.001L22.4908 14.8483C22.4231 14.3491 22.0279 13.954 21.5287 13.8864L21.3761 13.876L11.341 13.876L15.4215 9.79545L15.5304 9.6693C15.8572 9.2289 15.8211 8.604 15.4218 8.20455C15.0223 7.80495 14.3974 7.76865 13.9569 8.0952L13.8307 8.2041L7.82849 14.2041L7.71944 14.3304C7.42889 14.7219 7.42529 15.2592 7.70864 15.6543L7.82834 15.7953L13.8295 21.7965L13.9557 21.9055L13.8295 21.7965Z" fill="white" fill-opacity="0.5"/>
</svg>
