<svg width="22" height="21" viewBox="0 0 22 21" fill="none" xmlns="http://www.w3.org/2000/svg">
<path d="M7.94922 6.5998C7.94922 2.98559 10.885 0.0498047 14.4992 0.0498047C18.0963 0.0498047 21.0492 2.86866 21.0492 6.4998C21.0492 10.114 18.1134 13.0498 14.4992 13.0498C13.9689 13.0498 13.4451 12.9738 12.9484 12.846C12.9241 13.515 12.3741 14.0498 11.6992 14.0498H9.9492V15.7998C9.9492 16.4902 9.3896 17.0498 8.69922 17.0498H6.94922V18.2998C6.94922 19.2663 6.16572 20.0498 5.19922 20.0498H2.69922C1.73272 20.0498 0.949219 19.2663 0.949219 18.2998V16.1282C0.949219 15.3989 1.23895 14.6994 1.75467 14.1837L7.99046 7.94792C8.04493 7.89345 8.07749 7.80529 8.05969 7.70382C7.99939 7.36017 7.94922 6.98701 7.94922 6.5998ZM17.2493 4.99983C17.2493 4.30946 16.6896 3.74983 15.9993 3.74983C15.3089 3.74983 14.7493 4.30946 14.7493 4.99983C14.7493 5.69017 15.3089 6.24982 15.9993 6.24982C16.6896 6.24982 17.2493 5.69017 17.2493 4.99983Z" fill="white" fill-opacity="0.85"/>
</svg>
