<svg width="22" height="21" viewBox="0 0 22 21" fill="none" xmlns="http://www.w3.org/2000/svg">
<path d="M14.4992 0.0498047C10.885 0.0498047 7.94922 2.98559 7.94922 6.5998C7.94922 6.98701 7.99939 7.36017 8.05969 7.70382C8.07749 7.80529 8.04493 7.89345 7.99046 7.94792L1.75467 14.1837C1.23895 14.6994 0.949219 15.3989 0.949219 16.1282V18.2998C0.949219 19.2663 1.73272 20.0498 2.69922 20.0498H5.19922C6.16572 20.0498 6.94922 19.2663 6.94922 18.2998V17.0498H8.69922C9.3896 17.0498 9.9492 16.4902 9.9492 15.7998V14.0498H10.2802C10.3829 13.8912 10.5106 13.7503 10.6578 13.6326L9.0126 11.9874C8.32915 11.304 8.32915 10.196 9.0126 9.5126L11.0126 7.51256C11.696 6.82915 12.804 6.82915 13.4874 7.51256C13.8929 7.91803 14.0578 8.473 13.9822 9H16C17.1867 9 18.3467 9.3519 19.3334 10.0112C19.4931 10.1179 19.647 10.2318 19.7949 10.3525C20.5836 9.271 21.0492 7.93919 21.0492 6.4998C21.0492 2.86866 18.0963 0.0498047 14.4992 0.0498047ZM15.9993 3.74983C16.6896 3.74983 17.2493 4.30946 17.2493 4.99983C17.2493 5.69017 16.6896 6.24982 15.9993 6.24982C15.3089 6.24982 14.7493 5.69017 14.7493 4.99983C14.7493 4.30946 15.3089 3.74983 15.9993 3.74983ZM12.7803 9.2803C13.0732 8.9874 13.0732 8.5126 12.7803 8.2197C12.4874 7.92678 12.0126 7.92678 11.7197 8.2197L9.7197 10.2197C9.4268 10.5126 9.4268 10.9874 9.7197 11.2803L11.7197 13.2803C12.0126 13.5732 12.4874 13.5732 12.7803 13.2803C13.0732 12.9874 13.0732 12.5126 12.7803 12.2197L12.0607 11.5H16C16.6922 11.5 17.3689 11.7053 17.9445 12.0899C18.5201 12.4744 18.9687 13.0211 19.2336 13.6606C19.4985 14.3001 19.5678 15.0039 19.4327 15.6828C19.2977 16.3617 18.9644 16.9854 18.4749 17.4749C17.9854 17.9644 17.3617 18.2977 16.6828 18.4327C16.0039 18.5678 15.3001 18.4985 14.6606 18.2336C14.0211 17.9687 13.4744 17.5201 13.0899 16.9445C12.7053 16.3689 12.5 15.6922 12.5 15C12.5 14.5858 12.1642 14.25 11.75 14.25C11.3358 14.25 11 14.5858 11 15C11 15.9889 11.2932 16.9556 11.8427 17.7779C12.3921 18.6001 13.173 19.241 14.0866 19.6194C15.0002 19.9978 16.0055 20.0969 16.9755 19.9039C17.9454 19.711 18.8363 19.2348 19.5355 18.5355C20.2348 17.8363 20.711 16.9454 20.9039 15.9755C21.0969 15.0055 20.9978 14.0002 20.6194 13.0866C20.241 12.173 19.6001 11.3921 18.7779 10.8427C17.9556 10.2932 16.9889 10 16 10H12.0607L12.7803 9.2803Z" fill="white" fill-opacity="0.85"/>
</svg>
