<svg width="44" height="45" viewBox="0 0 44 45" fill="none" xmlns="http://www.w3.org/2000/svg">
<g clip-path="url(#clip0_787_1402)">
<path d="M19.9893 7.37968C18.6253 6.99268 18.8277 4.65268 20.2533 4.56268C23.7821 4.43218 27.3241 4.49068 30.8573 4.53118C32.3665 4.43668 32.8285 6.83519 31.4161 7.36169C30.2545 7.62268 29.0533 7.47868 27.8785 7.50118C27.8697 8.00068 27.8653 8.50018 27.8609 8.99968C26.3957 8.99968 24.9349 8.99968 23.4697 8.99968C23.4697 8.62618 23.4653 7.87918 23.4609 7.50568C22.3037 7.48318 21.1333 7.60918 19.9893 7.37968Z" fill="white" fill-opacity="0.35"/>
<path d="M15.532 12.6899C16.4472 11.8394 17.7672 12.0284 18.9024 11.9834C23.892 12.0464 28.886 11.9339 33.8756 12.0374C35.5212 12.0194 36.7928 13.6394 36.6564 15.2684C36.6696 20.2364 36.6872 25.2044 36.6476 30.1724C36.652 32.2244 34.6896 33.3404 33.5104 34.7264C31.9616 36.0809 30.8132 38.0609 28.886 38.8754C24.8468 39.1724 20.7812 38.9114 16.7288 39.0104C13.7412 39.3614 12.3112 36.1619 10.2784 34.5464C9.2796 34.4564 7.6032 34.7174 7.4096 33.3044C7.2116 29.2544 7.4096 25.1954 7.3172 21.1409C7.4052 20.1599 7.0752 18.8054 8.0696 18.2114C8.778 17.9549 9.548 18.0224 10.2872 17.9504C12.078 16.2404 13.6972 14.3504 15.532 12.6899ZM22.4356 17.0459C21.0276 18.9854 20.0024 21.1859 18.7088 23.2064C18.2072 24.1874 17.0412 25.4699 18.0224 26.5364C19.1444 27.3734 20.6976 26.8784 22 27.0044C22.0484 29.0969 21.8856 31.1984 22.0704 33.2864C22.1408 34.1189 23.034 34.6004 23.782 34.4879C24.7544 34.0559 25.1548 32.9669 25.7092 32.1209C26.8092 30.0779 28.1512 28.1654 29.1676 26.0729C29.6472 25.2629 28.9916 24.1154 28.094 24.0614C27.0468 23.9399 25.9864 23.9984 24.9348 23.9939C24.882 21.8969 25.0492 19.7864 24.86 17.6984C24.75 16.5419 23.0868 16.0604 22.4356 17.0459Z" fill="white" fill-opacity="0.35"/>
<path d="M41.338 17.1128C42.0508 16.0373 43.384 16.5638 44 17.4368V30.5048C43.4676 31.4228 42.1564 31.9672 41.4084 30.9773C40.7968 29.7758 41.1444 28.3178 41.0476 27.0128C40.6868 27.0038 39.9608 26.9948 39.6 26.9903C39.6 24.9968 39.6 23.0033 39.6 21.0098C40.0796 21.0008 40.5592 20.9963 41.0432 20.9873C41.1136 19.7048 40.8716 18.3413 41.338 17.1128Z" fill="white" fill-opacity="0.35"/>
<path d="M0 20.5058C0.5368 19.5023 2.0108 19.0478 2.684 20.1638C3.1108 21.3833 2.8952 22.7198 2.9568 23.9888C3.3176 23.9933 4.0392 24.0023 4.4 24.0068C4.4 26.0048 4.4 27.9983 4.4 29.9918C4.0392 29.9963 3.3176 30.0053 2.9568 30.0098C2.8952 31.2788 3.1152 32.6198 2.6884 33.8438C2.0328 34.9418 0.6732 34.4738 0 33.6593V20.5058Z" fill="white" fill-opacity="0.35"/>
</g>
<defs>
<clipPath id="clip0_787_1402">
<rect width="44" height="45" fill="white"/>
</clipPath>
</defs>
</svg>
