<svg width="17" height="17" viewBox="0 0 17 17" fill="none" xmlns="http://www.w3.org/2000/svg">
<path d="M3.4375 0L2.52083 0C1.12862 0 0 1.12862 0 2.52083L0 13.9792C0 15.3714 1.12862 16.5 2.52083 16.5H2.75L2.75 11C2.75 9.86095 3.67341 8.9375 4.8125 8.9375L11.6875 8.9375C12.8266 8.9375 13.75 9.86095 13.75 11V16.5H13.9792C15.3714 16.5 16.5 15.3714 16.5 13.9792V4.84507C16.5 4.05495 16.1861 3.29719 15.6274 2.73849L13.7615 0.872575C13.2105 0.321558 12.4658 0.00868085 11.6875 0.000174185V4.125C11.6875 5.26409 10.7641 6.1875 9.625 6.1875H5.5C4.36091 6.1875 3.4375 5.26409 3.4375 4.125L3.4375 0ZM10.3125 0V4.125C10.3125 4.50469 10.0047 4.8125 9.625 4.8125H5.5C5.12031 4.8125 4.8125 4.50469 4.8125 4.125L4.8125 0L10.3125 0ZM12.375 16.5V11C12.375 10.6203 12.0672 10.3125 11.6875 10.3125L4.8125 10.3125C4.43281 10.3125 4.125 10.6203 4.125 11V16.5H12.375Z" fill="white" fill-opacity="0.5"/>
</svg>
