<svg width="23" height="23" viewBox="0 0 23 23" fill="none" xmlns="http://www.w3.org/2000/svg">
<path d="M22.3434 0.371791L22.494 0.506003C23.1204 1.13242 23.1652 2.12034 22.6283 2.79847L22.494 2.94912L13.9431 11.5L22.494 20.0509C23.1204 20.6773 23.1653 21.6652 22.6283 22.3434L22.494 22.494C21.8676 23.1204 20.8797 23.1653 20.2015 22.6283L20.0509 22.494L11.5 13.9431L2.94912 22.494C2.3227 23.1204 1.33483 23.1653 0.656622 22.6283L0.506003 22.494C-0.120411 21.8676 -0.165242 20.8797 0.371754 20.2015L0.506003 20.0509L9.0569 11.5L0.506003 2.94912C-0.120459 2.32265 -0.165254 1.33482 0.371791 0.656658L0.506003 0.506003C1.13242 -0.12041 2.12034 -0.165193 2.79847 0.371729L2.94912 0.506003L11.5 9.0569L20.0509 0.506003C20.6774 -0.120459 21.6652 -0.165254 22.3434 0.371791Z" fill="white" fill-opacity="0.85"/>
</svg>
