<svg width="64" height="64" viewBox="0 0 64 64" fill="none" xmlns="http://www.w3.org/2000/svg">
<path d="M12.8 7.2C12.8 3.38912 15.7606 0.270078 19.5072 0.0166381L20 0L44 2.09815e-06C47.8108 2.43129e-06 50.93 2.96065 51.1834 6.70721L51.2 7.2L51.2 56.8C51.2 60.6108 48.2395 63.73 44.493 63.9834L44 64H20C16.1891 64 13.0701 61.0395 12.8166 57.293L12.8 56.8L12.8 7.2ZM9.6 54.4H7.2C3.38912 54.4 0.270078 51.4395 0.0166382 47.693L0 47.2L1.32883e-06 16.8C1.66198e-06 12.9891 2.96064 9.87008 6.7072 9.61664L7.2 9.6H9.6L9.6 54.4ZM54.4 9.6H56.8C60.6108 9.6 63.73 12.5606 63.9834 16.3072L64 16.8V47.2C64 51.0108 61.0395 54.1301 57.293 54.3834L56.8 54.4H54.4L54.4 9.6Z" fill="white" fill-opacity="0.35"/>
</svg>
