<svg width="78" height="63" viewBox="0 0 78 63" fill="none" xmlns="http://www.w3.org/2000/svg">
<path d="M12 0V9H6.00001C2.68501 9 4.99016e-06 11.685 4.99016e-06 15V24V24.9375C4.99016e-06 26.2005 0.401583 27.433 1.14258 28.459L1.18945 28.5293C2.97746 30.9983 3.51572 34.1591 2.63672 37.0781L0.257813 44.9941L0.263674 45.0059C0.0918524 45.4854 0.00269477 45.9906 0 46.5C0.00217674 48.2364 1.00323 49.8167 2.57227 50.5606L8.31446 53.4316C8.3242 53.4375 8.33396 53.4434 8.34375 53.4492L8.40821 53.4785C9.05292 53.8193 9.77079 53.9982 10.5 54C12.4838 53.9995 14.2332 52.6999 14.8066 50.8008L19.3008 36H24C25.656 36 27 34.656 27 33H33L45 27V24H60V36C59.9847 37.0819 60.5531 38.0883 61.4876 38.6337C62.4221 39.1791 63.5779 39.1791 64.5124 38.6337C65.4469 38.0882 66.0153 37.0819 66 36V24H69C70.656 24 72 22.656 72 21H78V12H72V9.00001V3.00001H66V9.00001H24V1.09783e-05L12 0ZM46.1895 33.1113L34.3594 39C36.2763 43.0081 40.5673 50.799 48.6328 60.7852C48.8444 61.1436 49.1047 61.4709 49.4063 61.7578C50.2404 62.5527 51.3478 62.9973 52.5 63C53.6381 62.9978 54.7331 62.5644 55.5645 61.7871C55.6329 61.7228 55.6994 61.6564 55.7637 61.5879C56.1125 61.2527 58.5645 58.8945 58.5645 58.8106C58.5645 58.8103 58.5645 58.7933 58.5645 58.793C59.4793 57.9422 59.9994 56.7493 60 55.5C59.9982 54.1569 59.3965 52.8847 58.3594 52.0313C57.6576 51.3514 50.9652 44.6995 46.1895 33.1113H46.1895Z" fill="white" fill-opacity="0.35"/>
</svg>
