<svg width="81" height="104" viewBox="0 0 81 104" fill="none" xmlns="http://www.w3.org/2000/svg">
<path d="M0.746447 7.14696C0.620913 12.6879 0.725524 18.2323 0.690653 23.7767C0.617425 26.3676 1.86579 28.9585 3.97894 30.4683C5.49232 31.6016 7.40322 32.0794 9.27577 32.0096C11.4587 31.9399 13.7566 32.2921 15.814 31.3645C18.6803 30.1894 20.6749 27.2149 20.6749 24.1184C20.6924 18.7553 20.6854 13.3888 20.6784 8.0257C20.7168 4.93268 18.7745 1.94079 15.9395 0.713353C13.6346 -0.339736 11.0402 0.110093 8.59231 0.0298909C4.66938 -0.018928 1.0812 3.24146 0.746447 7.14696Z" fill="white" fill-opacity="0.15"/>
<path d="M28.1687 12.0557C26.1915 12.2231 24.5631 14.0886 24.6398 16.0693C24.6259 17.9906 26.1985 19.7725 28.1164 19.9573C29.9994 20.0968 31.8929 19.9504 33.7759 20.034C34.4698 21.2406 35.5089 22.196 36.6736 22.9388C36.6806 42.3128 36.6841 61.6834 36.6701 81.0574C35.5055 81.7862 34.4907 82.7556 33.8038 83.9517C31.6104 84.1574 29.3508 83.6866 27.2098 84.255C24.5387 85.1442 23.7541 88.9904 25.8568 90.8595C28.0083 92.7913 31.1362 91.6929 33.7375 91.9893C35.2335 94.5035 38.1138 96.1459 41.0568 95.9611C43.7384 95.8599 46.2351 94.2733 47.6055 91.9893C49.4362 91.9544 51.2739 92.0346 53.1046 91.9544C54.9876 91.8254 56.6021 90.1725 56.7102 88.293C56.9194 86.2426 55.2805 84.2236 53.2266 84.0319C51.3436 83.9098 49.4571 84.0528 47.5741 83.9586C46.8663 82.7695 45.8515 81.8001 44.6834 81.0679C44.6694 61.6938 44.6694 42.3198 44.6834 22.9457C45.848 22.203 46.8698 21.2336 47.5706 20.034C49.4606 19.9538 51.3541 20.0863 53.2441 19.9678C55.2945 19.7621 56.9264 17.7396 56.7067 15.6927C56.5916 13.8236 54.9911 12.1742 53.1151 12.0417C51.2844 11.9685 49.4502 12.0452 47.616 12.0103C46.1723 9.61474 43.4978 7.98629 40.6768 8.02813C37.8557 7.98629 35.1846 9.61823 33.748 12.0103C31.8859 12.0487 30.0273 11.9545 28.1687 12.0557Z" fill="white" fill-opacity="0.15"/>
<path d="M60.7202 7.15629C60.6017 12.6902 60.7028 18.2277 60.6679 23.7616C60.5529 26.886 62.4324 29.9755 65.2918 31.2553C67.5165 32.3467 70.0516 31.9283 72.4332 32.005C75.46 32.1026 78.4519 30.3487 79.7909 27.6253C80.5337 26.2305 80.715 24.6299 80.6662 23.0712C80.6522 18.0638 80.6731 13.0529 80.6557 8.042C80.701 4.9455 78.7622 1.95013 75.9238 0.715712C73.6153 -0.344351 71.014 0.108965 68.5626 0.0287629C64.6362 -0.0165689 61.0515 3.2508 60.7202 7.15629Z" fill="white" fill-opacity="0.15"/>
<path d="M60.7063 79.3069C60.6226 84.8583 60.6854 90.4131 60.675 95.9645C60.6471 98.6147 62.0454 101.22 64.2701 102.656C65.7381 103.657 67.5409 104.044 69.2984 103.985C71.4046 103.912 73.6119 104.243 75.6135 103.409C78.6193 102.259 80.715 99.1482 80.6592 95.9297C80.6523 90.4829 80.6871 85.0361 80.6418 79.5928C80.5476 75.5025 76.8514 71.9457 72.7645 72.0015C70.3585 72.0852 67.8199 71.6389 65.5464 72.6292C62.8648 73.7381 60.9121 76.4057 60.7063 79.3069Z" fill="white" fill-opacity="0.15"/>
<path d="M0.698332 93.1636C0.683286 88.5497 0.668241 83.9362 0.725134 79.325C0.735343 79.1509 0.752046 78.9778 0.774988 78.8062L8.72229 88.4704L0.942884 98.0231C0.795312 97.4619 0.713697 96.881 0.707698 96.2895C0.705128 95.2476 0.70173 94.2056 0.698332 93.1636Z" fill="#EB5757"/>
<path d="M2.61858 101.167L10.95 91.1276L18.9984 100.875C18.2431 101.855 17.2665 102.663 16.1379 103.19C14.3792 104.068 12.4235 104.025 10.4914 103.981C9.85303 103.967 9.2172 103.952 8.59192 103.972C6.28283 104.005 4.09961 102.884 2.61858 101.167Z" fill="#EB5757"/>
<path d="M20.5379 97.4966L13.2272 88.599L20.665 79.5145C20.6713 79.6383 20.6745 79.7623 20.6745 79.8865C20.692 85.2391 20.685 90.5952 20.678 95.9478C20.6859 96.4693 20.6374 96.9882 20.5379 97.4966Z" fill="#EB5757"/>
<path d="M19.4328 75.7127L10.95 85.899L2.17487 75.3616C3.64021 73.3357 6.03857 71.9711 8.58146 72.0022C9.22257 72.0237 9.87447 72.0085 10.5288 71.9932C12.4262 71.9489 14.344 71.9041 16.0786 72.752C17.4611 73.3831 18.623 74.4363 19.4328 75.7127Z" fill="#EB5757"/>
</svg>
