<svg width="82" height="51" viewBox="0 0 82 51" fill="none" xmlns="http://www.w3.org/2000/svg">
<g filter="url(#filter0_d_827_4161)">
<path d="M8.99986 41.2931L9.00122 41.2935C9.08253 41.3142 9.16428 41.3244 9.24533 41.3244L74.8064 41.3244C75.065 41.3244 75.3155 41.223 75.5028 41.0411L75.5031 41.0408C76.2605 40.3063 76.7896 39.1759 76.9186 37.7665L8.99986 41.2931ZM8.99986 41.2931C7.74057 40.9743 6.71859 40.3806 6.02502 39.4997L6.02481 39.4995C5.35107 38.6444 4.8751 37.4116 5.02912 35.5391L5.05448 35.3631C7.19331 25.0143 9.52023 14.7253 12.0046 4.48405C12.0229 4.41009 12.0482 4.34109 12.0788 4.27961L12.0804 4.27619C12.2398 3.95189 12.3999 3.6629 12.5905 3.39175C13.1889 2.55251 14.0713 1.84556 15.0604 1.34964L15.0607 1.34948C15.2006 1.27933 15.3534 1.24316 15.5082 1.24316L65.5932 1.24316C65.6643 1.24316 65.7396 1.25163 65.8177 1.26953C66.6341 1.45758 67.3355 1.71798 67.9447 2.17352L67.9453 2.17397C68.857 2.85453 69.575 4.06575 70.073 5.47783L70.1259 5.66988C72.3023 16.2883 74.5236 26.8967 76.8989 37.4563L76.899 37.4568M8.99986 41.2931L76.899 37.4568M76.899 37.4568C76.9214 37.5562 76.9282 37.6607 76.9186 37.7663L76.899 37.4568ZM5.23935 40.1184C6.10041 41.2119 7.33563 41.9034 8.75443 42.2626L5.23935 40.1184Z" fill="#EB5757" fill-opacity="0.5" stroke="#EB5757" stroke-width="2"/>
</g>
<defs>
<filter id="filter0_d_827_4161" x="0" y="0.243164" width="81.9229" height="50.0811" filterUnits="userSpaceOnUse" color-interpolation-filters="sRGB">
<feFlood flood-opacity="0" result="BackgroundImageFix"/>
<feColorMatrix in="SourceAlpha" type="matrix" values="0 0 0 0 0 0 0 0 0 0 0 0 0 0 0 0 0 0 127 0" result="hardAlpha"/>
<feOffset dy="4"/>
<feGaussianBlur stdDeviation="2"/>
<feComposite in2="hardAlpha" operator="out"/>
<feColorMatrix type="matrix" values="0 0 0 0 0 0 0 0 0 0 0 0 0 0 0 0 0 0 0.25 0"/>
<feBlend mode="normal" in2="BackgroundImageFix" result="effect1_dropShadow_827_4161"/>
<feBlend mode="normal" in="SourceGraphic" in2="effect1_dropShadow_827_4161" result="shape"/>
</filter>
</defs>
</svg>
