<svg width="74" height="43" viewBox="0 0 74 43" fill="none" xmlns="http://www.w3.org/2000/svg">
<path d="M4.99986 41.131L5.00122 41.1314C5.08253 41.1521 5.16428 41.1623 5.24533 41.1623L70.8064 41.1623C71.065 41.1623 71.3155 41.0609 71.5028 40.879L71.5031 40.8787C72.2605 40.1442 72.7896 39.0138 72.9186 37.6044L4.99986 41.131ZM4.99986 41.131C3.74057 40.8122 2.71859 40.2185 2.02502 39.3376L2.02481 39.3374C1.35107 38.4823 0.875099 37.2495 1.02912 35.377L1.05448 35.201C3.19331 24.8522 5.52023 14.5632 8.00459 4.32194C8.02291 4.24798 8.04825 4.17898 8.07877 4.1175L8.08044 4.11408C8.23982 3.78979 8.39989 3.50079 8.59047 3.22964C9.18893 2.3904 10.0713 1.68345 11.0604 1.18753L11.0607 1.18737C11.2006 1.11722 11.3534 1.08105 11.5082 1.08105L61.5932 1.08105C61.6643 1.08105 61.7396 1.08952 61.8177 1.10742C62.6341 1.29547 63.3355 1.55587 63.9447 2.01141L63.9453 2.01186C64.857 2.69242 65.575 3.90364 66.073 5.31572L66.1259 5.50777C68.3023 16.1262 70.5236 26.7346 72.8989 37.2942L72.899 37.2947M4.99986 41.131L72.899 37.2947M72.899 37.2947C72.9214 37.3941 72.9282 37.4986 72.9186 37.6042L72.899 37.2947ZM1.23935 39.9563C2.10041 41.0498 3.33563 41.7412 4.75443 42.1004L1.23935 39.9563Z" fill="#6FCF97" fill-opacity="0.5" stroke="#6FCF97" stroke-width="2"/>
</svg>
