<svg width="82" height="51" viewBox="0 0 82 51" fill="none" xmlns="http://www.w3.org/2000/svg">
<g filter="url(#filter0_d_1_30)">
<path d="M9.00112 41.2935L8.99976 41.2931C8.69483 41.2159 8.40321 41.1224 8.12665 41.0124L7.75704 41.9415C7.09278 41.6773 6.48685 41.3245 5.96361 40.8741L6.616 40.1162C6.39989 39.9302 6.20233 39.725 6.02493 39.4997L6.02472 39.4995C5.82229 39.2426 5.64212 38.9572 5.49152 38.6383L4.58727 39.0653C4.27031 38.3941 4.0615 37.6027 4.01158 36.6665L5.01017 36.6133C4.99252 36.2823 4.9973 35.925 5.02903 35.5392L5.03328 35.5097L4.0435 35.3671L4.06045 35.2493L5.02895 35.3888L5.04824 35.3928C5.04832 35.3924 5.0484 35.392 5.04848 35.3917L5.05024 35.3919L5.05439 35.3631C5.18595 34.7265 5.31822 34.0902 5.45119 33.4541L4.47236 33.2495C4.74287 31.9555 5.01628 30.6624 5.29255 29.3702L6.27045 29.5793C6.54652 28.288 6.82545 26.9977 7.10716 25.7082L6.13021 25.4948C6.41236 24.2033 6.6973 22.9127 6.98499 21.623L7.961 21.8407C8.24847 20.5519 8.53868 19.264 8.83157 17.9769L7.85649 17.755C8.1498 16.4661 8.44577 15.178 8.74437 13.8907L9.71851 14.1167C10.0169 12.8303 10.3179 11.5448 10.6214 10.2601L9.64824 10.0301C9.95219 8.74371 10.2587 7.45809 10.5677 6.17324L11.54 6.40708C11.6943 5.7656 11.8492 5.12431 12.0047 4.48321C12.0091 4.46549 12.0139 4.44798 12.0192 4.43073L11.0622 4.14051C11.0834 4.07061 11.1083 4.00178 11.137 3.93462L12.0567 4.32729C12.0637 4.31087 12.071 4.29496 12.0787 4.27959L12.0804 4.27619C12.1206 4.19433 12.1609 4.11468 12.2018 4.03681L11.3166 3.57163C11.4077 3.39818 11.5044 3.22743 11.6107 3.05925L12.4561 3.59341C12.4993 3.525 12.5439 3.45786 12.5903 3.39183C12.7402 3.18166 12.9083 2.9791 13.0924 2.78542L12.3677 2.09641C12.7923 1.64981 13.28 1.2541 13.8035 0.91682L14.3451 1.75747C14.5761 1.60863 14.8156 1.47234 15.0603 1.34964L15.0607 1.34948C15.0956 1.33195 15.1313 1.31656 15.1676 1.30333L14.8253 0.363734C14.9711 0.310646 15.1224 0.274711 15.2764 0.256682L15.3927 1.2499C15.4309 1.24543 15.4694 1.24316 15.5082 1.24316H17.595V0.243164L21.7688 0.243164V1.24316L25.9425 1.24316V0.243164L30.1163 0.243164V1.24316L34.29 1.24316V0.243164L38.4638 0.243164V1.24316L42.6375 1.24316V0.243164L46.8113 0.243164V1.24316L50.985 1.24316V0.243164L55.1588 0.243164V1.24316L59.3325 1.24316V0.243164L63.5063 0.243164V1.24316L65.5932 1.24316C65.611 1.24316 65.6291 1.2437 65.6474 1.24478L65.7063 0.246513C65.7816 0.250951 65.8566 0.259756 65.9311 0.272679L65.7602 1.25797C65.7792 1.26126 65.7983 1.26511 65.8176 1.26953C66.0228 1.3168 66.221 1.36865 66.4128 1.42726L66.7051 0.470932C67.141 0.604165 67.5642 0.773081 67.9684 0.99945L67.4798 1.87195C67.6397 1.96155 67.7947 2.06139 67.9446 2.17352L67.9452 2.17397C68.1819 2.35067 68.4083 2.56512 68.6234 2.81453L69.3807 2.16137C69.8642 2.72191 70.2675 3.39266 70.5979 4.11015L69.6896 4.52846C69.8307 4.83477 69.9584 5.15315 70.0729 5.47783L70.0815 5.50891L70.0836 5.50832C70.0837 5.50859 70.0838 5.50887 70.0839 5.50914L70.096 5.50491L71.0456 5.24342L71.081 5.37213L70.1169 5.63762L70.1258 5.66988C70.2596 6.3228 70.3936 6.97568 70.5278 7.6285L71.5073 7.42716C71.7801 8.7543 72.0537 10.0812 72.3283 11.4077L71.349 11.6104C71.6238 12.9377 71.8996 14.2647 72.1766 15.5914L73.1555 15.387C73.4324 16.7133 73.7105 18.0393 73.9901 19.3647L73.0117 19.5711C73.2915 20.8976 73.5727 22.2237 73.8556 23.5493L74.8336 23.3406C75.1164 24.6657 75.4009 25.9903 75.6873 27.3142L74.7099 27.5256C74.9965 28.8509 75.285 30.1757 75.5756 31.4998L76.5524 31.2854C76.8428 32.609 77.1354 33.9318 77.4302 35.2538L76.4542 35.4715C76.6018 36.1333 76.75 36.7949 76.8988 37.4563L76.8989 37.4568C76.9045 37.4817 76.9091 37.5068 76.9128 37.5322L77.9027 37.3904C77.9174 37.4935 77.924 37.5975 77.9226 37.7016L76.9227 37.6876C76.9223 37.7138 76.9209 37.74 76.9185 37.7663C76.8888 38.0913 76.8375 38.4025 76.7669 38.6977L77.7394 38.9305C77.5616 39.6735 77.2742 40.3461 76.8915 40.9222L76.0585 40.3689C75.892 40.6196 75.7059 40.8441 75.503 41.0408L75.5028 41.0411C75.4562 41.0863 75.4057 41.1266 75.3521 41.1615L75.8987 41.9989C75.683 42.1397 75.442 42.2378 75.1892 42.2873L74.997 41.3059C74.9345 41.3181 74.8707 41.3244 74.8063 41.3244H72.7575V42.3244H68.66V41.3244H64.5624V42.3244H60.4648V41.3244H56.3673V42.3244H52.2697V41.3244H48.1721V42.3244H44.0746V41.3244H39.977V42.3244H35.8794V41.3244H31.7819V42.3244H27.6843V41.3244H23.5867V42.3244L19.4892 42.3244V41.3244H15.3916V42.3244H11.294V41.3244H9.24524C9.22494 41.3244 9.20463 41.3238 9.18431 41.3225L9.12131 42.3205C9.03877 42.3153 8.95667 42.3049 8.87538 42.2895L9.06215 41.307C9.04182 41.3032 9.02147 41.2987 9.00112 41.2935Z" fill="#EB5757" fill-opacity="0.5" stroke="#EB5757" stroke-width="2" stroke-dasharray="4 4"/>
</g>
<defs>
<filter id="filter0_d_1_30" x="0" y="0.243164" width="81.9228" height="50.0813" filterUnits="userSpaceOnUse" color-interpolation-filters="sRGB">
<feFlood flood-opacity="0" result="BackgroundImageFix"/>
<feColorMatrix in="SourceAlpha" type="matrix" values="0 0 0 0 0 0 0 0 0 0 0 0 0 0 0 0 0 0 127 0" result="hardAlpha"/>
<feOffset dy="4"/>
<feGaussianBlur stdDeviation="2"/>
<feComposite in2="hardAlpha" operator="out"/>
<feColorMatrix type="matrix" values="0 0 0 0 0 0 0 0 0 0 0 0 0 0 0 0 0 0 0.25 0"/>
<feBlend mode="normal" in2="BackgroundImageFix" result="effect1_dropShadow_1_30"/>
<feBlend mode="normal" in="SourceGraphic" in2="effect1_dropShadow_1_30" result="shape"/>
</filter>
</defs>
</svg>
