<svg width="74" height="43" viewBox="0 0 74 43" fill="none" xmlns="http://www.w3.org/2000/svg">
<path fill-rule="evenodd" clip-rule="evenodd" d="M4.75443 42.0194C4.91507 42.0603 5.0797 42.0813 5.24533 42.0813L70.8064 42.0813C71.3262 42.0813 71.8262 41.8777 72.1993 41.5155C73.1582 40.5856 73.7678 39.2167 73.9144 37.6143C73.9334 37.4068 73.9204 37.1973 73.8745 36.9937C71.4989 26.4325 69.2769 15.8204 67.0988 5.19332L67.0279 4.93591C66.5011 3.4293 65.693 1.98754 64.5436 1.12948C63.7803 0.558761 62.9302 0.256424 62.0422 0.0518851C61.8945 0.0179615 61.7439 0 61.5932 0L11.5082 0C11.1969 0 10.8906 0.0728486 10.6123 0.212534C9.50375 0.768282 8.48405 1.5745 7.77466 2.57026C7.54218 2.90052 7.35558 3.24074 7.18298 3.59195C7.11812 3.72265 7.06821 3.86133 7.03329 4.00301C4.54391 14.2649 2.21219 24.5757 0.0690231 34.9473L0.0351028 35.1828C-0.145493 37.299 0.390266 38.7977 1.23935 39.8752C2.10041 40.9688 3.33563 41.6602 4.75443 42.0194Z" fill="white" fill-opacity="0.35"/>
</svg>
