<svg width="74" height="43" viewBox="0 0 74 43" fill="none" xmlns="http://www.w3.org/2000/svg">
<path d="M4.99986 41.2121L5.00122 41.2124C5.08253 41.2331 5.16428 41.2434 5.24533 41.2434L70.8064 41.2434C71.065 41.2434 71.3155 41.1419 71.5028 40.96L71.5031 40.9598C72.2605 40.2253 72.7896 39.0948 72.9186 37.6855L4.99986 41.2121ZM4.99986 41.2121C3.74057 40.8933 2.71859 40.2995 2.02502 39.4187L2.02481 39.4184C1.35107 38.5634 0.875099 37.3306 1.02912 35.4581L1.05448 35.282C3.19331 24.9333 5.52023 14.6443 8.00459 4.40299C8.02291 4.32903 8.04825 4.26004 8.07877 4.19856L8.08044 4.19513C8.23982 3.87084 8.39989 3.58184 8.59047 3.31069C9.18893 2.47146 10.0713 1.7645 11.0604 1.26859L11.0607 1.26843C11.2006 1.19827 11.3534 1.16211 11.5082 1.16211L61.5932 1.16211C61.6643 1.16211 61.7396 1.17058 61.8177 1.18848C62.6341 1.37653 63.3355 1.63692 63.9447 2.09246L63.9453 2.09292C64.857 2.77347 65.575 3.98469 66.073 5.39678L66.1259 5.58883C68.3023 16.2073 70.5236 26.8157 72.8989 37.3753L72.899 37.3758M4.99986 41.2121L72.899 37.3758M72.899 37.3758C72.9214 37.4752 72.9282 37.5797 72.9186 37.6853L72.899 37.3758ZM1.23935 40.0373C2.10041 41.1309 3.33563 41.8223 4.75443 42.1815L1.23935 40.0373Z" fill="#F2C94C" fill-opacity="0.5" stroke="#F2C94C" stroke-width="2"/>
</svg>
