<svg width="44" height="45" viewBox="0 0 44 45" fill="none" xmlns="http://www.w3.org/2000/svg">
<path d="M6.20841 9.09476C7.17201 7.01126 10.428 7.00676 11.3872 9.09476C12.2584 10.5843 11.3432 12.1953 10.2872 13.2618C10.2432 15.8403 10.2784 18.4233 10.2652 21.0018C13.6884 21.0018 17.1116 20.9973 20.5348 21.0018C20.5216 18.4143 20.5612 15.8268 20.5128 13.2438C19.4348 12.1953 18.5372 10.5663 19.4128 9.08576C20.3764 7.02026 23.5972 7.00676 24.5696 9.06776C25.4672 10.5573 24.552 12.1908 23.4872 13.2618C23.4432 15.8403 23.4784 18.4233 23.4652 21.0018C26.8884 20.9973 30.3116 21.0018 33.7348 21.0018C33.7216 18.4143 33.7568 15.8313 33.7128 13.2438C32.6392 12.1953 31.7372 10.5708 32.6172 9.08576C33.5808 7.00676 36.8324 7.01576 37.7872 9.09926C38.6584 10.5843 37.7432 12.1998 36.6872 13.2618C36.6564 20.9208 36.652 28.5798 36.6872 36.2388C37.6728 37.2513 38.5836 38.7003 37.8972 40.1538C37.1008 42.4083 33.682 42.6063 32.6436 40.4643C31.7372 38.9793 32.6128 37.3008 33.7128 36.2433C33.7568 32.1618 33.7216 28.0803 33.7348 23.9988C30.3116 23.9988 26.8884 23.9988 23.4652 23.9988C23.4784 26.5818 23.4432 29.1603 23.4872 31.7433C24.4772 32.7558 25.3924 34.2138 24.6928 35.6718C23.8832 37.9083 20.4952 38.1018 19.448 35.9733C18.5328 34.4883 19.4084 32.8008 20.5128 31.7388C20.5568 29.1603 20.5216 26.5773 20.5348 23.9988C17.1116 23.9988 13.6884 23.9988 10.2652 23.9988C10.2784 26.5818 10.2432 29.1648 10.2872 31.7433C11.286 32.7513 12.188 34.2138 11.4928 35.6673C10.692 37.9038 7.30401 38.1063 6.25681 35.9823C5.33281 34.5018 6.19961 32.8053 7.31281 31.7433C7.34361 25.5783 7.34801 19.4088 7.31281 13.2393C6.23921 12.1908 5.34161 10.5753 6.20841 9.09476Z" fill="white" fill-opacity="0.35"/>
</svg>
