<svg width="1180" height="750" viewBox="0 0 1180 750" fill="none" xmlns="http://www.w3.org/2000/svg">
<mask id="mask0_1_37" style="mask-type:alpha" maskUnits="userSpaceOnUse" x="0" y="0" width="1180" height="750">
<rect width="1180" height="750" rx="5" fill="url(#paint0_linear_1_37)" fill-opacity="0.05"/>
</mask>
<g mask="url(#mask0_1_37)">
<path d="M-705 604L661 -762L670.086 -752.914L-695.914 613.086L-705 604Z" fill="#CB83EE"/>
<path d="M-684.914 624.086L681.086 -741.914L690.172 -732.828L-675.828 633.172L-684.914 624.086Z" fill="#CB83EE"/>
<path d="M-664.828 644.172L701.172 -721.828L710.258 -712.742L-655.742 653.258L-664.828 644.172Z" fill="#CB83EE"/>
<path d="M-644.742 664.258L721.258 -701.742L730.344 -692.656L-635.656 673.344L-644.742 664.258Z" fill="#CB83EE"/>
<path d="M-624.656 684.344L741.344 -681.656L750.43 -672.57L-615.57 693.43L-624.656 684.344Z" fill="#CB83EE"/>
<path d="M-604.57 704.43L761.43 -661.57L770.516 -652.484L-595.484 713.516L-604.57 704.43Z" fill="#CB83EE"/>
<path d="M-584.484 724.516L781.516 -641.484L790.602 -632.398L-575.398 733.602L-584.484 724.516Z" fill="#CB83EE"/>
<path d="M-564.398 744.602L801.602 -621.398L810.688 -612.312L-555.312 753.688L-564.398 744.602Z" fill="#CB83EE"/>
<path d="M-544.312 764.688L821.688 -601.312L830.774 -592.226L-535.226 773.774L-544.312 764.688Z" fill="#CB83EE"/>
<path d="M-524.226 784.773L841.774 -581.227L850.86 -572.141L-515.14 793.859L-524.226 784.773Z" fill="#CB83EE"/>
<path d="M-504.14 804.859L861.859 -561.141L870.945 -552.055L-495.054 813.945L-504.14 804.859Z" fill="#CB83EE"/>
<path d="M-484.055 824.945L881.945 -541.055L891.031 -531.969L-474.969 834.031L-484.055 824.945Z" fill="#CB83EE"/>
<path d="M-463.969 845.031L902.031 -520.969L911.117 -511.883L-454.883 854.117L-463.969 845.031Z" fill="#CB83EE"/>
<path d="M-443.883 865.117L922.117 -500.883L931.203 -491.797L-434.797 874.203L-443.883 865.117Z" fill="#CB83EE"/>
<path d="M-423.797 885.203L942.203 -480.797L951.289 -471.711L-414.711 894.289L-423.797 885.203Z" fill="#CB83EE"/>
<path d="M-403.711 905.289L962.289 -460.711L971.375 -451.625L-394.625 914.375L-403.711 905.289Z" fill="#CB83EE"/>
<path d="M-383.625 925.375L982.375 -440.625L991.461 -431.539L-374.539 934.461L-383.625 925.375Z" fill="#CB83EE"/>
<path d="M-363.539 945.461L1002.46 -420.539L1011.55 -411.453L-354.453 954.547L-363.539 945.461Z" fill="#CB83EE"/>
<path d="M-343.453 965.547L1022.55 -400.453L1031.63 -391.367L-334.367 974.633L-343.453 965.547Z" fill="#CB83EE"/>
<path d="M-323.367 985.633L1042.63 -380.367L1051.72 -371.281L-314.281 994.719L-323.367 985.633Z" fill="#CB83EE"/>
<path d="M-303.281 1005.72L1062.72 -360.281L1071.8 -351.195L-294.195 1014.8L-303.281 1005.72Z" fill="#CB83EE"/>
<path d="M-283.195 1025.8L1082.8 -340.195L1091.89 -331.109L-274.109 1034.89L-283.195 1025.8Z" fill="#CB83EE"/>
<path d="M-263.109 1045.89L1102.89 -320.109L1111.98 -311.023L-254.023 1054.98L-263.109 1045.89Z" fill="#CB83EE"/>
<path d="M-243.023 1065.98L1122.98 -300.023L1132.06 -290.937L-233.937 1075.06L-243.023 1065.98Z" fill="#CB83EE"/>
<path d="M-222.937 1086.06L1143.06 -279.937L1152.15 -270.851L-213.851 1095.15L-222.937 1086.06Z" fill="#CB83EE"/>
<path d="M-202.851 1106.15L1163.15 -259.851L1172.23 -250.765L-193.765 1115.23L-202.851 1106.15Z" fill="#CB83EE"/>
<path d="M-182.765 1126.23L1183.23 -239.765L1192.32 -230.68L-173.679 1135.32L-182.765 1126.23Z" fill="#CB83EE"/>
<path d="M-162.679 1146.32L1203.32 -219.68L1212.41 -210.594L-153.593 1155.41L-162.679 1146.32Z" fill="#CB83EE"/>
<path d="M-142.594 1166.41L1223.41 -199.594L1232.49 -190.508L-133.508 1175.49L-142.594 1166.41Z" fill="#CB83EE"/>
<path d="M-122.508 1186.49L1243.49 -179.508L1252.58 -170.422L-113.422 1195.58L-122.508 1186.49Z" fill="#CB83EE"/>
<path d="M-102.422 1206.58L1263.58 -159.422L1272.66 -150.336L-93.3357 1215.66L-102.422 1206.58Z" fill="#CB83EE"/>
<path d="M-82.3357 1226.66L1283.66 -139.336L1292.75 -130.25L-73.2497 1235.75L-82.3357 1226.66Z" fill="#CB83EE"/>
<path d="M-62.2497 1246.75L1303.75 -119.25L1312.84 -110.164L-53.1638 1255.84L-62.2497 1246.75Z" fill="#CB83EE"/>
<path d="M-42.1638 1266.84L1323.84 -99.1639L1332.92 -90.0779L-33.0778 1275.92L-42.1638 1266.84Z" fill="#CB83EE"/>
<path d="M-22.0779 1286.92L1343.92 -79.078L1353.01 -69.992L-12.9919 1296.01L-22.0779 1286.92Z" fill="#CB83EE"/>
<path d="M-1.9919 1307.01L1364.01 -58.992L1373.09 -49.906L7.09408 1316.09L-1.9919 1307.01Z" fill="#CB83EE"/>
<path d="M18.094 1327.09L1384.09 -38.9061L1393.18 -29.8201L27.18 1336.18L18.094 1327.09Z" fill="#CB83EE"/>
<path d="M38.18 1347.18L1404.18 -18.8201L1413.27 -9.73414L47.2659 1356.27L38.18 1347.18Z" fill="#CB83EE"/>
<path d="M58.2659 1367.27L1424.27 1.26586L1433.35 10.3518L67.3519 1376.35L58.2659 1367.27Z" fill="#CB83EE"/>
<path d="M78.3519 1387.35L1444.35 21.3518L1453.44 30.4378L87.4378 1396.44L78.3519 1387.35Z" fill="#CB83EE"/>
<path d="M98.4378 1407.44L1464.44 41.4377L1473.52 50.5237L107.524 1416.52L98.4378 1407.44Z" fill="#CB83EE"/>
<path d="M118.524 1427.52L1484.52 61.5236L1493.61 70.6096L127.61 1436.61L118.524 1427.52Z" fill="#CB83EE"/>
<path d="M138.61 1447.61L1504.61 81.6096L1513.7 90.6956L147.696 1456.7L138.61 1447.61Z" fill="#CB83EE"/>
<path d="M158.696 1467.7L1524.7 101.696L1533.78 110.782L167.782 1476.78L158.696 1467.7Z" fill="#CB83EE"/>
<path d="M178.782 1487.78L1544.78 121.781L1553.87 130.867L187.868 1496.87L178.782 1487.78Z" fill="#CB83EE"/>
<path d="M198.867 1507.87L1564.87 141.867L1573.95 150.953L207.953 1516.95L198.867 1507.87Z" fill="#CB83EE"/>
<path d="M218.953 1527.95L1584.95 161.953L1594.04 171.039L228.039 1537.04L218.953 1527.95Z" fill="#CB83EE"/>
<path d="M239.039 1548.04L1605.04 182.039L1614.13 191.125L248.125 1557.13L239.039 1548.04Z" fill="#CB83EE"/>
<path d="M259.125 1568.13L1625.13 202.125L1634.21 211.211L268.211 1577.21L259.125 1568.13Z" fill="#CB83EE"/>
<path d="M279.211 1588.21L1645.21 222.211L1654.3 231.297L288.297 1597.3L279.211 1588.21Z" fill="#CB83EE"/>
<path d="M299.297 1608.3L1665.3 242.297L1674.38 251.383L308.383 1617.38L299.297 1608.3Z" fill="#CB83EE"/>
<path d="M319.383 1628.38L1685.38 262.383L1694.47 271.469L328.469 1637.47L319.383 1628.38Z" fill="#CB83EE"/>
<path d="M339.469 1648.47L1705.47 282.469L1714.56 291.555L348.555 1657.55L339.469 1648.47Z" fill="#CB83EE"/>
</g>
<path d="M597.303 100C605.319 100 612.577 104.452 616.585 111.024C618.535 114.204 619.835 118.126 619.51 122.26C619.293 125.44 620.268 128.62 622.001 131.588C627.526 140.598 639.767 143.99 649.3 138.902C660.024 132.754 673.565 136.464 679.74 146.958L686.998 159.466C693.281 169.96 689.814 183.422 678.982 189.464C669.774 194.87 666.524 206.848 672.049 215.964C673.782 218.826 675.732 221.264 678.765 222.748C682.556 224.762 685.481 227.942 687.539 231.122C691.547 237.694 691.223 245.75 687.323 252.852L679.74 265.572C675.732 272.356 668.257 276.596 660.566 276.596C656.774 276.596 652.55 275.536 649.083 273.416C646.267 271.614 643.017 270.978 639.55 270.978C628.826 270.978 619.835 279.776 619.51 290.27C619.51 302.46 609.544 312 597.086 312H582.353C569.787 312 559.821 302.46 559.821 290.27C559.605 279.776 550.613 270.978 539.889 270.978C536.314 270.978 533.064 271.614 530.356 273.416C526.89 275.536 522.557 276.596 518.873 276.596C511.074 276.596 503.599 272.356 499.591 265.572L492.117 252.852C488.108 245.962 487.892 237.694 491.9 231.122C493.633 227.942 496.883 224.762 500.566 222.748C503.599 221.264 505.549 218.826 507.391 215.964C512.807 206.848 509.557 194.87 500.349 189.464C489.625 183.422 486.159 169.96 492.333 159.466L499.591 146.958C505.874 136.464 519.307 132.754 530.14 138.902C539.564 143.99 551.805 140.598 557.33 131.588C559.063 128.62 560.038 125.44 559.821 122.26C559.605 118.126 560.796 114.204 562.854 111.024C566.863 104.452 574.121 100.212 582.028 100H597.303ZM589.828 176.108C572.821 176.108 559.063 189.464 559.063 206.106C559.063 222.748 572.821 235.998 589.828 235.998C606.835 235.998 620.268 222.748 620.268 206.106C620.268 189.464 606.835 176.108 589.828 176.108Z" fill="url(#paint1_linear_1_37)" fill-opacity="0.35"/>
<defs>
<linearGradient id="paint0_linear_1_37" x1="590" y1="0" x2="590" y2="750" gradientUnits="userSpaceOnUse">
<stop stop-color="#D9D9D9"/>
<stop offset="1" stop-color="#D9D9D9" stop-opacity="0"/>
</linearGradient>
<linearGradient id="paint1_linear_1_37" x1="589.7" y1="100" x2="589.7" y2="312" gradientUnits="userSpaceOnUse">
<stop stop-color="#CB83EE"/>
<stop offset="1" stop-color="#CB83EE" stop-opacity="0"/>
</linearGradient>
</defs>
</svg>
