<svg width="81" height="104" viewBox="0 0 81 104" fill="none" xmlns="http://www.w3.org/2000/svg">
<path d="M0.746691 96.8521C0.621157 91.3111 0.725768 85.7667 0.690897 80.2223C0.617669 77.6314 1.86603 75.0406 3.97918 73.5307C5.49256 72.3974 7.40347 71.9197 9.27601 71.9894C11.4589 72.0591 13.7569 71.707 15.8142 72.6345C18.6806 73.8096 20.6752 76.7841 20.6752 79.8806C20.6926 85.2437 20.6856 90.6102 20.6787 95.9733C20.717 99.0663 18.7747 102.058 15.9398 103.286C13.6348 104.339 11.0405 103.889 8.59255 103.969C4.66962 104.018 1.08145 100.758 0.746691 96.8521Z" fill="white" fill-opacity="0.15"/>
<path d="M0.725621 24.6737C0.65588 19.0212 0.694238 13.3652 0.708186 7.70923C0.75003 3.58405 4.47071 -0.0320245 8.5924 0.0272557C11.1101 0.103971 13.7986 -0.359799 16.1384 0.808362C18.8792 2.08811 20.7239 5.02769 20.6785 8.05096C20.6855 13.4036 20.6925 18.7597 20.675 24.1123C20.675 27.1147 18.806 30.0019 16.0791 31.2468C13.7463 32.3871 11.0822 31.9128 8.58194 31.9965C4.59276 32.0453 0.959254 28.6594 0.725621 24.6737Z" fill="#F2C94C"/>
<path d="M28.169 91.9433C26.1918 91.776 24.5633 89.9104 24.6401 87.9298C24.6261 86.0084 26.1988 84.2265 28.1166 84.0417C29.9996 83.9022 31.8931 84.0487 33.7761 83.965C34.47 82.7585 35.5092 81.803 36.6739 81.0603C36.6808 61.6862 36.6843 42.3157 36.6704 22.9416C35.5057 22.2128 34.491 21.2434 33.804 20.0474C31.6107 19.8416 29.3511 20.3124 27.21 19.744C24.5389 18.8548 23.7543 15.0086 25.857 13.1395C28.0085 11.2077 31.1364 12.3061 33.7378 12.0097C35.2337 9.49556 38.114 7.85315 41.0571 8.03796C43.7386 8.13909 46.2353 9.7257 47.6058 12.0097C49.4365 12.0446 51.2741 11.9644 53.1048 12.0446C54.9878 12.1736 56.6023 13.8265 56.7104 15.706C56.9197 17.7564 55.2808 19.7754 53.2269 19.9672C51.3439 20.0892 49.4574 19.9462 47.5744 20.0404C46.8665 21.2295 45.8518 22.1989 44.6836 22.9312C44.6697 42.3052 44.6697 61.6792 44.6836 81.0533C45.8483 81.796 46.87 82.7654 47.5709 83.965C49.4609 84.0452 51.3543 83.9127 53.2443 84.0312C55.2947 84.237 56.9266 86.2595 56.707 88.3064C56.5919 90.1754 54.9913 91.8248 53.1153 91.9573C51.2846 92.0305 49.4504 91.9538 47.6162 91.9887C46.1726 94.3843 43.498 96.0127 40.677 95.9709C37.856 96.0127 35.1849 94.3808 33.7482 91.9887C31.8861 91.9503 30.0275 92.0445 28.169 91.9433Z" fill="white" fill-opacity="0.15"/>
<path d="M60.7205 96.8427C60.6019 91.3088 60.703 85.7714 60.6682 80.2374C60.5531 77.113 62.4326 74.0235 65.292 72.7437C67.5167 71.6523 70.0518 72.0707 72.4335 71.994C75.4602 71.8964 78.4521 73.6504 79.7912 76.3737C80.5339 77.7686 80.7152 79.3691 80.6664 80.9278C80.6524 85.9352 80.6734 90.9461 80.6559 95.957C80.7013 99.0535 78.7625 102.049 75.924 103.283C73.6156 104.343 71.0142 103.89 68.5629 103.97C64.6364 104.016 61.0517 100.748 60.7205 96.8427Z" fill="white" fill-opacity="0.15"/>
<path d="M60.7066 24.6921C60.6229 19.1407 60.6857 13.5859 60.6752 8.03449C60.6473 5.38434 62.0456 2.77951 64.2703 1.34284C65.7384 0.342062 67.5412 -0.0450023 69.2987 0.014278C71.4048 0.0875068 73.6121 -0.243764 75.6137 0.589641C78.6195 1.74037 80.7153 4.85081 80.6595 8.06935C80.6525 13.5161 80.6874 18.9629 80.642 24.4062C80.5479 28.4965 76.8516 32.0533 72.7648 31.9975C70.3587 31.9138 67.8202 32.3601 65.5466 31.3698C62.8651 30.2609 60.9123 27.5934 60.7066 24.6921Z" fill="white" fill-opacity="0.15"/>
</svg>
