<svg width="82" height="107" viewBox="0 0 82 107" fill="none" xmlns="http://www.w3.org/2000/svg">
<path d="M0.335913 98.8008C0.215871 95.7856 0.300605 92.7634 0.286483 89.7412C0.279421 86.6236 2.26717 83.6261 5.13758 82.4116C7.35482 81.4054 9.84038 81.8043 12.1988 81.7302C15.3658 81.6243 18.4834 83.5414 19.7721 86.4436C20.9089 88.7985 20.4182 91.4783 20.5241 93.9991C20.4358 96.4247 20.8736 98.995 19.7933 101.269C18.5081 104.199 15.3658 106.141 12.1741 106.021C9.86863 105.943 7.44662 106.332 5.26115 105.396C2.58846 104.305 0.607772 101.685 0.335913 98.8008Z" fill="white" fill-opacity="0.15"/>
<path d="M0.325291 66.3184C0.237025 63.2008 0.272332 60.0762 0.304107 56.9551C0.441802 52.8384 4.17722 49.2901 8.29747 49.3501C10.8854 49.4172 13.6676 48.9547 16.0613 50.2116C18.8082 51.5497 20.5982 54.5472 20.5205 57.5977C20.4958 60.5034 20.5841 63.4162 20.4746 66.3219C20.1816 70.3221 16.5133 73.6797 12.506 73.6232C10.0875 73.5491 7.53838 73.9728 5.247 73.0019C2.54959 71.8932 0.565374 69.2311 0.325291 66.3184Z" fill="white" fill-opacity="0.15"/>
<path d="M28.3692 97.8969C26.3285 97.8686 24.542 96.0362 24.5314 94.0061C24.4149 91.9795 26.0601 90.0553 28.0832 89.8753C29.965 89.7517 31.8574 89.8682 33.7428 89.8188C34.5054 88.6184 35.5152 87.6015 36.7156 86.8389C36.7121 80.7239 36.7262 74.6123 36.7085 68.4973C35.5187 67.7382 34.5089 66.739 33.7534 65.5456C31.8539 65.4856 29.9474 65.6163 28.0514 65.4821C25.7141 65.2809 23.9947 62.7317 24.6514 60.4827C25.061 58.7951 26.6603 57.4923 28.3974 57.4605C30.1769 57.3934 31.9563 57.4676 33.7322 57.4322C34.5019 56.2424 35.5011 55.2256 36.705 54.4736C36.7297 42.9637 36.7085 31.4503 36.7156 19.9369C35.5258 19.1637 34.5019 18.161 33.7322 16.9606C31.6844 16.8758 29.619 17.1088 27.5854 16.8229C24.7432 16.2438 23.5216 12.3601 25.5164 10.2559C27.6136 7.85504 31.1478 9.35204 33.7958 8.71652C35.0915 6.8241 37.0404 5.30593 39.3565 4.94581C42.6435 4.2997 46.1036 6.00146 47.7947 8.85069C49.6907 8.90012 51.5937 8.77654 53.4896 8.9107C55.5374 9.10136 57.1756 11.1032 57.0026 13.1439C56.9285 15.054 55.3185 16.7699 53.4084 16.9182C51.5372 17.0171 49.6589 16.9182 47.7877 16.9606C47.0215 18.161 46.0012 19.1601 44.8149 19.9439C44.8184 31.4538 44.8008 42.9672 44.8219 54.4771C46.0153 55.2362 47.0215 56.2424 47.7877 57.4322C49.666 57.4781 51.5478 57.3687 53.4261 57.4817C55.2832 57.637 56.8614 59.2682 56.992 61.1253C57.2357 63.2119 55.5727 65.3056 53.472 65.4856C51.5796 65.6127 49.6836 65.4892 47.7912 65.5456C47.0251 66.7319 46.0188 67.7452 44.8219 68.4973C44.8008 74.6159 44.8184 80.7309 44.8149 86.846C46.0047 87.6192 47.0321 88.6184 47.7947 89.8188C49.8178 89.9 51.862 89.6811 53.8745 89.9353C56.4448 90.426 57.8606 93.6742 56.473 95.8915C55.6892 97.332 54.0087 98.0522 52.4163 97.9286C50.8805 97.9286 49.3447 97.9251 47.8089 97.911C46.4319 100.128 44.0699 101.756 41.4325 101.932C38.3538 102.247 35.3104 100.548 33.7357 97.9287C31.9457 97.8933 30.1557 97.971 28.3692 97.8969Z" fill="white" fill-opacity="0.15"/>
<path d="M61.2833 90.1205C61.2682 93.5781 61.2532 97.0353 61.3101 100.491C61.3203 100.621 61.337 100.751 61.3599 100.88L69.3069 93.6375L61.5278 86.479C61.3803 86.8995 61.2987 87.3348 61.2927 87.778C61.2901 88.5589 61.2867 89.3397 61.2833 90.1205Z" fill="#EB5757"/>
<path d="M63.2035 84.1228L71.5345 91.6463L79.5826 84.3416C78.8273 83.6074 77.8507 83.0016 76.7221 82.6067C74.9635 81.9487 73.0079 81.9816 71.076 82.0142C70.4376 82.0249 69.8018 82.0356 69.1765 82.0213C66.8675 81.9965 64.6844 82.836 63.2035 84.1228Z" fill="#EB5757"/>
<path d="M81.122 86.8735L73.8116 93.5411L81.2491 100.349C81.2554 100.256 81.2586 100.163 81.2586 100.07C81.276 96.059 81.2691 92.0453 81.2621 88.0341C81.2699 87.6434 81.2215 87.2545 81.122 86.8735Z" fill="#EB5757"/>
<path d="M80.0169 103.198L71.5345 95.5645L62.7598 103.461C64.225 104.979 66.6233 106.002 69.1661 105.978C69.8071 105.962 70.459 105.974 71.1133 105.985C73.0106 106.018 74.9283 106.052 76.6629 105.417C78.0453 104.944 79.2072 104.154 80.0169 103.198Z" fill="#EB5757"/>
<path d="M61.0521 66.3042C60.9638 63.1902 61.0027 60.0691 61.0309 56.9551C61.1686 52.8348 64.904 49.2865 69.0243 49.3501C71.531 49.4207 74.2002 48.9794 76.5481 50.0951C79.2031 51.2919 81.0849 54.0282 81.2226 56.941C81.2932 58.9393 81.2297 60.9412 81.2509 62.9395C81.2297 64.7401 81.4097 66.6078 80.7495 68.3273C79.6903 71.2965 76.7564 73.4961 73.5964 73.6056C71.8346 73.6444 70.0693 73.6762 68.3111 73.5809C64.5615 73.3019 61.3239 70.0502 61.0521 66.3042Z" fill="white" fill-opacity="0.15"/>
<path d="M61.0415 17.6061C60.9638 14.6969 61.0203 11.7841 61.0133 8.87134C60.9638 5.66552 63.0257 2.57622 65.9985 1.38286C68.184 0.450771 70.606 0.832077 72.9115 0.761465C76.0044 0.655546 79.0548 2.47029 80.4 5.26303C81.6675 7.69917 81.1414 10.5131 81.2509 13.1434C81.1662 15.4595 81.5686 17.8992 80.6118 20.0917C79.4644 22.888 76.6363 24.904 73.6106 25.024C71.8559 25.0664 70.0976 25.0876 68.3464 25.0063C64.5439 24.7345 61.2604 21.4157 61.0415 17.6061Z" fill="white" fill-opacity="0.15"/>
<path d="M0.0415161 17.6061C-0.036158 14.6969 0.0203368 11.7841 0.0132754 8.87134C-0.0361537 5.66552 2.02574 2.57622 4.99853 1.38286C7.184 0.450771 9.60601 0.832077 11.9115 0.761465C15.0044 0.655546 18.0548 2.47029 19.4 5.26303C20.6675 7.69917 20.1414 10.5131 20.2509 13.1434C20.1662 15.4595 20.5686 17.8992 19.6118 20.0917C18.4644 22.888 15.6363 24.904 12.6106 25.024C10.8559 25.0664 9.0976 25.0876 7.34641 25.0063C3.54391 24.7345 0.260416 21.4157 0.0415161 17.6061Z" fill="white" fill-opacity="0.15"/>
</svg>
