<svg width="47" height="43" viewBox="0 0 47 43" fill="none" xmlns="http://www.w3.org/2000/svg">
<path d="M45 1C45.1374 1 45.266 1.02717 45.3825 1.07549L45.7656 0.151764C46.2545 0.354496 46.6455 0.745548 46.8482 1.23443L45.9245 1.61748C45.9728 1.734 46 1.86257 46 2L46 3.9375L47 3.9375L47 7.8125L46 7.8125L46 11.6875L47 11.6875L47 15.5625L46 15.5625L46 19.4375L47 19.4375L47 23.3125L46 23.3125L46 27.1875L47 27.1875L47 31.0625L46 31.0625L46 33C46 33.6024 45.941 34.1899 45.8287 34.7576L46.8097 34.9516C46.5501 36.2636 46.034 37.4832 45.3157 38.5562L44.4847 37.9998C43.8273 38.9817 42.9817 39.8273 41.9998 40.4847L42.5562 41.3157C41.4832 42.034 40.2636 42.5501 38.9516 42.8097L38.7576 41.8287C38.1899 41.941 37.6023 42 37 42L34.75 42L34.75 43L30.25 43L30.25 42L25.75 42L25.75 43L21.25 43L21.25 42L16.75 42L16.75 43L12.25 43L12.25 42L10 42C9.39765 42 8.81008 41.941 8.24244 41.8287L8.04837 42.8097C6.73643 42.5501 5.51675 42.0339 4.44384 41.3157L5.00016 40.4847C4.01827 39.8273 3.17267 38.9817 2.51531 37.9998L1.68434 38.5562C0.966042 37.4832 0.449883 36.2636 0.190339 34.9516L1.17133 34.7575C1.05903 34.1899 0.999997 33.6023 0.999997 33L0.999997 31.0625L-2.77109e-06 31.0625L-2.43232e-06 27.1875L0.999998 27.1875L0.999998 23.3125L-2.09356e-06 23.3125L-1.7548e-06 19.4375L0.999998 19.4375L0.999999 15.5625L-1.41603e-06 15.5625L-1.07727e-06 11.6875L0.999999 11.6875L0.999999 7.8125L-7.38508e-07 7.8125L-3.99745e-07 3.9375L1 3.9375L1 2C1 1.86257 1.02717 1.734 1.07549 1.61748L0.15176 1.23442C0.354492 0.745544 0.745544 0.354492 1.23442 0.15176L1.61748 1.07549C1.734 1.02717 1.86256 1 2 1L4.15 1L4.15 6.86311e-08L8.45 4.44549e-07L8.45 1L12.75 1L12.75 8.20467e-07L17.05 1.19638e-06L17.05 1L21.35 1L21.35 1.5723e-06L25.65 1.94822e-06L25.65 1L29.95 1L29.95 2.32414e-06L34.25 2.70006e-06L34.25 1L38.55 1L38.55 3.07597e-06L42.85 3.45189e-06L42.85 1L45 1Z" fill="#EB5757" fill-opacity="0.5" stroke="#EB5757" stroke-width="2" stroke-dasharray="4 4"/>
</svg>
