<svg width="82" height="107" viewBox="0 0 82 107" fill="none" xmlns="http://www.w3.org/2000/svg">
<path d="M80.9336 98.8008C81.0537 95.7856 80.9689 92.7634 80.983 89.7412C80.9901 86.6236 79.0024 83.6261 76.132 82.4116C73.9147 81.4054 71.4291 81.8043 69.0707 81.7302C65.9037 81.6243 62.7861 83.5414 61.4975 86.4436C60.3606 88.7985 60.8514 91.4783 60.7454 93.9991C60.8337 96.4247 60.3959 98.995 61.4763 101.269C62.7614 104.199 65.9037 106.141 69.0954 106.021C71.4009 105.943 73.8229 106.332 76.0084 105.396C78.6811 104.305 80.6618 101.685 80.9336 98.8008Z" fill="white" fill-opacity="0.15"/>
<path d="M80.9442 66.3184C81.0325 63.2008 80.9972 60.0762 80.9654 56.9551C80.8277 52.8384 77.0923 49.2901 72.9721 49.3501C70.3841 49.4172 67.602 48.9547 65.2082 50.2116C62.4614 51.5497 60.6713 54.5472 60.749 57.5977C60.7737 60.5034 60.6854 63.4162 60.7949 66.3219C61.0879 70.3221 64.7563 73.6797 68.7635 73.6232C71.182 73.5491 73.7311 73.9728 76.0225 73.0019C78.7199 71.8932 80.7042 69.2311 80.9442 66.3184Z" fill="white" fill-opacity="0.15"/>
<path d="M52.9004 97.8969C54.9411 97.8686 56.7276 96.0362 56.7382 94.0061C56.8547 91.9795 55.2094 90.0553 53.1863 89.8753C51.3045 89.7517 49.4121 89.8682 47.5267 89.8188C46.7641 88.6184 45.7544 87.6015 44.5539 86.8389C44.5575 80.7239 44.5433 74.6123 44.561 68.4973C45.7508 67.7382 46.7606 66.739 47.5161 65.5456C49.4156 65.4856 51.3222 65.6163 53.2181 65.4821C55.5554 65.2809 57.2748 62.7317 56.6181 60.4827C56.2086 58.7951 54.6092 57.4923 52.8721 57.4605C51.0927 57.3934 49.3132 57.4676 47.5373 57.4322C46.7676 56.2424 45.7685 55.2256 44.5645 54.4736C44.5398 42.9637 44.561 31.4503 44.5539 19.9369C45.7438 19.1637 46.7676 18.161 47.5373 16.9606C49.5851 16.8758 51.6505 17.1088 53.6842 16.8229C56.5263 16.2438 57.7479 12.3601 55.7531 10.2559C53.6559 7.85504 50.1218 9.35204 47.4738 8.71652C46.178 6.8241 44.2291 5.30593 41.913 4.94581C38.626 4.2997 35.166 6.00146 33.4748 8.85069C31.5788 8.90012 29.6758 8.77654 27.7799 8.9107C25.7321 9.10136 24.0939 11.1032 24.2669 13.1439C24.341 15.054 25.951 16.7699 27.8611 16.9182C29.7323 17.0171 31.6106 16.9182 33.4819 16.9606C34.248 18.161 35.2684 19.1601 36.4547 19.9439C36.4511 31.4538 36.4688 42.9672 36.4476 54.4771C35.2542 55.2362 34.248 56.2424 33.4819 57.4322C31.6036 57.4781 29.7217 57.3687 27.8434 57.4817C25.9863 57.637 24.4081 59.2682 24.2775 61.1253C24.0339 63.2119 25.6968 65.3056 27.7975 65.4856C29.69 65.6127 31.5859 65.4892 33.4783 65.5456C34.2445 66.7319 35.2507 67.7452 36.4476 68.4973C36.4688 74.6159 36.4511 80.7309 36.4547 86.846C35.2648 87.6192 34.2374 88.6184 33.4748 89.8188C31.4517 89.9 29.4075 89.6811 27.395 89.9353C24.8247 90.426 23.4089 93.6742 24.7965 95.8915C25.5803 97.332 27.2609 98.0522 28.8532 97.9286C30.389 97.9286 31.9248 97.9251 33.4607 97.911C34.8376 100.128 37.1996 101.756 39.837 101.932C42.9157 102.247 45.9591 100.548 47.5338 97.9287C49.3238 97.8933 51.1139 97.971 52.9004 97.8969Z" fill="white" fill-opacity="0.15"/>
<path d="M19.9862 65.2007C20.0013 61.7432 20.0163 58.2859 19.9594 54.8305C19.9492 54.6999 19.9325 54.5703 19.9096 54.4416L11.9626 61.6838L19.7417 68.8423C19.8893 68.4218 19.9709 67.9864 19.9769 67.5433C19.9794 66.7624 19.9828 65.9816 19.9862 65.2007Z" fill="#EB5757"/>
<path d="M18.0661 71.1985L9.73503 63.675L1.68697 70.9797C2.44224 71.7139 3.41884 72.3197 4.54739 72.7146C6.306 73.3726 8.2616 73.3396 10.1936 73.3071C10.832 73.2964 11.4678 73.2857 12.093 73.2999C14.402 73.3248 16.5851 72.4853 18.0661 71.1985Z" fill="#EB5757"/>
<path d="M0.147572 68.4478L7.4579 61.7802L0.0204678 54.9725C0.0141411 55.0652 0.0109425 55.1581 0.0109425 55.2512C-0.00649261 59.2623 0.000480652 63.276 0.00745583 67.2872C-0.000362396 67.6779 0.0480423 68.0668 0.147572 68.4478Z" fill="#EB5757"/>
<path d="M1.25267 52.1234L9.73503 59.7568L18.5098 51.8603C17.0445 50.3422 14.6462 49.3196 12.1035 49.3429C11.4624 49.359 10.8105 49.3476 10.1562 49.3361C8.25893 49.3029 6.34122 49.2694 4.60666 49.9047C3.22428 50.3777 2.06236 51.167 1.25267 52.1234Z" fill="#EB5757"/>
<path d="M20.2174 89.0171C20.3057 92.1311 20.2669 95.2522 20.2386 98.3662C20.1009 102.486 16.3655 106.035 12.2453 105.971C9.73852 105.901 7.06935 106.342 4.72148 105.226C2.06644 104.029 0.184615 101.293 0.0469196 98.3803C-0.0236924 96.382 0.0398527 94.3801 0.0186696 92.3818C0.0398525 90.5812 -0.140205 88.7134 0.520024 86.994C1.57921 84.0248 4.51318 81.8252 7.6731 81.7157C9.43489 81.6769 11.2002 81.6451 12.9585 81.7404C16.708 82.0194 19.9456 85.2711 20.2174 89.0171Z" fill="white" fill-opacity="0.15"/>
<path d="M20.228 17.6061C20.3057 14.6969 20.2492 11.7841 20.2563 8.87134C20.3057 5.66552 18.2438 2.57622 15.271 1.38286C13.0855 0.450771 10.6635 0.832077 8.35802 0.761465C5.26518 0.655546 2.2147 2.47029 0.869527 5.26303C-0.397971 7.69917 0.128092 10.5131 0.0186429 13.1434C0.103377 15.4595 -0.299106 17.8992 0.657698 20.0917C1.80515 22.888 4.63319 24.904 7.65895 25.024C9.41367 25.0664 11.1719 25.0876 12.9231 25.0063C16.7256 24.7345 20.0091 21.4157 20.228 17.6061Z" fill="white" fill-opacity="0.15"/>
<path d="M81.228 17.6061C81.3057 14.6969 81.2492 11.7841 81.2563 8.87134C81.3057 5.66552 79.2438 2.57622 76.271 1.38286C74.0855 0.450771 71.6635 0.832077 69.358 0.761465C66.2652 0.655546 63.2147 2.47029 61.8695 5.26303C60.602 7.69917 61.1281 10.5131 61.0186 13.1434C61.1034 15.4595 60.7009 17.8992 61.6577 20.0917C62.8052 22.888 65.6332 24.904 68.6589 25.024C70.4137 25.0664 72.1719 25.0876 73.9231 25.0063C77.7256 24.7345 81.0091 21.4157 81.228 17.6061Z" fill="white" fill-opacity="0.15"/>
</svg>
