<svg width="105" height="349" viewBox="0 0 105 349" fill="none" xmlns="http://www.w3.org/2000/svg">
<path d="M4.28936 270.614L4.5 270.343V270V268.014H3.5L3.5 264.044H4.5V260.073H3.5L3.5 256.103H4.5V252.132H3.5L3.5 248.162H4.5V244.191H3.5L3.5 240.22H4.5V236.25H3.5L3.5 232.279H4.5L4.5 228.309H3.5L3.5 224.338H4.5L4.5 220.367H3.5L3.5 216.397H4.5L4.5 212.426H3.5L3.5 208.456H4.5L4.5 204.485H3.5V200.515H4.5L4.5 196.544H3.5L3.5 192.573H4.5L4.5 188.603H3.5L3.5 184.632H4.5L4.49999 180.662H3.49999L3.49999 176.691H4.49999L4.49999 172.721H3.49999L3.49999 168.75H4.49999V164.779H3.49999L3.49999 160.809H4.49999V156.838H3.49999L3.49999 152.868H4.49999V148.897H3.49999L3.49999 144.926H4.49999V140.956H3.49999L3.49999 136.985H4.49999V133.015H3.49999L3.49999 129.044H4.49999V125.074H3.49999L3.49999 121.103H4.49999V117.132H3.49999L3.49999 113.162H4.49999V109.191H3.49999L3.49999 105.221H4.49999V101.25H3.49999L3.49999 97.2794H4.49999L4.49999 93.3088H3.49999L3.49999 89.3382H4.49999L4.49999 85.3677H3.49999L3.49999 81.3971H4.49999L4.49999 77.4265H3.49999L3.49999 73.4559H4.49999L4.49999 69.4853H3.49999V65.5147H4.49999L4.49999 61.5441H3.49999L3.49999 57.5735H4.49999L4.49999 53.6029H3.49999L3.49999 49.6324H4.49999L4.49999 45.6618H3.49999L3.49999 41.6912H4.49999L4.49999 37.7206H3.49999L3.49999 33.75H4.49999V29.7794H3.49999L3.49999 25.8088H4.49999V21.8382H3.49999L3.49999 17.8676H4.49999V13.8971L3.49999 13.8971L3.49999 9.92647H4.49999V5.95588H3.49998L3.49998 1.98529H4.49998V1H5.12499V0H8.375V1H11.625V0H14.875V1H15.5V1.98554H16.5V5.95611H15.5V9.92669H16.5V13.8973H15.5V17.8679H16.5V21.8384H15.5V25.809H16.5V29.7796H15.5V33.7502H16.5V37.7208H15.5V41.6913H16.5V45.6619H15.5V49.6325H16.5V53.6031H15.5V57.5737H16.5V61.5443H15.5V65.5148H16.5V69.4854H15.5V73.456H16.5V77.4266H15.5V81.3972H16.5V85.3677H15.5V89.3383H16.5V93.3089H15.5V97.2795H16.5V101.25H15.5V105.221H16.5V109.191H15.5V113.162H16.5V117.132H15.5V121.103H16.5V125.074H15.5V129.044H16.5V133.015H15.5V136.985H16.5V140.956H15.5V144.926H16.5V148.897H15.5V152.868H16.5V156.838H15.5V160.809H16.5V164.779H15.5V168.75H16.5V172.721H15.5V176.691H16.5V180.662H15.5V184.632H16.5V188.603H15.5V192.574H16.5V196.544H15.5V200.515H16.5V204.485H15.5V208.456H16.5V212.426H15.5V216.397H16.5V220.368H15.5V224.338H16.5V228.309H15.5V232.279H16.5V236.25H15.5V240.221H16.5V244.191H15.5V248.162H16.5V252.132H15.5V256.103H16.5V260.074H15.5V264.044H16.5V268.015H15.5V270V271.007L16.507 271L18.4872 270.986L18.4802 269.986L22.4404 269.958L22.4475 270.958L26.4077 270.931L26.4007 269.931L30.361 269.903L30.368 270.903L34.3283 270.875L34.3213 269.875L38.2815 269.847L38.2886 270.847L42.2488 270.819L42.2418 269.819L46.2021 269.792L46.2091 270.792L50.1694 270.764L50.1624 269.764L54.1226 269.736L54.1297 270.736L58.0899 270.708L58.0829 269.708L62.0432 269.681L62.0502 270.681L66.0105 270.653L66.0035 269.653L69.9638 269.625L69.9708 270.625L73.931 270.597L73.924 269.597L77.8843 269.569L77.8913 270.569L81.8516 270.542L81.8446 269.542L85.8049 269.514L85.8119 270.514L87.785 270.5C87.7859 270.5 87.7867 270.5 87.7876 270.5C88.4716 270.5 89.0978 270.666 89.6418 270.952L90.1066 270.067C91.5513 270.825 92.5484 272.264 92.7513 273.883L91.7591 274.007C91.8356 274.618 91.7709 275.263 91.5303 275.904L91.4137 276.216L92.35 276.567L92.1167 277.189L91.1803 276.838L91.068 277.138L91.0637 277.149L90.2306 279.291L91.1626 279.653L89.4877 283.96L88.5557 283.598L87.7183 285.751C87.6883 285.828 87.6599 285.906 87.6331 285.984L88.5793 286.308C88.5347 286.438 88.4955 286.571 88.4618 286.704L87.4921 286.46C87.4719 286.54 87.4533 286.621 87.4364 286.702L87.3672 287.034L87.5145 287.34L88.2126 288.789L89.1135 288.355L90.5096 291.254L89.6087 291.688L91.0049 294.586L91.9058 294.152L93.3019 297.051L92.401 297.485L93.0906 298.916L93.0991 298.934L93.9759 300.851L94.8852 300.435L96.6556 304.305L95.7463 304.721L97.5167 308.591L98.4261 308.175L100.197 312.045L99.2872 312.461L101.058 316.331L101.967 315.915L103.737 319.785L102.828 320.201L103.583 321.851C103.5 322.233 103.364 322.592 103.184 322.921L104.061 323.402C103.484 324.454 102.544 325.267 101.42 325.686L101.071 324.749C100.636 324.911 100.165 325 99.6747 325H97.8409V326H94.1735V325H90.506V326H86.8385V325H83.1711V326H79.5036V325H75.8361V326H72.1687V325H68.5012V326H64.8337V325H63C62.1883 325 61.4118 325.162 60.703 325.456L61.0861 326.379C59.8639 326.886 58.8862 327.864 58.3794 329.086L57.4557 328.703C57.1617 329.412 57 330.188 57 331V332.625H58V335.875H57V339.125H58V342.375H57V344C57 344.544 56.8919 345.061 56.6969 345.531L57.6206 345.914C57.1138 347.136 56.1361 348.114 54.9139 348.621L54.5309 347.697C54.0606 347.892 53.5442 348 53 348H51V349H47V348H43V349H39V348H35V349H31V348H27V349H23V348H19V349H15V348H11V349H7V348H5C4.45579 348 3.93936 347.892 3.46912 347.697L3.08606 348.621C1.86386 348.114 0.886233 347.136 0.379405 345.914L1.30313 345.531C1.10813 345.061 1 344.544 1 344V341.882H0V337.645H1V333.409H0V329.172H1V324.936H0V320.699H1V316.463H0V312.226H1V307.99H0V303.753H1V299.516H0V295.28H1V291.043H0V286.807H1V282.57H0V278.334H1V276.216C1 275.994 1.01841 275.774 1.05449 275.558L0.068115 275.393C0.158942 274.848 0.339375 274.323 0.602014 273.837L1.48161 274.313C1.58595 274.12 1.70652 273.935 1.84259 273.76L2.45428 272.973L1.66493 272.359L2.88831 270.786L3.67767 271.4L4.28936 270.614Z" fill="#EB5757" fill-opacity="0.5" stroke="#EB5757" stroke-width="2" stroke-dasharray="4 4"/>
</svg>
