<svg width="105" height="349" viewBox="0 0 105 349" fill="none" xmlns="http://www.w3.org/2000/svg">
<path d="M4.5 270L4.49998 1H15.5V270V271.007L16.507 271L87.785 270.5C87.7859 270.5 87.7867 270.5 87.7876 270.5C90.579 270.502 92.5107 273.29 91.5303 275.904L91.068 277.138L91.0637 277.149L87.7183 285.751C87.5982 286.06 87.504 286.378 87.4364 286.702L87.3672 287.034L87.5145 287.34L93.0906 298.916L93.0991 298.934L103.583 321.851C103.187 323.677 101.567 325 99.6747 325H63C59.6863 325 57 327.686 57 331V344C57 346.209 55.2091 348 53 348H5C2.79086 348 1 346.209 1 344V276.216C1 275.326 1.29649 274.462 1.84259 273.76L4.28936 270.614L4.5 270.343V270Z" fill="#6FCF97" fill-opacity="0.5" stroke="#6FCF97" stroke-width="2"/>
</svg>
