<svg width="105" height="349" viewBox="0 0 105 349" fill="none" xmlns="http://www.w3.org/2000/svg">
<path d="M16.5 0H3.49998L3.5 270L1.05324 273.146C0.370613 274.024 0 275.104 0 276.216V344C0 346.761 2.23858 349 5 349H53C55.7614 349 58 346.761 58 344V331C58 328.239 60.2386 326 63 326H99.6747C102.158 326 104.265 324.177 104.623 321.72L94 298.5L88.4154 286.906C88.4717 286.636 88.5503 286.371 88.6503 286.114L92 277.5L92.4666 276.256C93.6924 272.987 91.276 269.5 87.785 269.5L16.5 270V0Z" fill="white" fill-opacity="0.35"/>
</svg>
