<svg width="44" height="45" viewBox="0 0 44 45" fill="none" xmlns="http://www.w3.org/2000/svg">
<path d="M13.8292 4.81927C14.9952 3.68527 16.8696 5.54377 15.884 6.77677C14.0228 8.91427 11.9504 10.8628 9.97917 12.9013C9.31917 13.8013 7.80997 13.6798 7.42277 12.5818C6.95637 11.5558 7.95077 10.7683 8.55797 10.1068C10.3576 8.39227 11.9768 6.47977 13.8292 4.81927Z" fill="#6FCF97"/>
<path d="M22.1628 4.6975C23.9888 4.2835 25.8896 4.585 27.742 4.4995C29.6956 4.549 31.8164 4.216 33.594 5.242C35.552 6.2905 36.7356 8.53601 36.6608 10.777C36.6652 19.6285 36.6828 28.48 36.652 37.3315C36.7884 39.1 35.2044 40.6525 33.4884 40.4905C25.8412 40.5085 18.1852 40.504 10.5336 40.4905C8.8132 40.6615 7.2028 39.1225 7.348 37.336C7.3128 31.9495 7.3436 26.5675 7.3348 21.181C7.2776 20.1505 7.6164 19.138 8.3732 18.4405C12.3156 14.3815 16.2976 10.363 20.2268 6.2905C20.8208 5.701 21.3972 5.053 22.1628 4.6975ZM24.3144 9.1525C23.0604 9.652 23.298 11.7895 24.6444 11.929C26.7828 12.0505 28.9432 12.064 31.0816 11.929C32.5248 11.785 32.6436 9.4225 31.2444 9.094C28.9476 8.959 26.598 8.86 24.3144 9.1525ZM17.7892 27.4315C16.9224 30.1225 19.2852 33.0835 21.9956 32.989C24.706 33.088 27.06 30.136 26.2152 27.454C25.2956 24.5605 23.5796 22.0315 22 19.4845C20.4292 22.0315 18.7176 24.5515 17.7892 27.4315Z" fill="#6FCF97"/>
</svg>
