<svg width="81" height="107" viewBox="0 0 81 107" fill="none" xmlns="http://www.w3.org/2000/svg">
<path d="M0.0663818 98.8008C-0.05366 95.7856 0.031074 92.7634 0.0169514 89.7412C0.00988995 86.6236 1.99764 83.6261 4.86804 82.4116C7.08528 81.4054 9.57085 81.8043 11.9293 81.7302C15.0963 81.6243 18.2139 83.5414 19.5025 86.4436C20.6394 88.7985 20.1486 91.4783 20.2546 93.9991C20.1663 96.4247 20.6041 98.995 19.5237 101.269C18.2386 104.199 15.0963 106.141 11.9046 106.021C9.5991 105.943 7.17708 106.332 4.99162 105.396C2.31893 104.305 0.338241 101.685 0.0663818 98.8008Z" fill="white" fill-opacity="0.15"/>
<path d="M0.0557595 66.3184C-0.0325066 63.2008 0.00280052 60.0762 0.0345761 56.9551C0.172271 52.8384 3.90768 49.2901 8.02794 49.3501C10.6159 49.4172 13.398 48.9547 15.7918 50.2116C18.5386 51.5497 20.3287 54.5472 20.251 57.5977C20.2263 60.5034 20.3146 63.4162 20.2051 66.3219C19.9121 70.3221 16.2437 73.6797 12.2365 73.6232C9.81797 73.5491 7.26885 73.9728 4.97747 73.0019C2.28006 71.8932 0.295843 69.2311 0.0557595 66.3184Z" fill="white" fill-opacity="0.15"/>
<path d="M0.0449361 17.5922C-0.032738 14.6936 0.0237514 11.7879 0.01669 8.88567C-0.0292084 5.83873 1.81731 2.88359 4.56768 1.57725C6.96145 0.376835 9.70829 0.839349 12.2821 0.772266C16.3565 0.736961 20.046 4.22876 20.2225 8.29958C20.2896 11.2159 20.2472 14.1357 20.2437 17.052C20.2472 20.166 18.263 23.1459 15.4067 24.3675C13.0695 25.4126 10.4533 24.9642 7.97475 25.0383C3.93217 25.0772 0.256775 21.6313 0.0449361 17.5922Z" fill="#EB5757"/>
<path d="M28.0996 97.8969C26.0589 97.8686 24.2724 96.0362 24.2618 94.0061C24.1453 91.9795 25.7906 90.0553 27.8137 89.8753C29.6955 89.7517 31.5879 89.8682 33.4733 89.8188C34.2359 88.6184 35.2456 87.6015 36.4461 86.8389C36.4425 80.7239 36.4567 74.6123 36.439 68.4973C35.2492 67.7382 34.2394 66.739 33.4839 65.5456C31.5844 65.4856 29.6778 65.6163 27.7819 65.4821C25.4446 65.2809 23.7252 62.7317 24.3819 60.4827C24.7914 58.7951 26.3908 57.4923 28.1279 57.4605C29.9073 57.3934 31.6868 57.4676 33.4627 57.4322C34.2324 56.2424 35.2315 55.2256 36.4355 54.4736C36.4602 42.9637 36.439 31.4503 36.4461 19.9369C35.2562 19.1637 34.2324 18.161 33.4627 16.9606C31.4149 16.8758 29.3495 17.1088 27.3158 16.8229C24.4737 16.2438 23.2521 12.3601 25.2469 10.2559C27.3441 7.85504 30.8782 9.35204 33.5262 8.71652C34.822 6.8241 36.7709 5.30593 39.087 4.94581C42.374 4.2997 45.834 6.00146 47.5252 8.85069C49.4212 8.90012 51.3242 8.77654 53.2201 8.9107C55.2679 9.10136 56.9061 11.1032 56.7331 13.1439C56.659 15.054 55.049 16.7699 53.1389 16.9182C51.2677 17.0171 49.3894 16.9182 47.5181 16.9606C46.752 18.161 45.7316 19.1601 44.5453 19.9439C44.5489 31.4538 44.5312 42.9672 44.5524 54.4771C45.7458 55.2362 46.752 56.2424 47.5181 57.4322C49.3964 57.4781 51.2783 57.3687 53.1566 57.4817C55.0137 57.637 56.5919 59.2682 56.7225 61.1253C56.9661 63.2119 55.3032 65.3056 53.2025 65.4856C51.31 65.6127 49.4141 65.4892 47.5217 65.5456C46.7555 66.7319 45.7493 67.7452 44.5524 68.4973C44.5312 74.6159 44.5489 80.7309 44.5453 86.846C45.7352 87.6192 46.7626 88.6184 47.5252 89.8188C49.5483 89.9 51.5925 89.6811 53.605 89.9353C56.1753 90.426 57.5911 93.6742 56.2035 95.8915C55.4197 97.332 53.7391 98.0522 52.1468 97.9286C50.611 97.9286 49.0752 97.9251 47.5393 97.911C46.1624 100.128 43.8004 101.756 41.163 101.932C38.0843 102.247 35.0409 100.548 33.4662 97.9287C31.6762 97.8933 29.8861 97.971 28.0996 97.8969Z" fill="white" fill-opacity="0.15"/>
<path d="M60.7934 98.7972C60.6734 95.782 60.7581 92.7633 60.744 89.7446C60.7334 86.6271 62.7176 83.6366 65.581 82.415C67.7982 81.4053 70.2873 81.8042 72.6422 81.7301C75.8128 81.6206 78.9374 83.5342 80.2296 86.4399C81.3629 88.7949 80.8757 91.4676 80.9816 93.9849C80.8898 96.4175 81.3347 99.002 80.2472 101.283C78.955 104.203 75.8234 106.137 72.6352 106.021C70.3297 105.943 67.9041 106.335 65.7187 105.396C63.0424 104.305 61.0653 101.682 60.7934 98.7972Z" fill="white" fill-opacity="0.15"/>
<path d="M60.7828 66.3042C60.6945 63.1902 60.7334 60.0691 60.7616 56.9551C60.8993 52.8348 64.6347 49.2865 68.755 49.3501C71.2617 49.4207 73.9309 48.9794 76.2788 50.0951C78.9338 51.2919 80.8156 54.0282 80.9533 56.941C81.0239 58.9393 80.9604 60.9412 80.9816 62.9395C80.9604 64.7401 81.1404 66.6078 80.4802 68.3273C79.421 71.2965 76.4871 73.4961 73.3271 73.6056C71.5654 73.6444 69.8 73.6762 68.0418 73.5809C64.2923 73.3019 61.0547 70.0502 60.7828 66.3042Z" fill="white" fill-opacity="0.15"/>
<path d="M60.7722 17.6061C60.6946 14.6969 60.751 11.7841 60.744 8.87134C60.6946 5.66552 62.7564 2.57622 65.7292 1.38286C67.9147 0.450771 70.3367 0.832077 72.6422 0.761465C75.7351 0.655546 78.7855 2.47029 80.1307 5.26303C81.3982 7.69917 80.8722 10.5131 80.9816 13.1434C80.8969 15.4595 81.2994 17.8992 80.3425 20.0917C79.1951 22.888 76.3671 24.904 73.3413 25.024C71.5866 25.0664 69.8283 25.0876 68.0771 25.0063C64.2746 24.7345 60.9911 21.4157 60.7722 17.6061Z" fill="white" fill-opacity="0.15"/>
</svg>
