<svg width="20" height="15" viewBox="0 0 20 15" fill="none" xmlns="http://www.w3.org/2000/svg">
<path d="M0 1.75C0 0.7835 0.7835 0 1.75 0H15.25C16.2165 0 17 0.7835 17 1.75V10.25C17 11.2165 16.2165 12 15.25 12H1.75C0.7835 12 0 11.2165 0 10.25V1.75ZM3 1.25V2.25C3 2.66421 2.66421 3 2.25 3H1.25V4.5H2.25C3.49264 4.5 4.5 3.49264 4.5 2.25V1.25H3ZM8.5 8.5C9.7426 8.5 10.75 7.4926 10.75 6.25C10.75 5.0074 9.7426 4 8.5 4C7.25736 4 6.25 5.0074 6.25 6.25C6.25 7.4926 7.25736 8.5 8.5 8.5ZM1.25 9H2.25C2.66421 9 3 9.3358 3 9.75V10.75H4.5V9.75C4.5 8.5074 3.49264 7.5 2.25 7.5H1.25V9ZM14 9.75C14 9.3358 14.3358 9 14.75 9H15.75V7.5H14.75C13.5074 7.5 12.5 8.5074 12.5 9.75V10.75H14V9.75ZM14 2.25V1.25H12.5V2.25C12.5 3.49264 13.5074 4.5 14.75 4.5H15.75V3H14.75C14.3358 3 14 2.66421 14 2.25ZM2.40135 13.5C2.92006 14.3967 3.88958 15 5 15H15.25C17.8734 15 20 12.8734 20 10.25V5C20 3.88958 19.3967 2.92006 18.5 2.40135V10.25C18.5 12.0449 17.0449 13.5 15.25 13.5H2.40135Z" fill="white" fill-opacity="0.5"/>
</svg>
