<svg width="93" height="521" viewBox="0 0 93 521" fill="none" xmlns="http://www.w3.org/2000/svg">
<path d="M4.5 442L4.49998 1H15.5V442V443.007L16.507 443L87.785 442.5C87.7859 442.5 87.7867 442.5 87.7876 442.5C90.579 442.502 92.5107 445.29 91.5303 447.904L91.068 449.138L91.0637 449.149L87.7183 457.751C87.5982 458.06 87.504 458.378 87.4364 458.702L85.021 470.296L85.0148 470.326L85.0104 470.356L81.633 493.576C81.347 495.542 79.6614 497 77.6747 497H63C59.6863 497 57 499.686 57 503V516C57 518.209 55.2091 520 53 520H5C2.79086 520 1 518.209 1 516V448.216C1 447.326 1.29649 446.462 1.84259 445.76L4.28936 442.614L4.5 442.343V442Z" fill="#F2C94C" fill-opacity="0.5" stroke="#F2C94C" stroke-width="2"/>
</svg>
