<svg width="93" height="521" viewBox="0 0 93 521" fill="none" xmlns="http://www.w3.org/2000/svg">
<path d="M4.28936 442.614L4.5 442.343V442V439.991H3.5L3.5 435.973H4.5L4.5 431.955H3.5L3.5 427.937H4.5V423.919H3.5V419.9H4.5V415.882H3.5V411.864H4.5V407.846H3.5L3.5 403.828H4.5V399.81H3.5L3.5 395.791H4.5L4.5 391.773H3.5L3.5 387.755H4.5V383.737H3.5L3.5 379.719H4.5V375.7H3.5V371.682H4.5V367.664H3.5V363.646H4.5V359.628H3.5L3.5 355.609H4.5L4.5 351.591H3.5L3.5 347.573H4.5V343.555H3.5L3.5 339.537H4.5L4.5 335.518H3.5L3.5 331.5H4.5V327.482H3.5V323.464H4.5V319.446H3.5V315.428H4.5V311.409H3.5V307.391H4.5V303.373H3.5L3.49999 299.355H4.5L4.49999 295.337H3.49999L3.49999 291.318H4.49999V287.3H3.49999L3.49999 283.282H4.49999L4.49999 279.264H3.49999V275.246H4.49999V271.227H3.49999V267.209H4.49999V263.191H3.49999V259.173H4.49999L4.49999 255.155H3.49999L3.49999 251.137H4.49999V247.118H3.49999L3.49999 243.1H4.49999L4.49999 239.082H3.49999L3.49999 235.064H4.49999V231.046H3.49999V227.027H4.49999V223.009H3.49999V218.991H4.49999V214.973H3.49999V210.955H4.49999V206.936H3.49999L3.49999 202.918H4.49999L4.49999 198.9H3.49999L3.49999 194.882H4.49999V190.864H3.49999L3.49999 186.846H4.49999L4.49999 182.827H3.49999V178.809H4.49999V174.791H3.49999V170.773H4.49999V166.755H3.49999V162.736H4.49999L4.49999 158.718H3.49999L3.49999 154.7H4.49999V150.682H3.49999L3.49999 146.664H4.49999L4.49999 142.645H3.49999L3.49999 138.627H4.49999V134.609H3.49999V130.591H4.49999V126.573H3.49999V122.555H4.49999V118.536H3.49999V114.518H4.49999V110.5H3.49999L3.49999 106.482H4.49999L4.49999 102.464H3.49999L3.49999 98.4454H4.49999V94.4273H3.49999L3.49999 90.4091H4.49999L4.49999 86.3909H3.49999L3.49999 82.3727H4.49999V78.3545H3.49999V74.3363H4.49999V70.3182H3.49999V66.3H4.49999V62.2818H3.49999L3.49999 58.2636H4.49999V54.2454H3.49999L3.49999 50.2273H4.49999L4.49999 46.2091H3.49999L3.49999 42.1909H4.49999V38.1727H3.49999L3.49999 34.1545H4.49999V30.1364H3.49999V26.1182H4.49999V22.1H3.49999V18.0818H4.49999V14.0636H3.49999L3.49998 10.0455H4.49999L4.49998 6.02727H3.49998L3.49998 2.00909H4.49998V1H5.12499V0H8.375V1H11.625V0H14.875V1H15.5V2.00861H16.5V6.02679H15.5V10.045H16.5V14.0632H15.5V18.0814H16.5V22.0996H15.5V26.1177H16.5V30.1359H15.5V34.1541H16.5V38.1723H15.5V42.1905H16.5V46.2087H15.5V50.2269H16.5V54.2451H15.5V58.2632H16.5V62.2814H15.5V66.2996H16.5V70.3178H15.5V74.336H16.5V78.3542H15.5V82.3724H16.5V86.3906H15.5V90.4087H16.5V94.4269H15.5V98.4451H16.5V102.463H15.5V106.482H16.5V110.5H15.5V114.518H16.5V118.536H15.5V122.554H16.5V126.572H15.5V130.591H16.5V134.609H15.5V138.627H16.5V142.645H15.5V146.663H16.5V150.682H15.5V154.7H16.5V158.718H15.5V162.736H16.5V166.754H15.5V170.773H16.5V174.791H15.5V178.809H16.5V182.827H15.5V186.845H16.5V190.863H15.5V194.882H16.5V198.9H15.5V202.918H16.5V206.936H15.5V210.954H16.5V214.973H15.5V218.991H16.5V223.009H15.5V227.027H16.5V231.045H15.5V235.064H16.5V239.082H15.5V243.1H16.5V247.118H15.5V251.136H16.5V255.154H15.5V259.173H16.5V263.191H15.5V267.209H16.5V271.227H15.5V275.245H16.5V279.264H15.5V283.282H16.5V287.3H15.5V291.318H16.5V295.336H15.5V299.355H16.5V303.373H15.5V307.391H16.5V311.409H15.5V315.427H16.5V319.445H15.5V323.464H16.5V327.482H15.5V331.5H16.5V335.518H15.5V339.536H16.5V343.555H15.5V347.573H16.5V351.591H15.5V355.609H16.5V359.627H15.5V363.645H16.5V367.664H15.5V371.682H16.5V375.7H15.5V379.718H16.5V383.736H15.5V387.755H16.5V391.773H15.5V395.791H16.5V399.809H15.5V403.827H16.5V407.845H15.5V411.864H16.5V415.882H15.5V419.9H16.5V423.918H15.5V427.936H16.5V431.955H15.5V435.973H16.5V439.991H15.5V442V443.007L16.507 443L18.4872 442.986L18.4802 441.986L22.4404 441.958L22.4475 442.958L26.4077 442.931L26.4007 441.931L30.361 441.903L30.368 442.903L34.3283 442.875L34.3213 441.875L38.2815 441.847L38.2886 442.847L42.2488 442.819L42.2418 441.819L46.2021 441.792L46.2091 442.792L50.1694 442.764L50.1624 441.764L54.1226 441.736L54.1297 442.736L58.0899 442.708L58.0829 441.708L62.0432 441.681L62.0502 442.681L66.0105 442.653L66.0035 441.653L69.9638 441.625L69.9708 442.625L73.931 442.597L73.924 441.597L77.8843 441.569L77.8913 442.569L81.8516 442.542L81.8446 441.542L85.8049 441.514L85.8119 442.514L87.785 442.5C87.7859 442.5 87.7867 442.5 87.7876 442.5C88.4716 442.5 89.0978 442.666 89.6418 442.952L90.1066 442.067C91.5513 442.825 92.5484 444.264 92.7513 445.883L91.7591 446.007C91.8356 446.618 91.7709 447.263 91.5303 447.904L91.4137 448.216L92.35 448.567L92.1167 449.189L91.1803 448.838L91.068 449.138L91.0637 449.149L90.2306 451.291L91.1626 451.653L89.4877 455.96L88.5557 455.598L87.7183 457.751C87.6883 457.828 87.6599 457.906 87.6331 457.984L88.5793 458.308C88.5347 458.438 88.4955 458.571 88.4618 458.704L87.4921 458.46C87.4719 458.54 87.4533 458.621 87.4364 458.702L86.8326 461.601L87.8116 461.805L86.6039 467.602L85.6249 467.398L85.021 470.296L85.0148 470.326L85.0104 470.356L84.729 472.291L85.7186 472.435L85.1556 476.305L84.1661 476.161L83.6032 480.031L84.5927 480.175L84.0298 484.045L83.0403 483.901L82.4774 487.771L83.4669 487.915L82.904 491.785L81.9145 491.641L81.633 493.576C81.5624 494.061 81.4071 494.514 81.1838 494.921L82.0607 495.402C81.4843 496.454 80.5443 497.267 79.4203 497.686L79.071 496.749C78.6356 496.911 78.165 497 77.6747 497H75.8403V498H72.1717V497H68.503V498H64.8343V497H63C62.1883 497 61.4118 497.162 60.703 497.456L61.0861 498.379C59.8639 498.886 58.8862 499.864 58.3794 501.086L57.4557 500.703C57.1617 501.412 57 502.188 57 503V504.625H58V507.875H57V511.125H58V514.375H57V516C57 516.544 56.8919 517.061 56.6969 517.531L57.6206 517.914C57.1138 519.136 56.1361 520.114 54.9139 520.621L54.5309 519.697C54.0606 519.892 53.5442 520 53 520H51V521H47V520H43V521H39V520H35V521H31V520H27V521H23V520H19V521H15V520H11V521H7V520H5C4.45579 520 3.93936 519.892 3.46912 519.697L3.08607 520.621C1.86386 520.114 0.886234 519.136 0.379405 517.914L1.30313 517.531C1.10813 517.061 1 516.544 1 516V513.882H0V509.645H1V505.409H0V501.172H1V496.936H0V492.699H1V488.463H0V484.226H1V479.99H0V475.753H1V471.516H0V467.28H1V463.043H0V458.807H1V454.57H0V450.334H1V448.216C1 447.994 1.01841 447.774 1.05449 447.558L0.068115 447.393C0.158942 446.848 0.339375 446.323 0.602014 445.837L1.48161 446.313C1.58595 446.12 1.70652 445.935 1.84259 445.76L2.45428 444.973L1.66493 444.359L2.88831 442.786L3.67767 443.4L4.28936 442.614Z" fill="#EB5757" fill-opacity="0.5" stroke="#EB5757" stroke-width="2" stroke-dasharray="4 4"/>
</svg>
