<svg width="93" height="521" viewBox="0 0 93 521" fill="none" xmlns="http://www.w3.org/2000/svg">
<path d="M16.5 0H3.49998L3.5 442L1.05324 445.146C0.370613 446.024 0 447.104 0 448.216V516C0 518.761 2.23858 521 5 521H53C55.7614 521 58 518.761 58 516V503C58 500.239 60.2386 498 63 498H77.6747C80.1581 498 82.2651 496.177 82.6226 493.72L86 470.5L88.4154 458.906C88.4717 458.636 88.5503 458.371 88.6503 458.114L92 449.5L92.4666 448.256C93.6924 444.987 91.276 441.5 87.785 441.5L16.5 442V0Z" fill="white" fill-opacity="0.35"/>
</svg>
