<svg width="76" height="127" viewBox="0 0 76 127" fill="none" xmlns="http://www.w3.org/2000/svg">
<rect x="25" y="3" width="28" height="38" rx="10" fill="white" fill-opacity="0.15"/>
<rect x="32" y="46" width="14" height="26" fill="white" fill-opacity="0.15"/>
<path d="M26.7091 81.4071C25.6301 83.0034 25 84.9281 25 87V105C25 107.188 25.7026 109.212 26.8944 110.858L36.8432 96.34L26.7091 81.4071Z" fill="#EB5757"/>
<path d="M29.9427 113.629C31.4265 114.5 33.1549 115 35 115H43C45.1055 115 47.0591 114.349 48.6705 113.238L39.4422 99.94L29.9427 113.629Z" fill="#EB5757"/>
<path d="M51.6065 110.095C52.4918 108.603 53 106.861 53 105V87C53 85.2219 52.5359 83.5522 51.7223 82.1054L42.099 96.16L51.6065 110.095Z" fill="#EB5757"/>
<path d="M48.8768 78.9082C47.2271 77.708 45.1962 77 43 77H35C33.0505 77 31.2313 77.5578 29.6933 78.5226L39.4422 92.62L48.8768 78.9082Z" fill="#EB5757"/>
</svg>
