<svg width="74" height="124" viewBox="0 0 74 124" fill="none" xmlns="http://www.w3.org/2000/svg">
<rect x="29" y="46" width="14" height="26" fill="white" fill-opacity="0.15"/>
<rect x="22" y="77" width="28" height="38" rx="10" fill="white" fill-opacity="0.15"/>
<path d="M23.7091 7.40707C22.6301 9.00344 22 10.9281 22 13V31C22 33.1878 22.7026 35.2115 23.8944 36.8578L33.8432 22.34L23.7091 7.40707Z" fill="#EB5757"/>
<path d="M26.9427 39.6288C28.4265 40.5003 30.1549 41 32 41H40C42.1055 41 44.0591 40.3493 45.6705 39.2379L36.4422 25.94L26.9427 39.6288Z" fill="#EB5757"/>
<path d="M48.6065 36.095C49.4918 34.6028 50 32.8608 50 31V13C50 11.2219 49.5359 9.55217 48.7223 8.10536L39.099 22.16L48.6065 36.095Z" fill="#EB5757"/>
<path d="M45.8768 4.90822C44.2271 3.708 42.1962 3 40 3H32C30.0505 3 28.2313 3.55785 26.6933 4.52262L36.4422 18.62L45.8768 4.90822Z" fill="#EB5757"/>
</svg>
