<svg width="68" height="156" viewBox="0 0 68 156" fill="none" xmlns="http://www.w3.org/2000/svg">
<path d="M15 31C15 25.4772 19.4772 21 25 21H33C38.5228 21 43 25.4772 43 31V49C43 54.5228 38.5228 59 33 59H25C19.4772 59 15 54.5228 15 49V31Z" fill="#F2C94C"/>
<path d="M22 64H36V90H22V64Z" fill="white" fill-opacity="0.15"/>
<path d="M15 105C15 99.4772 19.4772 95 25 95H33C38.5228 95 43 99.4772 43 105V123C43 128.523 38.5228 133 33 133H25C19.4772 133 15 128.523 15 123V105Z" fill="white" fill-opacity="0.15"/>
</svg>
