<svg width="295" height="31" viewBox="0 0 295 31" fill="none" xmlns="http://www.w3.org/2000/svg">
<g filter="url(#filter0_ii_81_140)">
<path d="M12.64 30.08C9.01333 30.08 6 28.8933 3.6 26.52C1.2 24.1467 0 21.1867 0 17.64C0 13 1.89333 8.90667 5.68 5.36C9.49333 1.78667 14.1467 0 19.64 0C21.56 0 23.1867 0.28 24.52 0.839999C25.8533 1.37333 27.2133 1.92 28.6 2.48C29.24 2.48 29.8667 2.24 30.48 1.76C31.12 1.25333 31.6133 0.666666 31.96 0H32.68L27 14.16H26.24C26.24 13.7067 26.2533 12.72 26.28 11.2C26.3333 9.65333 26.36 8.78667 26.36 8.6C26.36 5.85333 26.1467 3.94667 25.72 2.88C25.32 1.78667 24.32 1.24 22.72 1.24C21.68 1.24 20.6267 1.61333 19.56 2.36C18.4933 3.08 17.4533 4.10667 16.44 5.44C15.4533 6.77333 14.5467 8.2 13.72 9.72C12.92 11.24 12.2533 12.6933 11.72 14.08C11.2133 15.4667 10.7867 16.9067 10.44 18.4C10.12 19.8667 9.96 21.1733 9.96 22.32C9.96 24.4 10.2933 25.9867 10.96 27.08C11.6533 28.1733 12.88 28.72 14.64 28.72C15.92 28.72 17.0267 28.4933 17.96 28.04C18.92 27.5867 19.8 27 20.6 26.28C21.4267 25.56 22.0933 24.8133 22.6 24.04C23.1067 23.24 23.5867 22.3733 24.04 21.44L24.76 21.76C23.64 24.3467 22.0267 26.3867 19.92 27.88C17.8133 29.3467 15.3867 30.08 12.64 30.08Z" fill="url(#paint0_linear_81_140)"/>
<path d="M48.6729 18.144L53.0569 7.232C51.9476 7.46667 50.8383 7.97867 49.7289 8.768C48.6196 9.55733 47.6703 10.432 46.8809 11.392C46.1129 12.352 45.3876 13.376 44.7049 14.464C44.0223 15.552 43.3076 16.7787 42.5609 18.144H48.6729ZM42.1449 18.88C42.0383 19.0933 41.6756 19.7973 41.0569 20.992C40.4383 22.1867 39.6596 23.5733 38.7209 25.152C37.8036 26.7307 36.8329 27.936 35.8089 28.768C34.7849 29.5787 33.4623 29.984 31.8409 29.984C30.5183 29.984 29.3983 29.6 28.4809 28.832C27.5849 28.0427 27.1369 26.976 27.1369 25.632C27.1369 24.416 27.5529 23.392 28.3849 22.56C29.2383 21.7067 30.2943 21.28 31.5529 21.28C32.7049 21.28 33.6756 21.632 34.4649 22.336C35.2756 23.0187 35.6809 23.9573 35.6809 25.152C35.6809 25.664 35.5956 26.1333 35.4249 26.56C35.2543 26.9867 35.0516 27.3067 34.8169 27.52C34.6036 27.712 34.2729 27.9467 33.8249 28.224C33.3983 28.5013 33.1849 28.7467 33.1849 28.96C33.3343 29.088 33.4516 29.152 33.5369 29.152C33.9849 29.152 34.5503 28.9067 35.2329 28.416C35.9369 27.9253 36.6409 27.1573 37.3449 26.112C38.0489 25.0453 38.7956 23.7547 39.5849 22.24C40.3956 20.704 41.4303 18.8373 42.6889 16.64C43.9689 14.4213 44.9823 12.7573 45.7289 11.648C46.4969 10.5173 47.8409 9.312 49.7609 8.032C51.6809 6.752 54.0596 6.112 56.8969 6.112C58.0276 6.112 58.9129 6.13333 59.5529 6.176C60.1929 6.21867 60.7583 6.272 61.2489 6.336L53.5049 25.6C52.9716 26.944 52.7049 27.7973 52.7049 28.16C52.7049 28.672 53.0143 28.96 53.6329 29.024C54.2516 29.0667 55.0729 29.088 56.0969 29.088V29.6H40.6089V29.088C40.8649 29.088 41.1636 29.0773 41.5049 29.056C41.8676 29.0133 42.3049 28.9707 42.8169 28.928C43.3503 28.864 43.7983 28.6293 44.1609 28.224C44.5449 27.7973 45.0356 26.9013 45.6329 25.536L48.3849 18.88H42.1449Z" fill="url(#paint1_linear_81_140)"/>
<path d="M77.2052 18.272C77.7172 17.248 78.2612 16.1707 78.8372 15.04C79.4132 13.888 80.1279 12.5227 80.9812 10.944C81.8559 9.344 82.7732 8.10667 83.7332 7.232C84.7145 6.35733 86.0372 5.92 87.7012 5.92C88.9812 5.92 90.0692 6.32533 90.9652 7.136C91.8825 7.92533 92.3412 8.94933 92.3412 10.208C92.3412 11.488 91.9359 12.544 91.1252 13.376C90.3145 14.208 89.2692 14.624 87.9892 14.624C86.8585 14.624 85.8772 14.2827 85.0452 13.6C84.2132 12.9173 83.7972 12.032 83.7972 10.944C83.7972 10.5387 83.8292 10.2293 83.8932 10.016C83.9572 9.80267 84.0532 9.568 84.1812 9.312C84.3092 9.03467 84.4905 8.74667 84.7252 8.448C84.9599 8.128 85.0772 7.85067 85.0772 7.616C85.0772 7.46667 84.9812 7.392 84.7892 7.392C84.5332 7.392 84.2132 7.57333 83.8292 7.936C83.4452 8.29867 82.9972 8.87467 82.4852 9.664C81.9732 10.4533 81.2799 11.7013 80.4052 13.408C79.5519 15.1147 78.8585 16.5013 78.3252 17.568C77.8132 18.6347 77.4292 19.4453 77.1732 20L74.9332 25.6C74.3999 27.008 74.1332 27.8827 74.1332 28.224C74.1332 28.5653 74.3679 28.8 74.8372 28.928C75.3279 29.0347 76.1492 29.088 77.3012 29.088V29.6H62.1012V29.088L63.8612 28.96C64.6505 28.8747 65.2265 28.6293 65.5892 28.224C65.9732 27.7973 66.4425 26.9333 66.9972 25.632C67.5732 24.3307 68.0745 23.1573 68.5012 22.112C68.9279 21.0453 69.3332 20.0213 69.7172 19.04C69.5465 18.4853 69.2799 17.664 68.9172 16.576C68.5759 15.4667 68.2345 14.4213 67.8932 13.44C67.5519 12.4373 67.1465 11.3173 66.6772 10.08C66.2292 8.82133 65.8985 8.01067 65.6852 7.648C65.4719 7.28533 65.1305 7.06133 64.6612 6.976C64.2132 6.89067 63.8399 6.848 63.5412 6.848C63.2425 6.82667 62.9652 6.80533 62.7092 6.784V6.272H77.6532V6.784C76.3945 6.89067 75.5092 6.99733 74.9972 7.104C74.5065 7.18933 74.2612 7.62667 74.2612 8.416C74.2612 8.77867 74.3572 9.29067 74.5492 9.952C74.7412 10.6133 74.8799 11.104 74.9652 11.424L77.0772 18.272H77.2052Z" fill="url(#paint2_linear_81_140)"/>
<path d="M117.182 16.032C117.182 19.7013 115.55 22.944 112.286 25.76C109.022 28.576 105.385 29.984 101.374 29.984C98.2382 29.984 95.7635 29.0347 93.9502 27.136C92.1582 25.216 91.2622 22.848 91.2622 20.032C91.2622 16.192 92.9049 12.8853 96.1902 10.112C99.4969 7.31733 103.294 5.92 107.582 5.92C110.398 5.92 112.702 6.88 114.494 8.8C116.286 10.72 117.182 13.1307 117.182 16.032ZM110.526 9.312C110.526 8.416 110.356 7.73333 110.014 7.264C109.694 6.79467 109.108 6.56 108.254 6.56C107.486 6.56 106.846 6.74133 106.334 7.104C105.844 7.46667 105.278 8.096 104.638 8.992C104.02 9.888 103.294 11.2107 102.462 12.96C101.652 14.688 100.937 16.3307 100.318 17.888C99.6995 19.4453 99.1449 21.0453 98.6542 22.688C98.1849 24.3093 97.9502 25.6107 97.9502 26.592C97.9502 27.488 98.1102 28.1707 98.4302 28.64C98.7715 29.1093 99.3689 29.344 100.222 29.344C100.99 29.344 101.62 29.1627 102.11 28.8C102.622 28.4373 103.188 27.8187 103.806 26.944C104.425 26.048 105.15 24.704 105.982 22.912C106.836 21.12 107.614 19.296 108.318 17.44C109.044 15.584 109.588 13.952 109.95 12.544C110.334 11.1147 110.526 10.0373 110.526 9.312Z" fill="url(#paint3_linear_81_140)"/>
<path d="M144.887 16.68C145.233 16.68 145.713 16.68 146.327 16.68C146.967 16.6533 147.927 16.5733 149.207 16.44C150.513 16.3067 151.927 14.96 153.447 12.4C154.993 9.81333 155.767 7.38667 155.767 5.12C155.767 3.97333 155.553 3.04 155.127 2.32C154.7 1.6 154.073 1.24 153.247 1.24L151.247 1.16L144.887 16.68ZM144.567 17.4L141.727 24.6C141.087 26.2533 140.767 27.32 140.767 27.8C140.767 28.28 141.033 28.6 141.567 28.76C142.1 28.8933 143.273 28.96 145.087 28.96V29.6H125.687V28.96L127.887 28.8C128.873 28.6933 129.593 28.3867 130.047 27.88C130.527 27.3467 131.167 26.1733 131.967 24.36C132.767 22.52 133.7 20.2667 134.767 17.6C135.86 14.9333 136.713 12.8133 137.327 11.24C137.94 9.66667 138.527 8.14667 139.087 6.68C139.673 5.18667 140.047 4.18667 140.207 3.68C140.367 3.14667 140.447 2.72 140.447 2.4C140.447 1.84 140.193 1.48 139.687 1.32C139.207 1.16 138.127 1.08 136.447 1.08V0.439999L153.607 0.4C155.607 0.4 157.393 0.599999 158.967 0.999999C160.54 1.4 161.78 1.94667 162.687 2.64C163.593 3.30667 164.26 4.10667 164.687 5.04C165.14 5.97333 165.367 6.96 165.367 8C165.367 10.96 164.087 13.2933 161.527 15C158.993 16.7067 155.913 17.56 152.287 17.56C150.66 17.56 149.207 17.5467 147.927 17.52C146.647 17.4933 145.527 17.4533 144.567 17.4Z" fill="url(#paint4_linear_81_140)"/>
<path d="M177.683 17.216C177.961 17.216 178.227 17.216 178.483 17.216C178.739 17.1947 179.273 17.12 180.083 16.992C180.915 16.864 181.918 16.352 183.091 15.456C184.286 14.56 185.225 13.44 185.907 12.096H186.547L181.843 23.776H181.203C181.289 23.4347 181.363 23.0293 181.427 22.56C181.513 22.0693 181.555 21.5787 181.555 21.088C181.555 20.0213 181.353 19.2213 180.947 18.688C180.542 18.1333 179.87 17.856 178.931 17.856L177.427 17.824L172.915 28.96H174.067C175.134 28.96 176.435 28.896 177.971 28.768C179.529 28.6187 181.193 27.904 182.963 26.624C184.755 25.3227 186.238 24.0853 187.411 22.912C188.585 21.7173 189.523 20.7573 190.227 20.032H190.867L187.027 29.6H161.491V29.088L163.251 28.96C164.041 28.8747 164.617 28.6293 164.979 28.224C165.363 27.7973 165.897 26.7947 166.579 25.216C167.262 23.6373 167.87 22.1973 168.403 20.896C168.937 19.5947 169.662 17.76 170.579 15.392C171.518 13.0027 172.201 11.264 172.627 10.176C173.054 9.06667 173.267 8.30933 173.267 7.904C173.267 7.456 173.086 7.15733 172.723 7.008C172.361 6.85867 171.475 6.784 170.067 6.784V6.272H195.315L191.315 16.192H190.707L190.579 13.952C190.387 12.2027 189.971 10.6667 189.331 9.344C188.713 8 187.934 7.27467 186.995 7.168C186.057 7.06133 185.182 6.99733 184.371 6.976C183.582 6.93333 182.867 6.912 182.227 6.912H181.811L177.683 17.216Z" fill="url(#paint5_linear_81_140)"/>
<path d="M207.016 17.44L209.832 17.344C211.261 17.344 212.488 16.48 213.512 14.752C214.557 13.024 215.08 11.232 215.08 9.376C215.08 7.73333 214.408 6.912 213.064 6.912L211.368 6.848L207.016 17.44ZM206.76 18.016L203.752 25.6C203.219 26.9227 202.952 27.7867 202.952 28.192C202.952 28.5333 203.155 28.768 203.56 28.896C203.987 29.024 204.84 29.088 206.12 29.088V29.6H190.92V29.088L192.68 28.96C193.469 28.8747 194.045 28.6293 194.408 28.224C194.792 27.7973 195.304 26.8587 195.944 25.408C196.584 23.936 197.331 22.1333 198.184 20C199.059 17.8667 199.741 16.1707 200.232 14.912C200.723 13.6533 201.256 12.2667 201.832 10.752C202.429 9.23733 202.728 8.288 202.728 7.904C202.728 7.43467 202.525 7.136 202.12 7.008C201.715 6.85867 200.851 6.784 199.528 6.784V6.272L213.96 6.24C216.755 6.24 218.931 6.66667 220.488 7.52C222.045 8.37333 222.824 9.696 222.824 11.488C222.824 13.472 221.939 15.0187 220.168 16.128C218.419 17.216 216.392 17.76 214.088 17.76L213.288 17.728V17.92C214.312 18.2187 215.08 18.4747 215.592 18.688C216.125 18.88 216.669 19.296 217.224 19.936C217.779 20.576 218.141 21.152 218.312 21.664C218.504 22.176 218.6 22.8267 218.6 23.616C218.6 24.4907 218.472 25.3973 218.216 26.336C217.981 27.2747 217.864 27.808 217.864 27.936C217.864 28.128 217.885 28.2987 217.928 28.448C217.992 28.5973 218.173 28.672 218.472 28.672C218.792 28.672 219.155 28.5013 219.56 28.16C219.987 27.7973 220.339 27.424 220.616 27.04C220.915 26.6347 221.16 26.2507 221.352 25.888C221.565 25.5253 221.8 25.0773 222.056 24.544L222.472 24.704C221.704 26.5173 220.765 27.8507 219.656 28.704C218.568 29.5573 217.128 29.984 215.336 29.984C213.523 29.984 212.115 29.5573 211.112 28.704C210.109 27.8507 209.608 26.592 209.608 24.928C209.608 24.3093 209.811 23.3067 210.216 21.92C210.621 20.512 210.824 19.7333 210.824 19.584C210.824 19.1147 210.707 18.7413 210.472 18.464C210.259 18.1653 209.864 18.016 209.288 18.016L208.296 17.984L206.76 18.016Z" fill="url(#paint6_linear_81_140)"/>
<path d="M245.471 6.784L243.807 6.88C242.783 6.96533 242.111 7.27467 241.791 7.808C241.471 8.32 241.033 9.25867 240.479 10.624C239.924 11.968 239.284 13.5147 238.559 15.264C237.855 17.0133 237.161 18.7307 236.479 20.416C235.817 22.1013 235.177 23.7227 234.559 25.28C233.94 26.8373 233.631 27.808 233.631 28.192C233.631 28.4907 233.823 28.7147 234.207 28.864C234.591 29.0133 235.455 29.088 236.799 29.088V29.6H221.599V29.088L223.359 28.96C224.148 28.8747 224.724 28.6293 225.087 28.224C225.471 27.7973 225.983 26.8587 226.623 25.408C227.263 23.936 228.009 22.1333 228.863 20C229.737 17.8667 230.42 16.1707 230.911 14.912C231.401 13.6533 231.935 12.2773 232.511 10.784C233.108 9.26933 233.407 8.30933 233.407 7.904C233.407 7.41333 233.215 7.104 232.831 6.976C232.468 6.848 231.593 6.784 230.207 6.784V6.272H245.471V6.784Z" fill="url(#paint7_linear_81_140)"/>
<path d="M253.833 29.984C250.932 29.984 248.521 29.0347 246.601 27.136C244.681 25.2373 243.721 22.8693 243.721 20.032C243.721 16.32 245.236 13.0453 248.265 10.208C251.316 7.34933 255.038 5.92 259.433 5.92C260.969 5.92 262.27 6.144 263.337 6.592C264.404 7.01867 265.492 7.456 266.601 7.904C267.113 7.904 267.614 7.712 268.105 7.328C268.617 6.92267 269.012 6.45333 269.289 5.92H269.865L265.321 17.248H264.713C264.713 16.8853 264.724 16.096 264.745 14.88C264.788 13.6427 264.809 12.9493 264.809 12.8C264.809 10.6027 264.638 9.07733 264.297 8.224C263.977 7.34933 263.177 6.912 261.897 6.912C261.065 6.912 260.222 7.21067 259.369 7.808C258.516 8.384 257.684 9.20533 256.873 10.272C256.084 11.3387 255.358 12.48 254.697 13.696C254.057 14.912 253.524 16.0747 253.097 17.184C252.692 18.2933 252.35 19.4453 252.073 20.64C251.817 21.8133 251.689 22.8587 251.689 23.776C251.689 25.44 251.956 26.7093 252.489 27.584C253.044 28.4587 254.025 28.896 255.433 28.896C256.457 28.896 257.342 28.7147 258.089 28.352C258.857 27.9893 259.561 27.52 260.201 26.944C260.862 26.368 261.396 25.7707 261.801 25.152C262.206 24.512 262.59 23.8187 262.953 23.072L263.529 23.328C262.633 25.3973 261.342 27.0293 259.657 28.224C257.972 29.3973 256.03 29.984 253.833 29.984Z" fill="url(#paint8_linear_81_140)"/>
<path d="M294.57 16.032C294.57 19.7013 292.938 22.944 289.674 25.76C286.41 28.576 282.772 29.984 278.762 29.984C275.626 29.984 273.151 29.0347 271.338 27.136C269.546 25.216 268.65 22.848 268.65 20.032C268.65 16.192 270.292 12.8853 273.578 10.112C276.884 7.31733 280.682 5.92 284.97 5.92C287.786 5.92 290.09 6.88 291.882 8.8C293.674 10.72 294.57 13.1307 294.57 16.032ZM287.914 9.312C287.914 8.416 287.743 7.73333 287.402 7.264C287.082 6.79467 286.495 6.56 285.642 6.56C284.874 6.56 284.234 6.74133 283.722 7.104C283.231 7.46667 282.666 8.096 282.026 8.992C281.407 9.888 280.682 11.2107 279.85 12.96C279.039 14.688 278.324 16.3307 277.706 17.888C277.087 19.4453 276.532 21.0453 276.042 22.688C275.572 24.3093 275.338 25.6107 275.338 26.592C275.338 27.488 275.498 28.1707 275.818 28.64C276.159 29.1093 276.756 29.344 277.61 29.344C278.378 29.344 279.007 29.1627 279.498 28.8C280.01 28.4373 280.575 27.8187 281.194 26.944C281.812 26.048 282.538 24.704 283.37 22.912C284.223 21.12 285.002 19.296 285.706 17.44C286.431 15.584 286.975 13.952 287.338 12.544C287.722 11.1147 287.914 10.0373 287.914 9.312Z" fill="url(#paint9_linear_81_140)"/>
</g>
<defs>
<filter id="filter0_ii_81_140" x="0" y="-7.7357" width="294.569" height="45.5514" filterUnits="userSpaceOnUse" color-interpolation-filters="sRGB">
<feFlood flood-opacity="0" result="BackgroundImageFix"/>
<feBlend mode="normal" in="SourceGraphic" in2="BackgroundImageFix" result="shape"/>
<feColorMatrix in="SourceAlpha" type="matrix" values="0 0 0 0 0 0 0 0 0 0 0 0 0 0 0 0 0 0 127 0" result="hardAlpha"/>
<feOffset dy="-7.7357"/>
<feGaussianBlur stdDeviation="3.86785"/>
<feComposite in2="hardAlpha" operator="arithmetic" k2="-1" k3="1"/>
<feColorMatrix type="matrix" values="0 0 0 0 1 0 0 0 0 0.885976 0 0 0 0 0.334996 0 0 0 0.5 0"/>
<feBlend mode="normal" in2="shape" result="effect1_innerShadow_81_140"/>
<feColorMatrix in="SourceAlpha" type="matrix" values="0 0 0 0 0 0 0 0 0 0 0 0 0 0 0 0 0 0 127 0" result="hardAlpha"/>
<feOffset dy="7.7357"/>
<feGaussianBlur stdDeviation="3.86785"/>
<feComposite in2="hardAlpha" operator="arithmetic" k2="-1" k3="1"/>
<feColorMatrix type="matrix" values="0 0 0 0 0.801922 0 0 0 0 0.666059 0 0 0 0 0.251843 0 0 0 0.5 0"/>
<feBlend mode="normal" in2="effect1_innerShadow_81_140" result="effect2_innerShadow_81_140"/>
</filter>
<linearGradient id="paint0_linear_81_140" x1="185" y1="-10.4" x2="185" y2="41.6" gradientUnits="userSpaceOnUse">
<stop stop-color="#D4B043"/>
<stop offset="1" stop-color="#FFDC53"/>
</linearGradient>
<linearGradient id="paint1_linear_81_140" x1="185" y1="-10.4" x2="185" y2="41.6" gradientUnits="userSpaceOnUse">
<stop stop-color="#D4B043"/>
<stop offset="1" stop-color="#FFDC53"/>
</linearGradient>
<linearGradient id="paint2_linear_81_140" x1="185" y1="-10.4" x2="185" y2="41.6" gradientUnits="userSpaceOnUse">
<stop stop-color="#D4B043"/>
<stop offset="1" stop-color="#FFDC53"/>
</linearGradient>
<linearGradient id="paint3_linear_81_140" x1="185" y1="-10.4" x2="185" y2="41.6" gradientUnits="userSpaceOnUse">
<stop stop-color="#D4B043"/>
<stop offset="1" stop-color="#FFDC53"/>
</linearGradient>
<linearGradient id="paint4_linear_81_140" x1="185" y1="-10.4" x2="185" y2="41.6" gradientUnits="userSpaceOnUse">
<stop stop-color="#D4B043"/>
<stop offset="1" stop-color="#FFDC53"/>
</linearGradient>
<linearGradient id="paint5_linear_81_140" x1="185" y1="-10.4" x2="185" y2="41.6" gradientUnits="userSpaceOnUse">
<stop stop-color="#D4B043"/>
<stop offset="1" stop-color="#FFDC53"/>
</linearGradient>
<linearGradient id="paint6_linear_81_140" x1="185" y1="-10.4" x2="185" y2="41.6" gradientUnits="userSpaceOnUse">
<stop stop-color="#D4B043"/>
<stop offset="1" stop-color="#FFDC53"/>
</linearGradient>
<linearGradient id="paint7_linear_81_140" x1="185" y1="-10.4" x2="185" y2="41.6" gradientUnits="userSpaceOnUse">
<stop stop-color="#D4B043"/>
<stop offset="1" stop-color="#FFDC53"/>
</linearGradient>
<linearGradient id="paint8_linear_81_140" x1="185" y1="-10.4" x2="185" y2="41.6" gradientUnits="userSpaceOnUse">
<stop stop-color="#D4B043"/>
<stop offset="1" stop-color="#FFDC53"/>
</linearGradient>
<linearGradient id="paint9_linear_81_140" x1="185" y1="-10.4" x2="185" y2="41.6" gradientUnits="userSpaceOnUse">
<stop stop-color="#D4B043"/>
<stop offset="1" stop-color="#FFDC53"/>
</linearGradient>
</defs>
</svg>
