<svg width="244" height="30" viewBox="0 0 244 30" fill="none" xmlns="http://www.w3.org/2000/svg">
<path d="M18.6972 23.6229H7.0487V0.550847H0V29.4703H18.6972V23.6229Z" fill="#E0E0E0"/>
<path d="M27.7263 13.3263C27.7263 8.32627 30.0688 5.72034 33.5186 5.72034C36.9471 5.72034 39.2896 8.32627 39.2896 13.3263V16.8008C39.2896 21.822 36.9471 24.3008 33.5186 24.3008C30.0688 24.3008 27.7263 21.822 27.7263 16.8008V13.3263ZM20.5285 16.7797C20.5285 24.9153 25.2774 30 33.4973 30C41.7385 30 46.4873 24.9153 46.4873 16.7797V13.411C46.4873 5.23305 41.7598 0.0423729 33.5399 0.0423729C25.32 0.0423729 20.5285 5.19068 20.5285 13.411V16.7797Z" fill="#E0E0E0"/>
<path d="M49.3835 20.9958C49.4474 25.1907 52.2583 30 61.1384 30C68.7408 30 73.085 26.3136 73.085 20.6568C73.085 15.1695 69.2945 13.1144 65.1206 12.3093L60.9042 11.4619C58.3913 10.9746 57.0072 10.0212 57.0072 8.47458C57.0072 6.5678 58.583 5.27542 61.3301 5.27542C64.4605 5.27542 65.9724 7.0339 66.1002 8.83475H72.5952C72.5313 3.8983 68.3788 0 61.3514 0C54.8563 0 50.001 3.24153 50.001 9.02542C50.001 14.0678 53.4296 16.3983 57.7312 17.2458L61.8412 18.1356C64.6734 18.7288 66.1428 19.5551 66.1428 21.3559C66.1428 23.2627 64.6095 24.661 61.394 24.661C58.008 24.661 56.2192 22.8814 56.0915 20.9958H49.3835Z" fill="#E0E0E0"/>
<path d="M84.265 20.9958C84.3289 25.1907 87.1398 30 96.0199 30C103.622 30 107.966 26.3136 107.966 20.6568C107.966 15.1695 104.176 13.1144 100.002 12.3093L95.7857 11.4619C93.2728 10.9746 91.8886 10.0212 91.8886 8.47458C91.8886 6.5678 93.4645 5.27542 96.2116 5.27542C99.3419 5.27542 100.854 7.0339 100.982 8.83475H107.477C107.413 3.8983 103.26 0 96.2329 0C89.7378 0 84.8825 3.24153 84.8825 9.02542C84.8825 14.0678 88.3111 16.3983 92.6127 17.2458L96.7226 18.1356C99.5549 18.7288 101.024 19.5551 101.024 21.3559C101.024 23.2627 99.491 24.661 96.2754 24.661C92.8895 24.661 91.1007 22.8814 90.9729 20.9958H84.265Z" fill="#E0E0E0"/>
<path d="M116.655 29.4703L118.55 22.839H127.537L129.411 29.4703H136.907L127.601 0.550847H118.997L109.628 29.4703H116.655ZM123.256 6.82203L126.28 17.7754H119.849L122.937 6.82203H123.256Z" fill="#E0E0E0"/>
<path d="M146.447 29.4703V12.1822H146.702L158.415 29.4703H163.951V0.550847H157.435V17.6695H157.201L145.51 0.550847H139.952V29.4703H146.447Z" fill="#E0E0E0"/>
<path d="M181.988 29.4703V6.27119H189.91V0.550847H167.061V6.27119H174.961V29.4703H181.988Z" fill="#E0E0E0"/>
<path d="M198.641 13.3263C198.641 8.32627 200.984 5.72034 204.434 5.72034C207.862 5.72034 210.205 8.32627 210.205 13.3263V16.8008C210.205 21.822 207.862 24.3008 204.434 24.3008C200.984 24.3008 198.641 21.822 198.641 16.8008V13.3263ZM191.444 16.7797C191.444 24.9153 196.192 30 204.412 30C212.654 30 217.402 24.9153 217.402 16.7797V13.411C217.402 5.23305 212.675 0.0423729 204.455 0.0423729C196.235 0.0423729 191.444 5.19068 191.444 13.411V16.7797Z" fill="#E0E0E0"/>
<path d="M220.298 20.9958C220.362 25.1907 223.173 30 232.053 30C239.656 30 244 26.3136 244 20.6568C244 15.1695 240.209 13.1144 236.036 12.3093L231.819 11.4619C229.306 10.9746 227.922 10.0212 227.922 8.47458C227.922 6.5678 229.498 5.27542 232.245 5.27542C235.375 5.27542 236.887 7.0339 237.015 8.83475H243.51C243.446 3.8983 239.294 0 232.266 0C225.771 0 220.916 3.24153 220.916 9.02542C220.916 14.0678 224.345 16.3983 228.646 17.2458L232.756 18.1356C235.588 18.7288 237.058 19.5551 237.058 21.3559C237.058 23.2627 235.525 24.661 232.309 24.661C228.923 24.661 227.134 22.8814 227.006 20.9958H220.298Z" fill="#E0E0E0"/>
</svg>
