<svg width="270" height="35" viewBox="0 0 270 35" fill="none" xmlns="http://www.w3.org/2000/svg">
<g filter="url(#filter0_ii_81_152)">
<path d="M1 20.5144H4.08823C4.37376 23.8688 5.14019 26.3393 6.3875 27.9258C7.64984 29.5124 9.06998 30.3056 10.6479 30.3056C11.6848 30.3056 12.5414 29.9883 13.2177 29.3537C13.909 28.7191 14.2546 27.9712 14.2546 27.1099C14.2546 25.5989 13.5633 24.1937 12.1808 22.8942C10.7982 21.5948 8.93473 20.2047 6.59038 18.7239C4.78703 17.5756 3.40446 16.261 2.44268 14.7802C1.48089 13.2995 1 11.4938 1 9.36332C1 6.77953 1.77394 4.7397 3.32181 3.24382C4.88471 1.74794 6.79325 1 9.04744 1C10.0543 1 11.0011 1.16621 11.8877 1.49863C12.7744 1.83104 13.7136 2.45055 14.7054 3.35714L15.2014 1.74794H18.0867V13.4657H14.9985C14.9985 10.761 14.4349 8.62294 13.3078 7.05151C12.1958 5.48008 10.8508 4.69437 9.27286 4.69437C8.3261 4.69437 7.56719 5.0419 6.99613 5.73695C6.4401 6.43201 6.16208 7.14973 6.16208 7.89011C6.16208 9.02335 6.7106 10.1037 7.80764 11.1312C8.9197 12.1435 10.8358 13.5714 13.5558 15.4148C15.3892 16.6387 16.8244 18.0666 17.8613 19.6985C18.8982 21.3152 19.4167 23.1587 19.4167 25.2287C19.4167 27.8578 18.6428 29.9808 17.0949 31.5975C15.547 33.1992 13.6084 34 11.2791 34C10.1069 34 9.0249 33.7809 8.03306 33.3427C7.04121 32.8894 5.94418 32.0508 4.74195 30.8269L4.08823 33.2521H1V20.5144Z" fill="url(#paint0_linear_81_152)"/>
<path d="M29.4478 1.49863H35.8272L41.5077 28.2431C41.658 28.9684 41.8383 29.4142 42.0487 29.5804C42.2591 29.7315 42.6573 29.807 43.2434 29.807H43.8746V33.5014H32.6488V29.807H33.4828C34.0238 29.807 34.392 29.739 34.5873 29.603C34.7977 29.4519 34.9029 29.1951 34.9029 28.8324C34.9029 28.6662 34.8804 28.4698 34.8353 28.2431L34.0914 24.1635H27.9826L27.1035 28.2431C27.0584 28.4547 27.0358 28.6511 27.0358 28.8324C27.0358 29.1497 27.1185 29.3915 27.2838 29.5577C27.4641 29.7239 27.7722 29.807 28.208 29.807H29.4027V33.5014H20.7467V29.807H21.5356C22.1968 29.807 22.6026 29.6786 22.7529 29.4217C22.9032 29.1648 23.0384 28.772 23.1586 28.2431L29.4478 1.49863ZM28.749 20.6504H33.3926L31.2962 8.75137L28.749 20.6504Z" fill="url(#paint1_linear_81_152)"/>
<path d="M62.6294 22.6223V6.87019C62.6294 6.23558 62.5543 5.79739 62.404 5.55563C62.2537 5.31387 61.9456 5.19299 61.4798 5.19299H60.2625V1.49863H68.9186V5.19299H67.4759C67.1152 5.19299 66.8673 5.30632 66.732 5.53297C66.6118 5.75962 66.5517 6.06181 66.5517 6.43956V33.5014H60.6683L51.8093 11.1312V28.6964C51.8093 29.1497 51.8995 29.4519 52.0798 29.603C52.2752 29.739 52.5081 29.807 52.7786 29.807H54.1762V33.5014H45.5201V29.807H46.7374C47.2333 29.807 47.5489 29.6635 47.6842 29.3764C47.8194 29.0893 47.887 28.6738 47.887 28.1298V6.71154C47.887 6.09203 47.7969 5.68407 47.6165 5.48764C47.4512 5.29121 47.0981 5.19299 46.5571 5.19299H45.5201V1.49863H54.582L62.6294 22.6223Z" fill="url(#paint2_linear_81_152)"/>
<path d="M70.8797 1.49863H82.5113C85.9828 1.49863 88.4699 2.73008 89.9727 5.19299C91.4905 7.65591 92.2494 11.7582 92.2494 17.5C92.2494 22.6676 91.5656 26.6264 90.1981 29.3764C88.8305 32.1264 86.2007 33.5014 82.3084 33.5014H70.8797V29.807H71.6687C72.3299 29.807 72.7582 29.671 72.9536 29.399C73.1489 29.112 73.2466 28.6889 73.2466 28.1298V6.87019C73.2466 6.2658 73.1414 5.83517 72.931 5.5783C72.7357 5.32143 72.4276 5.19299 72.0068 5.19299H70.8797V1.49863ZM79.8514 29.807H80.9785C82.9321 29.807 84.1944 28.9911 84.7655 27.3592C85.3516 25.7273 85.6446 22.4409 85.6446 17.5C85.6446 14.2967 85.4493 11.4485 85.0585 8.95536C84.6678 6.44712 83.4205 5.19299 81.3166 5.19299H79.8514V29.807Z" fill="url(#paint3_linear_81_152)"/>
<path d="M94.0302 1.49863H105.256V5.19299H104.399C103.858 5.19299 103.505 5.26854 103.34 5.41964C103.175 5.55563 103.092 5.74451 103.092 5.98626C103.092 6.18269 103.152 6.43956 103.272 6.75687L106.406 15.3695L109.201 6.75687C109.306 6.45467 109.359 6.18269 109.359 5.94093C109.359 5.71429 109.268 5.53297 109.088 5.39698C108.923 5.26099 108.66 5.19299 108.299 5.19299H107.307V1.49863H116.054V5.19299H115.422C114.791 5.19299 114.348 5.32898 114.092 5.60096C113.852 5.85783 113.642 6.24313 113.461 6.75687L108.682 20.2424V28.1298C108.682 28.7644 108.773 29.2026 108.953 29.4444C109.133 29.6861 109.509 29.807 110.08 29.807H111.771V33.5014H98.9894V29.807H100.522C101.153 29.807 101.567 29.6861 101.762 29.4444C101.972 29.2026 102.078 28.7644 102.078 28.1298V20.3784L96.5098 6.75687C96.1792 5.98626 95.9162 5.53297 95.7208 5.39698C95.5405 5.26099 95.3151 5.19299 95.0446 5.19299H94.0302V1.49863Z" fill="url(#paint4_linear_81_152)"/>
<path d="M128.767 20.5144H131.855C132.141 23.8688 132.907 26.3393 134.155 27.9258C135.417 29.5124 136.837 30.3056 138.415 30.3056C139.452 30.3056 140.309 29.9883 140.985 29.3537C141.676 28.7191 142.022 27.9712 142.022 27.1099C142.022 25.5989 141.331 24.1937 139.948 22.8942C138.565 21.5948 136.702 20.2047 134.358 18.7239C132.554 17.5756 131.172 16.261 130.21 14.7802C129.248 13.2995 128.767 11.4938 128.767 9.36332C128.767 6.77953 129.541 4.7397 131.089 3.24382C132.652 1.74794 134.56 1 136.815 1C137.821 1 138.768 1.16621 139.655 1.49863C140.542 1.83104 141.481 2.45055 142.473 3.35714L142.969 1.74794H145.854V13.4657H142.766C142.766 10.761 142.202 8.62294 141.075 7.05151C139.963 5.48008 138.618 4.69437 137.04 4.69437C136.093 4.69437 135.334 5.0419 134.763 5.73695C134.207 6.43201 133.929 7.14973 133.929 7.89011C133.929 9.02335 134.478 10.1037 135.575 11.1312C136.687 12.1435 138.603 13.5714 141.323 15.4148C143.156 16.6387 144.592 18.0666 145.628 19.6985C146.665 21.3152 147.184 23.1587 147.184 25.2287C147.184 27.8578 146.41 29.9808 144.862 31.5975C143.314 33.1992 141.376 34 139.046 34C137.874 34 136.792 33.7809 135.8 33.3427C134.808 32.8894 133.711 32.0508 132.509 30.8269L131.855 33.2521H128.767V20.5144Z" fill="url(#paint5_linear_81_152)"/>
<path d="M149.235 1.49863H160.574V5.19299H159.244C158.823 5.19299 158.545 5.32898 158.41 5.60096C158.274 5.85783 158.207 6.28091 158.207 6.87019V15.3015H164.676V6.87019C164.676 6.29602 164.609 5.87294 164.473 5.60096C164.353 5.32898 164.045 5.19299 163.549 5.19299H162.309V1.49863H173.648V5.19299H172.363C171.927 5.19299 171.634 5.31387 171.484 5.55563C171.349 5.78228 171.281 6.22047 171.281 6.87019V28.1298C171.281 28.8551 171.371 29.3159 171.552 29.5124C171.732 29.7088 171.987 29.807 172.318 29.807H173.648V33.5014H162.309V29.807H163.504C163.955 29.807 164.263 29.7088 164.428 29.5124C164.594 29.3008 164.676 28.84 164.676 28.1298V18.9959H158.207V28.1298C158.207 28.8249 158.274 29.2782 158.41 29.4897C158.56 29.7012 158.868 29.807 159.334 29.807H160.574V33.5014H149.235V29.807H150.452C150.888 29.807 151.189 29.7088 151.354 29.5124C151.519 29.3008 151.602 28.84 151.602 28.1298V6.87019C151.602 6.12981 151.512 5.66896 151.332 5.48764C151.166 5.29121 150.873 5.19299 150.452 5.19299H149.235V1.49863Z" fill="url(#paint6_linear_81_152)"/>
<path d="M176.669 14.0323C176.669 9.25756 177.555 5.8956 179.329 3.94643C181.117 1.98214 183.454 1 186.339 1C189.285 1 191.629 2.00481 193.372 4.01442C195.13 6.00893 196.01 9.55975 196.01 14.6669V20.4691C196.01 25.6367 195.1 29.1875 193.282 31.1216C191.464 33.0405 189.149 34 186.339 34C183.589 34 181.29 33.0707 179.441 31.2122C177.593 29.3386 176.669 25.6971 176.669 20.2878V14.0323ZM183.273 23.4609C183.273 25.9993 183.499 27.7747 183.95 28.7871C184.415 29.7995 185.212 30.3056 186.339 30.3056C187.541 30.3056 188.353 29.7239 188.774 28.5604C189.194 27.397 189.405 25.7802 189.405 23.7102V12.8084C189.405 9.51442 189.187 7.3386 188.751 6.28091C188.315 5.22321 187.511 4.69437 186.339 4.69437C185.092 4.69437 184.265 5.24588 183.859 6.3489C183.469 7.45192 183.273 9.58997 183.273 12.7631V23.4609Z" fill="url(#paint7_linear_81_152)"/>
<path d="M199.391 29.807H200.518C201.014 29.807 201.344 29.671 201.51 29.399C201.675 29.1271 201.758 28.704 201.758 28.1298V6.28091C201.758 5.85783 201.652 5.57074 201.442 5.41964C201.247 5.26854 200.864 5.19299 200.292 5.19299H199.391V1.49863H210.301C214.223 1.49863 216.943 2.17102 218.461 3.5158C219.994 4.84547 220.76 7.04396 220.76 10.1113C220.76 12.1813 220.37 13.9265 219.588 15.3468C218.822 16.7672 217.011 17.7191 214.156 18.2026C216.034 18.7466 217.349 19.5549 218.101 20.6277C218.867 21.7006 219.348 23.8537 219.543 27.0872C219.588 28.1298 219.693 28.9306 219.859 29.4897C220.024 30.0337 220.317 30.3056 220.738 30.3056C221.099 30.3056 221.399 30.0865 221.64 29.6484C221.88 29.2102 222 28.1902 222 26.5886H224.48C224.48 29.5048 223.946 31.4691 222.879 32.4815C221.827 33.4938 220.52 34 218.957 34C217.424 34 216.109 33.5392 215.012 32.6174C213.915 31.6957 213.329 30.0639 213.254 27.7218C213.209 26.8304 213.186 26.3091 213.186 26.158C213.171 23.5742 212.946 21.8441 212.51 20.9677C212.074 20.0913 211.098 19.6532 209.58 19.6532H208.362V28.1298C208.362 28.8702 208.453 29.3386 208.633 29.535C208.828 29.7163 209.144 29.807 209.58 29.807H210.729V33.5014H199.391V29.807ZM208.362 15.9588H210.031C211.533 15.9588 212.593 15.5357 213.209 14.6896C213.84 13.8283 214.156 12.4457 214.156 10.5419C214.156 9.0158 213.908 7.74657 213.412 6.7342C212.916 5.70673 211.856 5.19299 210.233 5.19299H208.362V15.9588Z" fill="url(#paint8_linear_81_152)"/>
<path d="M226.013 29.807H227.298C227.718 29.807 228.004 29.6937 228.154 29.467C228.304 29.2253 228.38 28.7795 228.38 28.1298V6.87019C228.38 6.2658 228.312 5.83517 228.177 5.5783C228.041 5.32143 227.748 5.19299 227.298 5.19299H226.013V1.49863H247.044V12.2871H243.956V10.8365C243.956 8.61539 243.535 7.11951 242.694 6.3489C241.852 5.5783 240.53 5.19299 238.726 5.19299H234.984V14.9615H236.743C237.419 14.9615 237.892 14.8029 238.163 14.4856C238.448 14.1683 238.591 13.4959 238.591 12.4684V10.5872H241.679V23.0302H238.591V21.0584C238.591 20.1518 238.456 19.5247 238.185 19.1772C237.915 18.8297 237.441 18.6559 236.765 18.6559H234.984V29.807H238.478C240.672 29.807 242.13 29.2631 242.851 28.1751C243.588 27.0721 243.956 25.41 243.956 23.1889V21.7157H247.044V33.5014H226.013V29.807Z" fill="url(#paint9_linear_81_152)"/>
<path d="M250.583 20.5144H253.672C253.957 23.8688 254.723 26.3393 255.971 27.9258C257.233 29.5124 258.653 30.3056 260.231 30.3056C261.268 30.3056 262.125 29.9883 262.801 29.3537C263.492 28.7191 263.838 27.9712 263.838 27.1099C263.838 25.5989 263.147 24.1937 261.764 22.8942C260.382 21.5948 258.518 20.2047 256.174 18.7239C254.37 17.5756 252.988 16.261 252.026 14.7802C251.064 13.2995 250.583 11.4938 250.583 9.36332C250.583 6.77953 251.357 4.7397 252.905 3.24382C254.468 1.74794 256.377 1 258.631 1C259.638 1 260.584 1.16621 261.471 1.49863C262.358 1.83104 263.297 2.45055 264.289 3.35714L264.785 1.74794H267.67V13.4657H264.582C264.582 10.761 264.018 8.62294 262.891 7.05151C261.779 5.48008 260.434 4.69437 258.856 4.69437C257.909 4.69437 257.151 5.0419 256.579 5.73695C256.023 6.43201 255.745 7.14973 255.745 7.89011C255.745 9.02335 256.294 10.1037 257.391 11.1312C258.503 12.1435 260.419 13.5714 263.139 15.4148C264.973 16.6387 266.408 18.0666 267.445 19.6985C268.482 21.3152 269 23.1587 269 25.2287C269 27.8578 268.226 29.9808 266.678 31.5975C265.13 33.1992 263.192 34 260.862 34C259.69 34 258.608 33.7809 257.616 33.3427C256.625 32.8894 255.527 32.0508 254.325 30.8269L253.672 33.2521H250.583V20.5144Z" fill="url(#paint10_linear_81_152)"/>
</g>
<path d="M1 20.5144H4.08823C4.37376 23.8688 5.14019 26.3393 6.3875 27.9258C7.64984 29.5124 9.06998 30.3056 10.6479 30.3056C11.6848 30.3056 12.5414 29.9883 13.2177 29.3537C13.909 28.7191 14.2546 27.9712 14.2546 27.1099C14.2546 25.5989 13.5633 24.1937 12.1808 22.8942C10.7982 21.5948 8.93473 20.2047 6.59038 18.7239C4.78703 17.5756 3.40446 16.261 2.44268 14.7802C1.48089 13.2995 1 11.4938 1 9.36332C1 6.77953 1.77394 4.7397 3.32181 3.24382C4.88471 1.74794 6.79325 1 9.04744 1C10.0543 1 11.0011 1.16621 11.8877 1.49863C12.7744 1.83104 13.7136 2.45055 14.7054 3.35714L15.2014 1.74794H18.0867V13.4657H14.9985C14.9985 10.761 14.4349 8.62294 13.3078 7.05151C12.1958 5.48008 10.8508 4.69437 9.27286 4.69437C8.3261 4.69437 7.56719 5.0419 6.99613 5.73695C6.4401 6.43201 6.16208 7.14973 6.16208 7.89011C6.16208 9.02335 6.7106 10.1037 7.80764 11.1312C8.9197 12.1435 10.8358 13.5714 13.5558 15.4148C15.3892 16.6387 16.8244 18.0666 17.8613 19.6985C18.8982 21.3152 19.4167 23.1587 19.4167 25.2287C19.4167 27.8578 18.6428 29.9808 17.0949 31.5975C15.547 33.1992 13.6084 34 11.2791 34C10.1069 34 9.0249 33.7809 8.03306 33.3427C7.04121 32.8894 5.94418 32.0508 4.74195 30.8269L4.08823 33.2521H1V20.5144Z" stroke="#BFBFBF"/>
<path d="M29.4478 1.49863H35.8272L41.5077 28.2431C41.658 28.9684 41.8383 29.4142 42.0487 29.5804C42.2591 29.7315 42.6573 29.807 43.2434 29.807H43.8746V33.5014H32.6488V29.807H33.4828C34.0238 29.807 34.392 29.739 34.5873 29.603C34.7977 29.4519 34.9029 29.1951 34.9029 28.8324C34.9029 28.6662 34.8804 28.4698 34.8353 28.2431L34.0914 24.1635H27.9826L27.1035 28.2431C27.0584 28.4547 27.0358 28.6511 27.0358 28.8324C27.0358 29.1497 27.1185 29.3915 27.2838 29.5577C27.4641 29.7239 27.7722 29.807 28.208 29.807H29.4027V33.5014H20.7467V29.807H21.5356C22.1968 29.807 22.6026 29.6786 22.7529 29.4217C22.9032 29.1648 23.0384 28.772 23.1586 28.2431L29.4478 1.49863ZM28.749 20.6504H33.3926L31.2962 8.75137L28.749 20.6504Z" stroke="#BFBFBF"/>
<path d="M62.6294 22.6223V6.87019C62.6294 6.23558 62.5543 5.79739 62.404 5.55563C62.2537 5.31387 61.9456 5.19299 61.4798 5.19299H60.2625V1.49863H68.9186V5.19299H67.4759C67.1152 5.19299 66.8673 5.30632 66.732 5.53297C66.6118 5.75962 66.5517 6.06181 66.5517 6.43956V33.5014H60.6683L51.8093 11.1312V28.6964C51.8093 29.1497 51.8995 29.4519 52.0798 29.603C52.2752 29.739 52.5081 29.807 52.7786 29.807H54.1762V33.5014H45.5201V29.807H46.7374C47.2333 29.807 47.5489 29.6635 47.6842 29.3764C47.8194 29.0893 47.887 28.6738 47.887 28.1298V6.71154C47.887 6.09203 47.7969 5.68407 47.6165 5.48764C47.4512 5.29121 47.0981 5.19299 46.5571 5.19299H45.5201V1.49863H54.582L62.6294 22.6223Z" stroke="#BFBFBF"/>
<path d="M70.8797 1.49863H82.5113C85.9828 1.49863 88.4699 2.73008 89.9727 5.19299C91.4905 7.65591 92.2494 11.7582 92.2494 17.5C92.2494 22.6676 91.5656 26.6264 90.1981 29.3764C88.8305 32.1264 86.2007 33.5014 82.3084 33.5014H70.8797V29.807H71.6687C72.3299 29.807 72.7582 29.671 72.9536 29.399C73.1489 29.112 73.2466 28.6889 73.2466 28.1298V6.87019C73.2466 6.2658 73.1414 5.83517 72.931 5.5783C72.7357 5.32143 72.4276 5.19299 72.0068 5.19299H70.8797V1.49863ZM79.8514 29.807H80.9785C82.9321 29.807 84.1944 28.9911 84.7655 27.3592C85.3516 25.7273 85.6446 22.4409 85.6446 17.5C85.6446 14.2967 85.4493 11.4485 85.0585 8.95536C84.6678 6.44712 83.4205 5.19299 81.3166 5.19299H79.8514V29.807Z" stroke="#BFBFBF"/>
<path d="M94.0302 1.49863H105.256V5.19299H104.399C103.858 5.19299 103.505 5.26854 103.34 5.41964C103.175 5.55563 103.092 5.74451 103.092 5.98626C103.092 6.18269 103.152 6.43956 103.272 6.75687L106.406 15.3695L109.201 6.75687C109.306 6.45467 109.359 6.18269 109.359 5.94093C109.359 5.71429 109.268 5.53297 109.088 5.39698C108.923 5.26099 108.66 5.19299 108.299 5.19299H107.307V1.49863H116.054V5.19299H115.422C114.791 5.19299 114.348 5.32898 114.092 5.60096C113.852 5.85783 113.642 6.24313 113.461 6.75687L108.682 20.2424V28.1298C108.682 28.7644 108.773 29.2026 108.953 29.4444C109.133 29.6861 109.509 29.807 110.08 29.807H111.771V33.5014H98.9894V29.807H100.522C101.153 29.807 101.567 29.6861 101.762 29.4444C101.972 29.2026 102.078 28.7644 102.078 28.1298V20.3784L96.5098 6.75687C96.1792 5.98626 95.9162 5.53297 95.7208 5.39698C95.5405 5.26099 95.3151 5.19299 95.0446 5.19299H94.0302V1.49863Z" stroke="#BFBFBF"/>
<path d="M128.767 20.5144H131.855C132.141 23.8688 132.907 26.3393 134.155 27.9258C135.417 29.5124 136.837 30.3056 138.415 30.3056C139.452 30.3056 140.309 29.9883 140.985 29.3537C141.676 28.7191 142.022 27.9712 142.022 27.1099C142.022 25.5989 141.331 24.1937 139.948 22.8942C138.565 21.5948 136.702 20.2047 134.358 18.7239C132.554 17.5756 131.172 16.261 130.21 14.7802C129.248 13.2995 128.767 11.4938 128.767 9.36332C128.767 6.77953 129.541 4.7397 131.089 3.24382C132.652 1.74794 134.56 1 136.815 1C137.821 1 138.768 1.16621 139.655 1.49863C140.542 1.83104 141.481 2.45055 142.473 3.35714L142.969 1.74794H145.854V13.4657H142.766C142.766 10.761 142.202 8.62294 141.075 7.05151C139.963 5.48008 138.618 4.69437 137.04 4.69437C136.093 4.69437 135.334 5.0419 134.763 5.73695C134.207 6.43201 133.929 7.14973 133.929 7.89011C133.929 9.02335 134.478 10.1037 135.575 11.1312C136.687 12.1435 138.603 13.5714 141.323 15.4148C143.156 16.6387 144.592 18.0666 145.628 19.6985C146.665 21.3152 147.184 23.1587 147.184 25.2287C147.184 27.8578 146.41 29.9808 144.862 31.5975C143.314 33.1992 141.376 34 139.046 34C137.874 34 136.792 33.7809 135.8 33.3427C134.808 32.8894 133.711 32.0508 132.509 30.8269L131.855 33.2521H128.767V20.5144Z" stroke="#BFBFBF"/>
<path d="M149.235 1.49863H160.574V5.19299H159.244C158.823 5.19299 158.545 5.32898 158.41 5.60096C158.274 5.85783 158.207 6.28091 158.207 6.87019V15.3015H164.676V6.87019C164.676 6.29602 164.609 5.87294 164.473 5.60096C164.353 5.32898 164.045 5.19299 163.549 5.19299H162.309V1.49863H173.648V5.19299H172.363C171.927 5.19299 171.634 5.31387 171.484 5.55563C171.349 5.78228 171.281 6.22047 171.281 6.87019V28.1298C171.281 28.8551 171.371 29.3159 171.552 29.5124C171.732 29.7088 171.987 29.807 172.318 29.807H173.648V33.5014H162.309V29.807H163.504C163.955 29.807 164.263 29.7088 164.428 29.5124C164.594 29.3008 164.676 28.84 164.676 28.1298V18.9959H158.207V28.1298C158.207 28.8249 158.274 29.2782 158.41 29.4897C158.56 29.7012 158.868 29.807 159.334 29.807H160.574V33.5014H149.235V29.807H150.452C150.888 29.807 151.189 29.7088 151.354 29.5124C151.519 29.3008 151.602 28.84 151.602 28.1298V6.87019C151.602 6.12981 151.512 5.66896 151.332 5.48764C151.166 5.29121 150.873 5.19299 150.452 5.19299H149.235V1.49863Z" stroke="#BFBFBF"/>
<path d="M176.669 14.0323C176.669 9.25756 177.555 5.8956 179.329 3.94643C181.117 1.98214 183.454 1 186.339 1C189.285 1 191.629 2.00481 193.372 4.01442C195.13 6.00893 196.01 9.55975 196.01 14.6669V20.4691C196.01 25.6367 195.1 29.1875 193.282 31.1216C191.464 33.0405 189.149 34 186.339 34C183.589 34 181.29 33.0707 179.441 31.2122C177.593 29.3386 176.669 25.6971 176.669 20.2878V14.0323ZM183.273 23.4609C183.273 25.9993 183.499 27.7747 183.95 28.7871C184.415 29.7995 185.212 30.3056 186.339 30.3056C187.541 30.3056 188.353 29.7239 188.774 28.5604C189.194 27.397 189.405 25.7802 189.405 23.7102V12.8084C189.405 9.51442 189.187 7.3386 188.751 6.28091C188.315 5.22321 187.511 4.69437 186.339 4.69437C185.092 4.69437 184.265 5.24588 183.859 6.3489C183.469 7.45192 183.273 9.58997 183.273 12.7631V23.4609Z" stroke="#BFBFBF"/>
<path d="M199.391 29.807H200.518C201.014 29.807 201.344 29.671 201.51 29.399C201.675 29.1271 201.758 28.704 201.758 28.1298V6.28091C201.758 5.85783 201.652 5.57074 201.442 5.41964C201.247 5.26854 200.864 5.19299 200.292 5.19299H199.391V1.49863H210.301C214.223 1.49863 216.943 2.17102 218.461 3.5158C219.994 4.84547 220.76 7.04396 220.76 10.1113C220.76 12.1813 220.37 13.9265 219.588 15.3468C218.822 16.7672 217.011 17.7191 214.156 18.2026C216.034 18.7466 217.349 19.5549 218.101 20.6277C218.867 21.7006 219.348 23.8537 219.543 27.0872C219.588 28.1298 219.693 28.9306 219.859 29.4897C220.024 30.0337 220.317 30.3056 220.738 30.3056C221.099 30.3056 221.399 30.0865 221.64 29.6484C221.88 29.2102 222 28.1902 222 26.5886H224.48C224.48 29.5048 223.946 31.4691 222.879 32.4815C221.827 33.4938 220.52 34 218.957 34C217.424 34 216.109 33.5392 215.012 32.6174C213.915 31.6957 213.329 30.0639 213.254 27.7218C213.209 26.8304 213.186 26.3091 213.186 26.158C213.171 23.5742 212.946 21.8441 212.51 20.9677C212.074 20.0913 211.098 19.6532 209.58 19.6532H208.362V28.1298C208.362 28.8702 208.453 29.3386 208.633 29.535C208.828 29.7163 209.144 29.807 209.58 29.807H210.729V33.5014H199.391V29.807ZM208.362 15.9588H210.031C211.533 15.9588 212.593 15.5357 213.209 14.6896C213.84 13.8283 214.156 12.4457 214.156 10.5419C214.156 9.0158 213.908 7.74657 213.412 6.7342C212.916 5.70673 211.856 5.19299 210.233 5.19299H208.362V15.9588Z" stroke="#BFBFBF"/>
<path d="M226.013 29.807H227.298C227.718 29.807 228.004 29.6937 228.154 29.467C228.304 29.2253 228.38 28.7795 228.38 28.1298V6.87019C228.38 6.2658 228.312 5.83517 228.177 5.5783C228.041 5.32143 227.748 5.19299 227.298 5.19299H226.013V1.49863H247.044V12.2871H243.956V10.8365C243.956 8.61539 243.535 7.11951 242.694 6.3489C241.852 5.5783 240.53 5.19299 238.726 5.19299H234.984V14.9615H236.743C237.419 14.9615 237.892 14.8029 238.163 14.4856C238.448 14.1683 238.591 13.4959 238.591 12.4684V10.5872H241.679V23.0302H238.591V21.0584C238.591 20.1518 238.456 19.5247 238.185 19.1772C237.915 18.8297 237.441 18.6559 236.765 18.6559H234.984V29.807H238.478C240.672 29.807 242.13 29.2631 242.851 28.1751C243.588 27.0721 243.956 25.41 243.956 23.1889V21.7157H247.044V33.5014H226.013V29.807Z" stroke="#BFBFBF"/>
<path d="M250.583 20.5144H253.672C253.957 23.8688 254.723 26.3393 255.971 27.9258C257.233 29.5124 258.653 30.3056 260.231 30.3056C261.268 30.3056 262.125 29.9883 262.801 29.3537C263.492 28.7191 263.838 27.9712 263.838 27.1099C263.838 25.5989 263.147 24.1937 261.764 22.8942C260.382 21.5948 258.518 20.2047 256.174 18.7239C254.37 17.5756 252.988 16.261 252.026 14.7802C251.064 13.2995 250.583 11.4938 250.583 9.36332C250.583 6.77953 251.357 4.7397 252.905 3.24382C254.468 1.74794 256.377 1 258.631 1C259.638 1 260.584 1.16621 261.471 1.49863C262.358 1.83104 263.297 2.45055 264.289 3.35714L264.785 1.74794H267.67V13.4657H264.582C264.582 10.761 264.018 8.62294 262.891 7.05151C261.779 5.48008 260.434 4.69437 258.856 4.69437C257.909 4.69437 257.151 5.0419 256.579 5.73695C256.023 6.43201 255.745 7.14973 255.745 7.89011C255.745 9.02335 256.294 10.1037 257.391 11.1312C258.503 12.1435 260.419 13.5714 263.139 15.4148C264.973 16.6387 266.408 18.0666 267.445 19.6985C268.482 21.3152 269 23.1587 269 25.2287C269 27.8578 268.226 29.9808 266.678 31.5975C265.13 33.1992 263.192 34 260.862 34C259.69 34 258.608 33.7809 257.616 33.3427C256.625 32.8894 255.527 32.0508 254.325 30.8269L253.672 33.2521H250.583V20.5144Z" stroke="#BFBFBF"/>
<defs>
<filter id="filter0_ii_81_152" x="0.5" y="-6.55807" width="269" height="48.1161" filterUnits="userSpaceOnUse" color-interpolation-filters="sRGB">
<feFlood flood-opacity="0" result="BackgroundImageFix"/>
<feBlend mode="normal" in="SourceGraphic" in2="BackgroundImageFix" result="shape"/>
<feColorMatrix in="SourceAlpha" type="matrix" values="0 0 0 0 0 0 0 0 0 0 0 0 0 0 0 0 0 0 127 0" result="hardAlpha"/>
<feOffset dy="7.05807"/>
<feGaussianBlur stdDeviation="3.52904"/>
<feComposite in2="hardAlpha" operator="arithmetic" k2="-1" k3="1"/>
<feColorMatrix type="matrix" values="0 0 0 0 1 0 0 0 0 0.413506 0 0 0 0 0.413506 0 0 0 1 0"/>
<feBlend mode="normal" in2="shape" result="effect1_innerShadow_81_152"/>
<feColorMatrix in="SourceAlpha" type="matrix" values="0 0 0 0 0 0 0 0 0 0 0 0 0 0 0 0 0 0 127 0" result="hardAlpha"/>
<feOffset dy="-7.05807"/>
<feGaussianBlur stdDeviation="3.52904"/>
<feComposite in2="hardAlpha" operator="arithmetic" k2="-1" k3="1"/>
<feColorMatrix type="matrix" values="0 0 0 0 0.677353 0 0 0 0 0.250765 0 0 0 0 0.250765 0 0 0 1 0"/>
<feBlend mode="normal" in2="effect1_innerShadow_81_152" result="effect2_innerShadow_81_152"/>
</filter>
<linearGradient id="paint0_linear_81_152" x1="134.583" y1="1.00907" x2="134.583" y2="33.5014" gradientUnits="userSpaceOnUse">
<stop stop-color="#FF6565"/>
<stop offset="1" stop-color="#B94545"/>
</linearGradient>
<linearGradient id="paint1_linear_81_152" x1="134.583" y1="1.00907" x2="134.583" y2="33.5014" gradientUnits="userSpaceOnUse">
<stop stop-color="#FF6565"/>
<stop offset="1" stop-color="#B94545"/>
</linearGradient>
<linearGradient id="paint2_linear_81_152" x1="134.583" y1="1.00907" x2="134.583" y2="33.5014" gradientUnits="userSpaceOnUse">
<stop stop-color="#FF6565"/>
<stop offset="1" stop-color="#B94545"/>
</linearGradient>
<linearGradient id="paint3_linear_81_152" x1="134.583" y1="1.00907" x2="134.583" y2="33.5014" gradientUnits="userSpaceOnUse">
<stop stop-color="#FF6565"/>
<stop offset="1" stop-color="#B94545"/>
</linearGradient>
<linearGradient id="paint4_linear_81_152" x1="134.583" y1="1.00907" x2="134.583" y2="33.5014" gradientUnits="userSpaceOnUse">
<stop stop-color="#FF6565"/>
<stop offset="1" stop-color="#B94545"/>
</linearGradient>
<linearGradient id="paint5_linear_81_152" x1="134.583" y1="1.00907" x2="134.583" y2="33.5014" gradientUnits="userSpaceOnUse">
<stop stop-color="#FF6565"/>
<stop offset="1" stop-color="#B94545"/>
</linearGradient>
<linearGradient id="paint6_linear_81_152" x1="134.583" y1="1.00907" x2="134.583" y2="33.5014" gradientUnits="userSpaceOnUse">
<stop stop-color="#FF6565"/>
<stop offset="1" stop-color="#B94545"/>
</linearGradient>
<linearGradient id="paint7_linear_81_152" x1="134.583" y1="1.00907" x2="134.583" y2="33.5014" gradientUnits="userSpaceOnUse">
<stop stop-color="#FF6565"/>
<stop offset="1" stop-color="#B94545"/>
</linearGradient>
<linearGradient id="paint8_linear_81_152" x1="134.583" y1="1.00907" x2="134.583" y2="33.5014" gradientUnits="userSpaceOnUse">
<stop stop-color="#FF6565"/>
<stop offset="1" stop-color="#B94545"/>
</linearGradient>
<linearGradient id="paint9_linear_81_152" x1="134.583" y1="1.00907" x2="134.583" y2="33.5014" gradientUnits="userSpaceOnUse">
<stop stop-color="#FF6565"/>
<stop offset="1" stop-color="#B94545"/>
</linearGradient>
<linearGradient id="paint10_linear_81_152" x1="134.583" y1="1.00907" x2="134.583" y2="33.5014" gradientUnits="userSpaceOnUse">
<stop stop-color="#FF6565"/>
<stop offset="1" stop-color="#B94545"/>
</linearGradient>
</defs>
</svg>
