<svg width="133" height="102" viewBox="0 0 133 102" fill="none" xmlns="http://www.w3.org/2000/svg">
<path d="M66.0511 2.14596C66.0595 2.20619 66.0652 2.26701 66.068 2.32827M66.0681 99.6565C66.0652 99.7184 66.0595 99.7796 66.0511 99.8398M66.0192 2.14596C66.0108 2.20619 66.0051 2.26701 66.0022 2.32827M66.0022 99.6566C66.0051 99.7184 66.0107 99.7796 66.0191 99.8398M1.38693 99.6804L1.38694 99.6805C1.40182 99.8055 1.43882 99.9213 1.49327 100.025L0.607083 100.489C0.833496 100.922 1.21253 101.259 1.66912 101.433L2.02493 100.498C2.13461 100.54 2.25379 100.563 2.37947 100.563H4.30729V101.563H8.16293V100.563H12.0186V101.563H15.8742V100.563H19.7299V101.563H23.5855V100.563H27.4411V101.563H31.2968V100.563H35.1524V101.563H39.0081V100.563H42.8637V101.563H46.7194V100.563H50.575V101.563H54.4307V100.563H58.2863V101.563H62.1419V100.563H64.0698C64.1904 100.563 64.304 100.542 64.4086 100.504L64.7475 101.445C64.9897 101.358 65.2102 101.225 65.3988 101.057C65.2384 100.779 65.1211 100.471 65.0568 100.145L64.9316 100.071C64.9895 99.9731 65.0309 99.8654 65.0527 99.7508C65.054 99.7437 65.0553 99.7365 65.0565 99.7293C65.0576 99.7226 65.0587 99.7159 65.0597 99.7091C65.0599 99.7076 65.0601 99.706 65.0603 99.7045L66.0351 99.8421L67.0099 99.7044C67.0121 99.7201 67.0147 99.7355 67.0176 99.7508C67.0393 99.8654 67.0807 99.9731 67.1386 100.071L67.0135 100.145C66.9491 100.471 66.8319 100.779 66.6715 101.057C66.8601 101.225 67.0806 101.358 67.3227 101.445L67.6616 100.504C67.7662 100.542 67.8798 100.563 68.0005 100.563H69.9283V101.563H73.7839V100.563H77.6396V101.563H81.4952V100.563H85.3509V101.563H89.2065V100.563H93.0622V101.563H96.9178V100.563H100.773V101.563H104.629V100.563H108.485V101.563H112.34V100.563L116.196 100.563V101.563H120.052V100.563H123.907V101.563H127.763V100.563H129.691C129.816 100.563 129.936 100.54 130.045 100.498L130.401 101.433C130.858 101.259 131.237 100.922 131.463 100.489L130.577 100.025C130.631 99.9213 130.668 99.8055 130.683 99.6805C130.767 98.979 130.843 98.2229 130.905 97.4196L131.902 97.4969C132.012 96.0858 132.079 94.5321 132.069 92.8752L131.069 92.8808C131.061 91.4398 130.994 89.9206 130.846 88.3499L131.841 88.2556C131.7 86.7687 131.488 85.2354 131.184 83.6776L130.202 83.8689C130.06 83.1377 129.897 82.4014 129.712 81.6625C129.594 81.1931 129.409 80.6192 129.157 79.9438L130.093 79.5937C129.71 78.5677 129.191 77.3577 128.558 75.9927L127.651 76.4138C127.151 75.3383 126.578 74.1624 125.941 72.9L126.833 72.4491C126.281 71.3568 125.683 70.2024 125.044 68.9953L124.16 69.4633C123.575 68.3599 122.957 67.2117 122.309 66.0257L123.186 65.5462C122.578 64.4326 121.943 63.2864 121.287 62.1136L120.415 62.6017C119.793 61.4897 119.151 60.3533 118.493 59.1977L119.362 58.703C118.728 57.5889 118.079 56.4572 117.418 55.3125L116.552 55.8125C115.909 54.6977 115.254 53.5704 114.59 52.4347L115.454 51.9302C114.8 50.8122 114.139 49.6862 113.472 48.5561L112.611 49.0643C111.951 47.9459 111.286 46.8235 110.618 45.7009L111.477 45.1895C110.81 44.0683 110.14 42.947 109.47 41.8296L108.612 42.3439C107.939 41.2217 107.266 40.1033 106.595 38.9927L107.451 38.4758C106.772 37.3504 106.095 36.2329 105.423 35.1275L104.569 35.6467C103.883 34.5192 103.204 33.4041 102.533 32.3058L103.386 31.7844C102.695 30.6526 102.012 29.5386 101.342 28.4471L100.49 28.9704C99.7925 27.835 99.1084 26.724 98.4411 25.6427L99.292 25.1175C98.5881 23.977 97.9029 22.8696 97.2406 21.8014L96.3908 22.3284C95.6701 21.1662 94.9767 20.0506 94.3158 18.9896L95.1646 18.4608C94.432 17.2848 93.7394 16.1757 93.0943 15.1447L92.2465 15.6751C91.4804 14.4508 90.7812 13.3364 90.1613 12.3504L91.0079 11.8182C90.1568 10.4645 89.455 9.35248 88.9346 8.52949L88.0894 9.06393C87.7546 8.53438 87.495 8.12467 87.3191 7.84742L87.1192 7.5325L87.0684 7.45252L87.0556 7.43242L87.0524 7.42741L87.0517 7.42638L87.0516 7.42617L87.0514 7.42587L87.0514 7.4258C87.0182 7.37389 86.9807 7.32558 86.9393 7.28129L87.6701 6.59873C87.5024 6.41912 87.3029 6.27195 87.0815 6.1648L86.6458 7.06487C86.5912 7.03844 86.5339 7.01687 86.4744 7.00064L86.4604 6.99682L86.4465 6.99259L84.1704 6.29977L84.4616 5.34311L79.9095 3.95748L79.6183 4.91415L75.0662 3.52852L75.3574 2.57186L70.8053 1.18623L70.5141 2.14289L68.2531 1.45466C68.1819 1.43591 68.1098 1.42533 68.0379 1.42259L68.076 0.42332C67.7686 0.411606 67.4624 0.471248 67.1815 0.597286L67.5909 1.50964C67.5215 1.54078 67.455 1.58008 67.3928 1.6274C67.3442 1.66457 67.2996 1.70574 67.2592 1.75027L66.8994 1.42418C66.9496 1.56649 66.9892 1.71292 67.0175 1.86229L66.7096 1.9208L67.0176 1.86232C67.0263 1.90834 67.034 1.95464 67.0406 2.00118L66.9497 2.01407L67.0679 2.06003C67.0459 2.11676 67.029 2.17553 67.0175 2.23565C67.0146 2.25096 67.0121 2.26638 67.0099 2.28188L66.0351 2.14369L65.0604 2.28186C65.0582 2.26636 65.0556 2.25095 65.0527 2.23565C65.0413 2.17554 65.0244 2.11676 65.0023 2.06003L65.1206 2.01406L65.0297 2.00116C65.0363 1.95462 65.044 1.90833 65.0527 1.86232L65.3606 1.9208L65.0527 1.86229C65.0811 1.71293 65.1207 1.56649 65.1709 1.42419L64.811 1.75027C64.7707 1.70574 64.7261 1.66457 64.6774 1.6274C64.6152 1.58008 64.5487 1.54078 64.4794 1.50964L64.8887 0.597286C64.6079 0.471248 64.3017 0.411606 63.9942 0.42332L64.0323 1.42259C63.9604 1.42533 63.8883 1.43591 63.8172 1.45465L61.5561 2.14289L61.2649 1.18623L56.7128 2.57186L57.004 3.52852L52.4519 4.91415L52.1607 3.95748L47.6086 5.34311L47.8998 6.29977L45.6237 6.99259L45.6098 6.99682L45.5958 7.00064C45.5364 7.01687 45.4791 7.03844 45.4244 7.06487L44.9887 6.1648C44.7674 6.27195 44.5678 6.41912 44.4001 6.59873L45.1309 7.28129C45.0894 7.32575 45.0517 7.37425 45.0185 7.42638L45.0179 7.42741L45.0147 7.43242L45.0019 7.45252L44.9511 7.5325L44.7512 7.84742C44.5753 8.12467 44.3156 8.53438 43.9808 9.06393L43.1356 8.52949C42.6152 9.35248 41.9134 10.4645 41.0624 11.8182L41.9089 12.3504C41.289 13.3364 40.5898 14.4508 39.8237 15.6751L38.976 15.1447C38.3308 16.1757 37.6382 17.2848 36.9057 18.4608L37.7545 18.9896C37.0936 20.0506 36.4001 21.1662 35.6795 22.3284L34.8296 21.8014C34.1673 22.8696 33.4821 23.977 32.7782 25.1175L33.6292 25.6427C32.9618 26.724 32.2777 27.835 31.5804 28.9704L30.7283 28.4471C30.0579 29.5386 29.3754 30.6526 28.6839 31.7844L29.5372 32.3058C28.8662 33.4041 28.1867 34.5192 27.5017 35.6467L26.6471 35.1275C25.9755 36.2329 25.2986 37.3504 24.619 38.4758L25.4751 38.9927C24.8044 40.1033 24.1313 41.2217 23.4583 42.3439L22.6007 41.8296C21.9305 42.947 21.2605 44.0683 20.5932 45.1895L21.4525 45.7009C20.7844 46.8235 20.119 47.9459 19.4591 49.0643L18.5979 48.5561C17.9311 49.6862 17.2698 50.8122 16.6166 51.9302L17.4801 52.4347C16.8166 53.5704 16.1616 54.6977 15.518 55.8125L14.652 55.3125C13.991 56.4572 13.3419 57.589 12.7078 58.703L13.5768 59.1977C12.919 60.3533 12.2775 61.4897 11.6556 62.6017L10.7828 62.1136C10.1269 63.2864 9.49263 64.4326 8.88404 65.5462L9.76153 66.0257C9.11337 67.2117 8.49475 68.3599 7.91047 69.4633L7.02673 68.9953C6.38756 70.2024 5.78892 71.3568 5.23712 72.4491L6.1297 72.9C5.49202 74.1624 4.91888 75.3383 4.41957 76.4138L3.51256 75.9927C2.87885 77.3577 2.36044 78.5677 1.97693 79.5937L2.91363 79.9438C2.66119 80.6192 2.47642 81.1931 2.35866 81.6625C2.17335 82.4015 2.01041 83.1377 1.86787 83.8689L0.886348 83.6776C0.582665 85.2354 0.369875 86.7687 0.229056 88.2556L1.2246 88.3499C1.07585 89.9206 1.00893 91.4398 1.00084 92.8808L0.000858049 92.8752C-0.00844559 94.5321 0.0586099 96.0858 0.16794 97.4969L1.16495 97.4196C1.22719 98.2229 1.30336 98.979 1.38693 99.6804ZM66.5182 1.07879C66.3762 1.23547 66.2606 1.41306 66.1749 1.60436L66.8211 1.35324L66.5182 1.07879ZM65.2492 1.35324L65.8954 1.60436C65.8097 1.41306 65.694 1.23547 65.5521 1.07879L65.2492 1.35324ZM67.0669 2.28139C67.0691 2.32813 67.0702 2.37503 67.0702 2.42206H67H65.0702H65C65 2.37502 65.0011 2.32811 65.0033 2.28136L66.0351 2.32981L67.0669 2.28139ZM67.0702 99.5623C67.0702 99.6094 67.0692 99.6562 67.067 99.7029L66.0352 99.655L65.0033 99.7029C65.0011 99.6563 65 99.6094 65 99.5623H65.0702H67H67.0702Z" fill="#EB5757" fill-opacity="0.5" stroke="#EB5757" stroke-width="2" stroke-dasharray="4 4"/>
</svg>
