<svg width="133" height="102" viewBox="0 0 133 102" fill="none" xmlns="http://www.w3.org/2000/svg">
<path d="M0.393957 99.3769C0.513686 100.383 1.36675 101.141 2.37947 101.141H64.0698C65.0461 101.141 65.8595 100.441 66.0351 99.5154C66.2108 100.441 67.0241 101.141 68.0005 101.141L129.691 101.141C130.703 101.141 131.557 100.383 131.676 99.3769C132.217 94.8381 132.453 88.0593 130.682 80.9973C127.666 68.9783 87.8951 6.46711 87.8951 6.46711C87.6287 6.04905 87.2166 5.74476 86.7377 5.61405L68.5293 0.0715406C67.9276 -0.0940863 67.2841 0.0316198 66.7872 0.409768C66.3918 0.71134 66.1264 1.1468 66.0351 1.62709C65.9439 1.1468 65.6785 0.71134 65.283 0.409768C64.7861 0.0316198 64.1426 -0.0940863 63.541 0.0715406L45.3325 5.61405C44.8536 5.74476 44.4416 6.04905 44.1752 6.46711C44.1752 6.46711 4.40392 68.9783 1.38872 80.9973C-0.382283 88.0593 -0.146823 94.8381 0.393957 99.3769Z" fill="white" fill-opacity="0.35"/>
</svg>
