<svg width="133" height="102" viewBox="0 0 133 102" fill="none" xmlns="http://www.w3.org/2000/svg">
<path d="M1.38693 99.3992L1.38694 99.3993C1.44686 99.9026 1.87389 100.282 2.37947 100.282H64.0698C64.5567 100.282 64.9649 99.9319 65.0527 99.4696H67.0176C67.1053 99.9319 67.5136 100.282 68.0005 100.282L129.691 100.282C130.196 100.282 130.623 99.9026 130.683 99.3993C131.216 94.9323 131.443 88.2852 129.712 81.3811C129.362 79.9868 128.451 77.776 127.076 74.9183C125.711 72.0816 123.92 68.6714 121.848 64.904C117.705 57.3703 112.458 48.4425 107.301 39.8817C102.145 31.3226 97.0821 23.1379 93.3082 17.0925C91.4213 14.0699 89.8568 11.5825 88.7642 9.85088C88.2178 8.98509 87.7895 8.30828 87.4978 7.84802C87.3519 7.61789 87.2403 7.4419 87.1651 7.3235L87.08 7.18953L87.0585 7.15575L87.0531 7.1473L87.0518 7.1452C87.0518 7.14517 87.0517 7.14515 87.0519 7.14504L87.0517 7.14513C86.9185 6.93605 86.7129 6.78449 86.4744 6.71939L86.4604 6.71557L86.4465 6.71134L68.2531 1.17341C67.9569 1.0954 67.6399 1.15815 67.3928 1.34615C67.1958 1.49669 67.0632 1.71426 67.0175 1.9544H65.0527C65.0071 1.71427 64.8744 1.4967 64.6774 1.34615C64.4304 1.15815 64.1134 1.0954 63.8171 1.1734L45.6237 6.71134L45.6098 6.71557L45.5958 6.71939C45.3573 6.78449 45.1517 6.93605 45.0185 7.14513L45.0184 7.14506C45.0185 7.14515 45.0185 7.14518 45.0185 7.1452L45.0171 7.1473L45.0118 7.15575L44.9903 7.18953L44.9052 7.3235C44.83 7.4419 44.7183 7.61789 44.5724 7.84802C44.2807 8.30828 43.8524 8.98509 43.3061 9.85088C42.2134 11.5825 40.649 14.0699 38.7621 17.0925C34.9882 23.1379 29.9255 31.3226 24.7692 39.8817C19.612 48.4425 14.3657 57.3703 10.2224 64.904C8.15042 68.6714 6.35905 72.0816 4.99399 74.9183C3.61879 77.776 2.70847 79.9868 2.35866 81.3812C0.627316 88.2852 0.854722 94.9323 1.38693 99.3992Z" fill="#6FCF97" fill-opacity="0.5" stroke="#6FCF97" stroke-width="2"/>
</svg>
