<svg width="133" height="102" viewBox="0 0 133 102" fill="none" xmlns="http://www.w3.org/2000/svg">
<path d="M1.38693 99.5398L1.38694 99.5399C1.44686 100.043 1.87389 100.422 2.37947 100.422H64.0698C64.5567 100.422 64.9649 100.073 65.0527 99.6102H67.0176C67.1053 100.073 67.5136 100.422 68.0005 100.422L129.691 100.422C130.196 100.422 130.623 100.043 130.683 99.5399C131.216 95.0729 131.443 88.4258 129.712 81.5218C129.362 80.1275 128.451 77.9167 127.076 75.0589C125.711 72.2222 123.92 68.812 121.848 65.0446C117.705 57.5109 112.458 48.5831 107.301 40.0224C102.145 31.4633 97.0821 23.2785 93.3082 17.2331C91.4213 14.2105 89.8568 11.7231 88.7642 9.99151C88.2178 9.12572 87.7895 8.4489 87.4978 7.98864C87.3519 7.75851 87.2403 7.58252 87.1651 7.46413L87.08 7.33015L87.0585 7.29637L87.0531 7.28792L87.0518 7.28582C87.0518 7.2858 87.0517 7.28577 87.0519 7.28566L87.0517 7.28575C86.9185 7.07668 86.7129 6.92512 86.4744 6.86002L86.4604 6.85619L86.4465 6.85196L68.2531 1.31404C67.9569 1.23602 67.6399 1.29877 67.3928 1.48678C67.1958 1.63732 67.0632 1.85489 67.0175 2.09502H65.0527C65.0071 1.8549 64.8744 1.63732 64.6774 1.48678C64.4304 1.29878 64.1134 1.23603 63.8171 1.31403L45.6237 6.85196L45.6098 6.85619L45.5958 6.86002C45.3573 6.92512 45.1517 7.07668 45.0185 7.28576L45.0184 7.28568C45.0185 7.28578 45.0185 7.2858 45.0185 7.28582L45.0171 7.28792L45.0118 7.29637L44.9903 7.33015L44.9052 7.46413C44.83 7.58252 44.7183 7.75851 44.5724 7.98864C44.2807 8.4489 43.8524 9.12572 43.3061 9.99151C42.2134 11.7231 40.649 14.2105 38.7621 17.2331C34.9882 23.2785 29.9255 31.4633 24.7692 40.0224C19.612 48.5831 14.3657 57.5109 10.2224 65.0446C8.15042 68.812 6.35905 72.2222 4.99399 75.0589C3.61879 77.9167 2.70847 80.1275 2.35866 81.5218C0.627316 88.4259 0.854722 95.073 1.38693 99.5398Z" fill="#F2C94C" fill-opacity="0.5" stroke="#F2C94C" stroke-width="2"/>
</svg>
