<svg width="133" height="102" viewBox="0 0 133 102" fill="none" xmlns="http://www.w3.org/2000/svg">
<path d="M1.38693 99.6804L1.38694 99.6805C1.44686 100.184 1.87389 100.563 2.37947 100.563H64.0698C64.5567 100.563 64.9649 100.213 65.0527 99.7508H67.0176C67.1053 100.213 67.5136 100.563 68.0005 100.563L129.691 100.563C130.196 100.563 130.623 100.184 130.683 99.6805C131.216 95.2136 131.443 88.5664 129.712 81.6624C129.362 80.2681 128.451 78.0573 127.076 75.1995C125.711 72.3629 123.92 68.9526 121.848 65.1852C117.705 57.6515 112.458 48.7237 107.301 40.163C102.145 31.6039 97.0821 23.4192 93.3082 17.3737C91.4213 14.3511 89.8568 11.8637 88.7642 10.1321C88.2178 9.26634 87.7895 8.58953 87.4978 8.12927C87.3519 7.89914 87.2403 7.72315 87.1651 7.60475L87.08 7.47078L87.0585 7.437L87.0531 7.42855L87.0518 7.42645C87.0518 7.42642 87.0517 7.4264 87.0519 7.42629L87.0517 7.42638C86.9185 7.2173 86.7129 7.06574 86.4744 7.00064L86.4604 6.99682L86.4465 6.99259L68.2531 1.45466C67.9569 1.37665 67.6399 1.4394 67.3928 1.6274C67.1958 1.77794 67.0632 1.99551 67.0175 2.23565H65.0527C65.0071 1.99552 64.8744 1.77795 64.6774 1.6274C64.4304 1.4394 64.1134 1.37665 63.8171 1.45465L45.6237 6.99259L45.6098 6.99682L45.5958 7.00064C45.3573 7.06574 45.1517 7.2173 45.0185 7.42638L45.0184 7.42631C45.0185 7.4264 45.0185 7.42643 45.0185 7.42645L45.0171 7.42855L45.0118 7.437L44.9903 7.47078L44.9052 7.60475C44.83 7.72315 44.7183 7.89914 44.5724 8.12927C44.2807 8.58953 43.8524 9.26634 43.3061 10.1321C42.2134 11.8637 40.649 14.3511 38.7621 17.3737C34.9882 23.4192 29.9255 31.6039 24.7692 40.163C19.612 48.7237 14.3657 57.6515 10.2224 65.1852C8.15042 68.9526 6.35905 72.3629 4.99399 75.1995C3.61879 78.0573 2.70847 80.2681 2.35866 81.6625C0.627316 88.5665 0.854722 95.2136 1.38693 99.6804Z" fill="#EB5757" fill-opacity="0.5" stroke="#EB5757" stroke-width="2"/>
</svg>
