<svg width="22" height="21" viewBox="0 0 22 21" fill="none" xmlns="http://www.w3.org/2000/svg">
<path d="M11.0001 0.998047C16.5238 0.998047 21.0016 5.47589 21.0016 10.9996C21.0016 16.5233 16.5238 21.0011 11.0001 21.0011C5.47639 21.0011 0.998535 16.5233 0.998535 10.9996C0.998535 5.47589 5.47639 0.998047 11.0001 0.998047ZM11.0001 12.4971C9.36522 12.4971 7.83305 13.1549 6.71183 14.2999C6.42203 14.5958 6.42702 15.0707 6.72297 15.3605C7.01892 15.6503 7.49375 15.6453 7.78356 15.3493C8.62543 14.4896 9.77272 13.9971 11.0001 13.9971C12.2248 13.9971 13.3697 14.4874 14.2112 15.3438C14.5015 15.6393 14.9763 15.6434 15.2718 15.3531C15.5673 15.0628 15.5714 14.588 15.2811 14.2925C14.1604 13.152 12.6313 12.4971 11.0001 12.4971ZM8.00054 7.75024C7.31058 7.75024 6.75125 8.30956 6.75125 8.99953C6.75125 9.6895 7.31058 10.2488 8.00054 10.2488C8.6905 10.2488 9.24982 9.6895 9.24982 8.99953C9.24982 8.30956 8.6905 7.75024 8.00054 7.75024ZM14.0005 7.75024C13.3105 7.75024 12.7512 8.30956 12.7512 8.99953C12.7512 9.6895 13.3105 10.2488 14.0005 10.2488C14.6905 10.2488 15.2498 9.6895 15.2498 8.99953C15.2498 8.30956 14.6905 7.75024 14.0005 7.75024Z" fill="#EB5757"/>
</svg>
