<svg width="22" height="21" viewBox="0 0 22 21" fill="none" xmlns="http://www.w3.org/2000/svg">
<path d="M11.0001 0.998047C16.5238 0.998047 21.0017 5.47589 21.0017 10.9996C21.0017 16.5233 16.5238 21.0011 11.0001 21.0011C5.47638 21.0011 0.998535 16.5233 0.998535 10.9996C0.998535 5.47589 5.47638 0.998047 11.0001 0.998047ZM7.46182 13.7829C7.20548 13.4576 6.73392 13.4016 6.40856 13.658C6.0832 13.9143 6.02726 14.3859 6.28361 14.7112C7.41421 16.1462 9.13746 17.0012 11.0001 17.0012C12.8603 17.0012 14.5814 16.1485 15.7122 14.7168C15.9689 14.3917 15.9135 13.9201 15.5885 13.6634C15.2634 13.4066 14.7918 13.462 14.5351 13.7871C13.6858 14.8624 12.3963 15.5012 11.0001 15.5012C9.60196 15.5012 8.31096 14.8606 7.46182 13.7829ZM8.00054 7.75024C7.31058 7.75024 6.75125 8.30956 6.75125 8.99953C6.75125 9.6895 7.31058 10.2488 8.00054 10.2488C8.69051 10.2488 9.24986 9.6895 9.24986 8.99953C9.24986 8.30956 8.69051 7.75024 8.00054 7.75024ZM14.0006 7.75024C13.3106 7.75024 12.7513 8.30956 12.7513 8.99953C12.7513 9.6895 13.3106 10.2488 14.0006 10.2488C14.6905 10.2488 15.2499 9.6895 15.2499 8.99953C15.2499 8.30956 14.6905 7.75024 14.0006 7.75024Z" fill="#2D9CDB"/>
</svg>
