<svg width="17" height="21" viewBox="0 0 17 21" fill="none" xmlns="http://www.w3.org/2000/svg">
<path d="M13.7541 12.0002C14.9961 12.0002 16.0029 13.007 16.0029 14.2491V15.1675C16.0029 15.7409 15.8237 16.2999 15.4903 16.7664C13.9445 18.9296 11.4202 20.0013 7.9999 20.0013C4.57891 20.0013 2.05595 18.9292 0.513788 16.7648C0.181818 16.2989 0.00341797 15.7411 0.00341797 15.169V14.2491C0.00341797 13.007 1.01027 12.0002 2.25229 12.0002H13.7541ZM7.9999 0.00488281C10.7613 0.00488281 12.9999 2.24346 12.9999 5.00488C12.9999 7.76631 10.7613 10.0049 7.9999 10.0049C5.23845 10.0049 2.99988 7.76631 2.99988 5.00488C2.99988 2.24346 5.23845 0.00488281 7.9999 0.00488281Z" fill="white" fill-opacity="0.85"/>
</svg>
