<svg width="413" height="220" viewBox="0 0 413 220" fill="none" xmlns="http://www.w3.org/2000/svg">
<path d="M-132 113.317L216.604 -235.287L219.634 -232.257L-128.97 116.347L-132 113.317Z" fill="#EB5757" fill-opacity="0.5"/>
<path d="M-125.302 120.015L223.302 -228.589L226.332 -225.559L-122.272 123.045L-125.302 120.015Z" fill="#EB5757" fill-opacity="0.5"/>
<path d="M-118.604 126.713L230 -221.891L233.03 -218.86L-115.573 129.743L-118.604 126.713Z" fill="#EB5757" fill-opacity="0.5"/>
<path d="M-111.905 133.411L236.698 -215.192L239.728 -212.162L-108.875 136.441L-111.905 133.411Z" fill="#EB5757" fill-opacity="0.5"/>
<path d="M-105.207 140.11L243.397 -208.494L246.427 -205.464L-102.177 143.14L-105.207 140.11Z" fill="#EB5757" fill-opacity="0.5"/>
<path d="M-98.5086 146.808L250.095 -201.796L253.125 -198.766L-95.4786 149.838L-98.5086 146.808Z" fill="#EB5757" fill-opacity="0.5"/>
<path d="M-91.8103 153.506L256.793 -195.097L259.823 -192.067L-88.7803 156.536L-91.8103 153.506Z" fill="#EB5757" fill-opacity="0.5"/>
<path d="M-85.112 160.205L263.492 -188.399L266.522 -185.369L-82.082 163.235L-85.112 160.205Z" fill="#EB5757" fill-opacity="0.5"/>
<path d="M-78.4137 166.903L270.19 -181.701L273.22 -178.671L-75.3837 169.933L-78.4137 166.903Z" fill="#EB5757" fill-opacity="0.5"/>
<path d="M-71.7154 173.601L276.888 -175.002L279.918 -171.972L-68.6854 176.631L-71.7154 173.601Z" fill="#EB5757" fill-opacity="0.5"/>
<path d="M-65.0171 180.3L283.587 -168.304L286.617 -165.274L-61.9871 183.33L-65.0171 180.3Z" fill="#EB5757" fill-opacity="0.5"/>
<path d="M-58.3188 186.998L290.285 -161.606L293.315 -158.576L-55.2888 190.028L-58.3188 186.998Z" fill="#EB5757" fill-opacity="0.5"/>
<path d="M-51.6205 193.696L296.983 -154.907L300.013 -151.877L-48.5905 196.726L-51.6205 193.696Z" fill="#EB5757" fill-opacity="0.5"/>
<path d="M-44.9222 200.394L303.681 -148.209L306.711 -145.179L-41.8922 203.424L-44.9222 200.394Z" fill="#EB5757" fill-opacity="0.5"/>
<path d="M-38.2239 207.093L310.38 -141.511L313.41 -138.481L-35.1939 210.123L-38.2239 207.093Z" fill="#EB5757" fill-opacity="0.5"/>
<path d="M-31.5256 213.791L317.078 -134.813L320.108 -131.783L-28.4956 216.821L-31.5256 213.791Z" fill="#EB5757" fill-opacity="0.5"/>
<path d="M-24.8273 220.489L323.776 -128.114L326.806 -125.084L-21.7973 223.519L-24.8273 220.489Z" fill="#EB5757" fill-opacity="0.5"/>
<path d="M-18.129 227.188L330.475 -121.416L333.505 -118.386L-15.099 230.218L-18.129 227.188Z" fill="#EB5757" fill-opacity="0.5"/>
<path d="M-11.4307 233.886L337.173 -114.718L340.203 -111.688L-8.40065 236.916L-11.4307 233.886Z" fill="#EB5757" fill-opacity="0.5"/>
<path d="M-4.73236 240.584L343.871 -108.019L346.901 -104.989L-1.70234 243.614L-4.73236 240.584Z" fill="#EB5757" fill-opacity="0.5"/>
<path d="M1.96594 247.283L350.57 -101.321L353.6 -98.291L4.99596 250.313L1.96594 247.283Z" fill="#EB5757" fill-opacity="0.5"/>
<path d="M8.66423 253.981L357.268 -94.6228L360.298 -91.5927L11.6943 257.011L8.66423 253.981Z" fill="#EB5757" fill-opacity="0.5"/>
<path d="M15.3625 260.679L363.966 -87.9245L366.996 -84.8944L18.3926 263.709L15.3625 260.679Z" fill="#EB5757" fill-opacity="0.5"/>
<path d="M22.0608 267.377L370.664 -81.2262L373.694 -78.1961L25.0909 270.407L22.0608 267.377Z" fill="#EB5757" fill-opacity="0.5"/>
<path d="M28.7592 274.076L377.363 -74.5278L380.393 -71.4978L31.7892 277.106L28.7592 274.076Z" fill="#EB5757" fill-opacity="0.5"/>
<path d="M35.4574 280.774L384.061 -67.8295L387.091 -64.7995L38.4875 283.804L35.4574 280.774Z" fill="#EB5757" fill-opacity="0.5"/>
<path d="M42.1557 287.472L390.759 -61.1312L393.789 -58.1012L45.1858 290.502L42.1557 287.472Z" fill="#EB5757" fill-opacity="0.5"/>
<path d="M48.8541 294.171L397.458 -54.4329L400.488 -51.4029L51.8841 297.201L48.8541 294.171Z" fill="#EB5757" fill-opacity="0.5"/>
<path d="M55.5524 300.869L404.156 -47.7346L407.186 -44.7046L58.5824 303.899L55.5524 300.869Z" fill="#EB5757" fill-opacity="0.5"/>
<path d="M62.2507 307.567L410.854 -41.0363L413.884 -38.0063L65.2807 310.597L62.2507 307.567Z" fill="#EB5757" fill-opacity="0.5"/>
<path d="M68.9489 314.266L417.553 -34.338L420.583 -31.308L71.979 317.296L68.9489 314.266Z" fill="#EB5757" fill-opacity="0.5"/>
<path d="M75.6473 320.964L424.251 -27.6397L427.281 -24.6097L78.6773 323.994L75.6473 320.964Z" fill="#EB5757" fill-opacity="0.5"/>
<path d="M82.3456 327.662L430.949 -20.9414L433.979 -17.9114L85.3756 330.692L82.3456 327.662Z" fill="#EB5757" fill-opacity="0.5"/>
<path d="M89.0439 334.361L437.647 -14.2431L440.678 -11.2131L92.0739 337.391L89.0439 334.361Z" fill="#EB5757" fill-opacity="0.5"/>
<path d="M95.7422 341.059L444.346 -7.54482L447.376 -4.51481L98.7722 344.089L95.7422 341.059Z" fill="#EB5757" fill-opacity="0.5"/>
<path d="M102.44 347.757L451.044 -0.846516L454.074 2.1835L105.47 350.787L102.44 347.757Z" fill="#EB5757" fill-opacity="0.5"/>
<path d="M109.139 354.455L457.742 5.85179L460.772 8.88179L112.169 357.485L109.139 354.455Z" fill="#EB5757" fill-opacity="0.5"/>
<path d="M115.837 361.154L464.441 12.5501L467.471 15.5801L118.867 364.184L115.837 361.154Z" fill="#EB5757" fill-opacity="0.5"/>
<path d="M122.535 367.852L471.139 19.2484L474.169 22.2784L125.565 370.882L122.535 367.852Z" fill="#EB5757" fill-opacity="0.5"/>
<path d="M129.234 374.55L477.837 25.9467L480.867 28.9767L132.264 377.58L129.234 374.55Z" fill="#EB5757" fill-opacity="0.5"/>
<path d="M135.932 381.249L484.536 32.645L487.566 35.675L138.962 384.279L135.932 381.249Z" fill="#EB5757" fill-opacity="0.5"/>
<path d="M142.63 387.947L491.234 39.3433L494.264 42.3733L145.66 390.977L142.63 387.947Z" fill="#EB5757" fill-opacity="0.5"/>
<path d="M149.329 394.645L497.932 46.0416L500.962 49.0716L152.359 397.675L149.329 394.645Z" fill="#EB5757" fill-opacity="0.5"/>
<path d="M156.027 401.344L504.631 52.7399L507.661 55.7699L159.057 404.374L156.027 401.344Z" fill="#EB5757" fill-opacity="0.5"/>
<path d="M162.725 408.042L511.329 59.4382L514.359 62.4682L165.755 411.072L162.725 408.042Z" fill="#EB5757" fill-opacity="0.5"/>
<path d="M169.423 414.74L518.027 66.1365L521.057 69.1665L172.453 417.77L169.423 414.74Z" fill="#EB5757" fill-opacity="0.5"/>
<path d="M176.122 421.438L524.725 72.8348L527.755 75.8648L179.152 424.468L176.122 421.438Z" fill="#EB5757" fill-opacity="0.5"/>
<path d="M182.82 428.137L531.424 79.5331L534.454 82.5631L185.85 431.167L182.82 428.137Z" fill="#EB5757" fill-opacity="0.5"/>
<path d="M189.518 434.835L538.122 86.2314L541.152 89.2614L192.548 437.865L189.518 434.835Z" fill="#EB5757" fill-opacity="0.5"/>
<path d="M196.217 441.533L544.82 92.9297L547.85 95.9597L199.247 444.563L196.217 441.533Z" fill="#EB5757" fill-opacity="0.5"/>
<path d="M202.915 448.232L551.519 99.628L554.549 102.658L205.945 451.262L202.915 448.232Z" fill="#EB5757" fill-opacity="0.5"/>
<path d="M209.613 454.93L558.217 106.326L561.247 109.356L212.643 457.96L209.613 454.93Z" fill="#EB5757" fill-opacity="0.5"/>
<path d="M216.312 461.628L564.915 113.025L567.945 116.055L219.342 464.658L216.312 461.628Z" fill="#EB5757" fill-opacity="0.5"/>
</svg>
