<svg width="36" height="36" viewBox="0 0 36 36" fill="none" xmlns="http://www.w3.org/2000/svg">
<path d="M15.8564 0.122041C19.7489 -0.332459 23.7989 0.486541 27.1694 2.51154C31.7324 5.19354 34.9859 9.99054 35.7644 15.233C36.4934 19.859 35.3234 24.755 32.5559 28.5305C29.6984 32.522 25.1354 35.24 20.2619 35.825C15.4649 36.464 10.4339 35.0375 6.68987 31.973C3.11687 29.1155 0.709368 24.8405 0.151368 20.3C-0.429132 15.9125 0.673368 11.3225 3.22937 7.70454C6.10937 3.53754 10.8164 0.693541 15.8564 0.122041ZM7.14437 12.8885C9.06587 13.5095 10.9784 14.135 12.8999 14.756C13.7909 13.5095 15.0779 12.65 16.5044 12.1235C16.4684 10.1075 16.5089 8.09154 16.4774 6.07104C12.4769 6.60654 8.84987 9.22554 7.14437 12.8885ZM19.4834 12.1415C20.9144 12.641 22.1834 13.5185 23.0699 14.756C24.9959 14.1395 26.9129 13.5095 28.8344 12.8885C27.1289 9.22104 23.4974 6.61104 19.5014 6.07104C19.4744 8.09604 19.5014 10.121 19.4834 12.1415ZM6.19487 15.7415C5.42987 19.715 6.82937 23.9675 9.78137 26.726C10.9829 25.0925 12.1709 23.4455 13.3589 21.8075C12.4454 20.5925 11.9639 19.1255 11.9639 17.6045C10.0379 16.9835 8.12087 16.3535 6.19487 15.7415ZM24.0149 17.609C24.0194 19.139 23.5019 20.5925 22.6244 21.8345C23.8349 23.4545 25.0049 25.106 26.2019 26.735C29.1404 23.9585 30.5444 19.715 29.7839 15.7415C27.8579 16.3535 25.9364 16.9835 24.0149 17.609ZM17.2064 16.718C16.2794 17.222 16.2749 18.7295 17.1974 19.238C18.0929 19.8995 19.5464 19.112 19.4609 18.0005C19.5779 16.8665 18.1199 16.097 17.2064 16.718ZM12.2024 28.5125C15.7529 30.4475 20.2214 30.4385 23.7719 28.517C22.5974 26.8655 21.4004 25.2275 20.2034 23.594C18.7544 24.062 17.2199 24.0665 15.7754 23.594C14.5784 25.232 13.3904 26.87 12.2024 28.5125Z" fill="white" fill-opacity="0.35"/>
</svg>
