<svg width="74" height="47" viewBox="0 0 74 47" fill="none" xmlns="http://www.w3.org/2000/svg">
<path d="M58.6399 46.8595H61.8647V45.8595H65.0894V46.8595H68.3142V45.8595H68.9266V44.0145H69.9266V38.3244H68.9266V35.4793V34.4793H69.9266H70.945V35.4793H72.9817V34.4793H73V33.5547H74V29.7056H73V25.8564H74V22.0072H73V18.1581H74V14.3089H73V10.4597H74V6.61053H73V5.68594H72.9817V4.68594H70.945V5.68594H69.9266H68.9266V4.68594V3.51446H69.9266V1.18519L68.7095 1.95943L68.1728 1.1157L64.6651 3.3471L65.2019 4.19084L61.6942 6.42225L61.1575 5.5785L57.6498 7.80991L58.1866 8.65365L54.679 10.8851L54.1422 10.0413L50.6346 12.2727L51.1713 13.1165L49.4175 14.2322L49.1719 14.3884H48.8807H47.0138V13.3884H43.2798V14.3884H39.5459V13.3884H35.8119V14.3884H34.945V14.3926H33.945V16.4008H34.945V17.4049V18.4049H33.945H31.8234V17.4049H27.5803V18.4049H23.3372V17.4049H19.094V18.4049H14.8509V17.4049H10.6078V18.4049H6.36468V17.4049H2.12157V18.4049H1V20.0826H0V25.438H1V27.1157H2.12156V28.1157H6.36468V27.1157H10.6078V28.1157H14.8509V27.1157H19.094V28.1157H23.3372V27.1157H27.5803V28.1157H31.8234V27.1157H33.945H34.945V28.1157V29.7055H33.945V32.8852H34.945V36.0649H33.945V39.2445H34.945V40.0619L36.1211 40.3689L35.8685 41.3365L39.7156 42.3407L39.9682 41.3731L43.8153 42.3773L43.5627 43.3448L47.4098 44.349L47.6623 43.3814L51.5094 44.3856L51.2569 45.3532L55.104 46.3574L55.3565 45.3898L57.1559 45.8595H58.6399V46.8595Z" fill="#EB5757" fill-opacity="0.5" stroke="#EB5757" stroke-width="2" stroke-dasharray="4 4"/>
</svg>
