<svg width="45" height="45" viewBox="0 0 45 45" fill="none" xmlns="http://www.w3.org/2000/svg">
<path d="M23.3956 4.48651C23.8951 3.01951 25.2406 1.66501 26.9146 2.01601C34.8166 3.56851 41.4451 10.2015 42.9841 18.1125C43.3171 19.7685 41.9626 21.0915 40.5181 21.6C40.6036 25.6545 39.4966 29.7675 37.0621 33.048C34.1236 37.152 29.3806 39.906 24.3541 40.3875C18.8281 41.004 13.0996 38.844 9.33759 34.7535C4.11309 29.3175 3.00159 20.4975 6.68259 13.923C9.85959 7.91101 16.6231 4.17151 23.3956 4.48651ZM26.4556 4.92301C26.3341 6.66001 26.2441 8.39701 26.1496 10.134C29.0746 13.023 31.9726 15.9435 34.8751 18.8505C36.6076 18.756 38.3401 18.6615 40.0726 18.549C38.5831 11.8935 33.1066 6.41701 26.4556 4.92301ZM20.4166 16.8885C17.5141 17.892 15.8041 21.33 16.7761 24.2505C17.6311 27.3015 21.1591 29.214 24.1831 28.2375C27.2971 27.4095 29.2501 23.8005 28.2151 20.7405C27.3286 17.5365 23.5036 15.6465 20.4166 16.8885Z" fill="#EB5757"/>
</svg>
