<svg width="45" height="45" viewBox="0 0 45 45" fill="none" xmlns="http://www.w3.org/2000/svg">
<path d="M23.3955 4.48651C23.895 3.01951 25.2405 1.66501 26.9145 2.01601C34.8165 3.56851 41.445 10.2015 42.984 18.1125C43.317 19.7685 41.9625 21.0915 40.518 21.6C40.6035 25.6545 39.4965 29.7675 37.062 33.048C34.1235 37.152 29.3805 39.906 24.354 40.3875C18.828 41.004 13.0995 38.844 9.33746 34.7535C4.11296 29.3175 3.00146 20.4975 6.68246 13.923C9.85946 7.91101 16.623 4.17151 23.3955 4.48651ZM26.4555 4.92301C26.334 6.66001 26.244 8.39701 26.1495 10.134C29.0745 13.023 31.9725 15.9435 34.875 18.8505C36.6075 18.756 38.34 18.6615 40.0725 18.549C38.583 11.8935 33.1065 6.41701 26.4555 4.92301ZM20.4165 16.8885C17.514 17.892 15.804 21.33 16.776 24.2505C17.631 27.3015 21.159 29.214 24.183 28.2375C27.297 27.4095 29.25 23.8005 28.215 20.7405C27.3285 17.5365 23.5035 15.6465 20.4165 16.8885Z" fill="#6FCF97"/>
</svg>
