<svg width="68" height="68" viewBox="0 0 68 68" fill="none" xmlns="http://www.w3.org/2000/svg">
<circle cx="34" cy="34" r="34" fill="#121212" fill-opacity="0.5"/>
<path d="M44.3434 23.3718L44.494 23.506C45.1204 24.1324 45.1652 25.1203 44.6283 25.7985L44.494 25.9491L35.9431 34.5L44.494 43.0509C45.1204 43.6773 45.1653 44.6652 44.6283 45.3434L44.494 45.494C43.8676 46.1204 42.8797 46.1653 42.2015 45.6283L42.0509 45.494L33.5 36.9431L24.9491 45.494C24.3227 46.1204 23.3348 46.1653 22.6566 45.6283L22.506 45.494C21.8796 44.8676 21.8348 43.8797 22.3718 43.2015L22.506 43.0509L31.0569 34.5L22.506 25.9491C21.8795 25.3227 21.8347 24.3348 22.3718 23.6567L22.506 23.506C23.1324 22.8796 24.1203 22.8348 24.7985 23.3717L24.9491 23.506L33.5 32.0569L42.0509 23.506C42.6774 22.8795 43.6652 22.8347 44.3434 23.3718Z" fill="#F4F4F4" fill-opacity="0.5"/>
</svg>
