<svg width="45" height="45" viewBox="0 0 45 45" fill="none" xmlns="http://www.w3.org/2000/svg">
<path d="M9.79647 6.1872C11.1825 5.8497 12.6765 5.8947 14.076 6.1422C15.237 6.5697 14.904 8.0367 15.0615 8.9997C20.0205 8.9997 24.9795 8.9997 29.9385 8.9997C30.096 8.0367 29.763 6.6057 30.9015 6.1467C32.31 5.8992 33.8175 5.8407 35.2125 6.1962C36.234 6.7362 35.8965 8.0637 36.063 9.0087C37.7055 9.0177 39.357 8.8827 40.9905 9.1122C42.2685 9.5082 41.958 11.1372 42.0345 12.1677C41.985 13.1262 42.147 14.5707 40.959 14.8947C39.771 15.0792 38.5605 14.9982 37.359 15.0072C26.55 14.9802 15.741 15.0207 4.93647 14.9892C3.77097 15.1872 2.83947 14.2062 2.99697 13.0542C3.07797 11.8032 2.56947 10.0752 3.74397 9.2157C5.42697 8.7837 7.21347 9.0627 8.93697 9.0087C9.09897 8.0637 8.76147 6.7227 9.79647 6.1872Z" fill="white" fill-opacity="0.35"/>
<path d="M4.49999 18C16.5015 18 28.4985 18 40.5 18C40.473 24.4665 40.5495 30.942 40.4685 37.4085C40.5855 38.628 39.285 39.1455 38.268 39.006C27.612 38.9835 16.9515 39.024 6.29099 38.988C5.36849 39.087 4.43249 38.3895 4.53149 37.404C4.45049 30.9375 4.52699 24.4665 4.49999 18ZM11.943 26.946C10.863 27.009 9.13949 26.8695 9.01799 28.3545C8.85599 29.988 10.7955 30.0915 11.943 30.069C11.9835 31.1895 11.934 33.021 13.5135 32.9805C15.075 32.994 15.012 31.1625 15.066 30.06C16.2135 30.0825 18.1215 29.997 17.982 28.377C17.8785 26.874 16.1415 27.009 15.057 26.9415C15.0165 25.83 15.0705 24.012 13.518 24.0165C11.9385 23.9715 11.9745 25.821 11.943 26.946ZM27.9585 27.126C26.658 27.513 26.7435 29.655 28.0935 29.9025C30.357 30.0825 32.6565 30.0825 34.92 29.9025C36.441 29.61 36.2385 27.081 34.677 27.0585C32.445 26.9685 30.1815 26.8785 27.9585 27.126Z" fill="white" fill-opacity="0.35"/>
</svg>
