<svg width="44" height="45" viewBox="0 0 44 45" fill="none" xmlns="http://www.w3.org/2000/svg">
<path d="M8.8422 8.50256C9.0443 7.12901 10.2863 6.01448 11.6459 6.00401C14.607 5.99224 17.568 6.00401 20.5291 5.99878C20.5406 6.99951 20.5278 8.00023 20.5355 8.99965C21.5063 9.00358 22.4784 8.9905 23.4492 9.0075C23.4863 8.0107 23.4594 7.01128 23.4633 6.01317C26.4256 5.98439 29.3892 6.0027 32.3515 6.00401C33.7137 6.01317 34.9531 7.1277 35.1565 8.50125C36.6121 17.3914 38.0536 26.2828 39.5079 35.1742C39.6243 35.7668 39.6435 36.3921 39.4414 36.969C39.0628 38.1463 37.9142 39.0005 36.7003 38.9966C32.2927 39.0058 27.885 38.994 23.476 39.0031C23.453 36.502 23.4748 34.0008 23.4658 31.501C22.4886 31.4983 21.5114 31.4983 20.5342 31.501C20.5342 33.9956 20.5291 36.4902 20.5367 38.9848C16.1687 39.0188 11.7994 38.9901 7.43139 39.0005C6.61279 39.0215 5.79162 38.6905 5.22627 38.0822C4.57139 37.4046 4.27848 36.3973 4.44732 35.462C5.9093 26.4751 7.37383 17.4882 8.8422 8.50256ZM20.5342 12.0005C20.5329 13.4997 20.5329 14.9988 20.5342 16.4992C21.5114 16.5005 22.4886 16.5005 23.4658 16.4992C23.4671 14.9988 23.4671 13.4997 23.4658 12.0005C22.4886 11.9992 21.5114 11.9992 20.5342 12.0005ZM20.5342 19.5001C20.5329 21.9986 20.5329 24.4985 20.5342 26.9983C21.5114 26.9997 22.4886 27.001 23.4658 26.9983C23.4671 24.4985 23.4671 21.9999 23.4658 19.5001C22.4886 19.4988 21.5114 19.5001 20.5342 19.5001Z" fill="white" fill-opacity="0.35"/>
</svg>
