<svg width="45" height="45" viewBox="0 0 45 45" fill="none" xmlns="http://www.w3.org/2000/svg">
<g clip-path="url(#clip0_1558_384)">
<path d="M16.1425 10.5373C18.2577 10.4522 20.3834 10.5229 22.5026 10.502C23.2771 10.4732 23.9887 11.1351 24.0175 11.9108C24.092 12.7493 23.3425 13.529 22.5039 13.4976C20.4986 13.5015 18.4932 13.5015 16.4878 13.4976C15.7382 13.5198 15.0489 12.8998 14.9874 12.1528C14.8958 11.4242 15.4243 10.689 16.1425 10.5373Z" fill="white" fill-opacity="0.35"/>
<path d="M0 14.8412C0.0889535 14.1348 0.698547 13.5226 1.42326 13.5095C2.43314 13.4886 3.44433 13.503 4.45552 13.5017C4.83488 13.4899 5.19855 13.6364 5.49419 13.8679C6.7657 14.8229 8.04113 15.7752 9.31265 16.7315C9.72471 16.5902 10.1538 16.4855 10.5933 16.4999C16.8305 16.4999 23.0677 16.5012 29.3036 16.4999C29.7811 16.5038 30.2677 16.4698 30.7347 16.5941C31.7185 16.8309 32.5478 17.6092 32.8513 18.5733C33.0737 19.247 32.9808 19.9665 32.9991 20.6624C35.2674 19.4184 37.5227 18.1495 39.7871 16.9002C40.258 16.6333 40.7943 16.4947 41.3359 16.5012C42.5564 16.4986 43.7782 16.4999 45 16.5025V16.513C44.5003 17.5006 43.9967 18.4857 43.5192 19.4838C43.0142 19.5139 42.508 19.4956 42.0031 19.5008C38.8282 24.0531 35.6612 28.6107 32.489 33.1656C31.9238 33.9858 30.9571 34.5222 29.9538 34.4986C23.4549 34.4999 16.9548 34.5038 10.456 34.4973C8.92675 34.513 7.54535 33.1839 7.50741 31.6547C7.48648 29.7972 7.51003 27.9383 7.49695 26.0807C5.38561 25.3783 3.27558 24.6732 1.16555 23.972C0.565116 23.819 0.103343 23.3075 0 22.6992V14.8412ZM3.00087 16.5012C3.00087 18.1403 2.99695 19.7794 3.00349 21.4185C4.50262 21.913 5.99782 22.4206 7.49826 22.9137C7.52442 21.6658 7.45378 20.4165 7.5375 19.1711C6.3798 18.2581 5.18023 17.3986 4.00683 16.5038C3.67195 16.4986 3.33576 16.4986 3.00087 16.5012Z" fill="white" fill-opacity="0.35"/>
<path d="M40.8022 29.5389C41.3385 28.1418 42.041 26.8166 42.75 25.502C43.421 26.7421 44.0803 27.994 44.6062 29.3047C44.7815 29.739 44.9293 30.1877 45 30.6534V30.9464C44.9045 31.9655 44.0686 32.8642 43.043 32.978C41.9376 33.152 40.8008 32.3631 40.5628 31.2735C40.4005 30.6861 40.5994 30.0883 40.8022 29.5389Z" fill="white" fill-opacity="0.35"/>
</g>
<defs>
<clipPath id="clip0_1558_384">
<rect width="45" height="45" fill="white"/>
</clipPath>
</defs>
</svg>
