<svg width="74" height="47" viewBox="0 0 74 47" fill="none" xmlns="http://www.w3.org/2000/svg">
<path d="M69.9266 11.5208H73C73.5523 11.5208 74 11.9685 74 12.5208V41.3142C74 41.8665 73.5523 42.3142 73 42.3142H69.9266V46.0001C69.9266 46.5524 69.4789 47.0001 68.9266 47.0001H49.8807C49.3284 47.0001 48.8807 46.5524 48.8807 46.0001V33.6117H34.945C34.3927 33.6117 33.945 33.164 33.945 32.6117V29.5952H1C0.447716 29.5952 0 29.1475 0 28.5952V19.8844C0 19.3321 0.447716 18.8844 1 18.8844H33.945V6.16575L57.0275 0.140625H68.9266C69.4789 0.140625 69.9266 0.588341 69.9266 1.14063V11.5208Z" fill="white" fill-opacity="0.35"/>
</svg>
