<svg width="76" height="49" viewBox="0 0 76 49" fill="none" xmlns="http://www.w3.org/2000/svg">
<path d="M70.9266 12.5208H74C74.5523 12.5208 75 12.9685 75 13.5208V42.3142C75 42.8665 74.5523 43.3142 74 43.3142H70.9266V47.0001C70.9266 47.5524 70.4789 48.0001 69.9266 48.0001H50.8807C50.3284 48.0001 49.8807 47.5524 49.8807 47.0001V34.6117H35.945C35.3927 34.6117 34.945 34.164 34.945 33.6117V30.5952H2C1.44772 30.5952 1 30.1475 1 29.5952V20.8844C1 20.3321 1.44772 19.8844 2 19.8844H34.945V7.16575L58.0275 1.14062H69.9266C70.4789 1.14062 70.9266 1.58834 70.9266 2.14063V12.5208Z" fill="#F2C94C" fill-opacity="0.5" stroke="#F2C94C" stroke-width="2"/>
</svg>
