<svg width="249" height="125" viewBox="0 0 249 125" fill="none" xmlns="http://www.w3.org/2000/svg">
<path d="M4.98 0.499974C2.22962 0.499974 -0.0103902 2.73142 0.0995189 5.4796C1.3477 36.6892 14.2933 66.3628 36.4652 88.5348C59.8135 111.883 91.4805 125 124.5 125C157.519 125 189.186 111.883 212.535 88.5348C234.707 66.3629 247.652 36.6893 248.9 5.47964C249.01 2.73146 246.77 0.500014 244.02 0.500013V0.500013C241.27 0.500013 239.051 2.73139 238.932 5.47917C237.69 34.0463 225.796 61.1881 205.492 81.492C184.012 102.972 154.878 115.04 124.5 115.04C94.1221 115.04 64.9884 102.972 43.508 81.492C23.204 61.188 11.3101 34.0462 10.0682 5.47913C9.9487 2.73134 7.73038 0.499975 4.98 0.499974V0.499974Z" fill="white"/>
</svg>
