<svg width="259" height="259" viewBox="0 0 259 259" fill="none" xmlns="http://www.w3.org/2000/svg">
<path d="M250.806 125.057C252.524 124.994 253.87 123.55 253.764 121.834C251.84 90.6394 238.246 61.2636 215.621 39.5918C192.246 17.2015 161.069 4.79495 128.702 5.00256C96.3337 5.21016 65.3192 18.0156 42.2332 40.7039C19.8882 62.6641 6.67157 92.2119 5.14821 123.429C5.06443 125.146 6.42846 126.572 8.14696 126.613C9.86546 126.654 11.2875 125.293 11.3735 123.577C12.8569 93.9781 25.406 65.9694 46.5966 45.1437C68.5282 23.5898 97.992 11.4247 128.742 11.2274C159.491 11.0302 189.108 22.8164 211.315 44.0872C232.771 64.6394 245.678 92.4848 247.541 122.062C247.649 123.777 249.088 125.12 250.806 125.057Z" fill="white" fill-opacity="0.4"/>
<path d="M28.3483 92.7778C27.8553 92.7959 27.3697 92.7436 26.8916 92.6211C26.4199 92.4916 26.0195 92.3061 25.6904 92.0647L26.2031 91.0352C26.4638 91.2325 26.7764 91.3878 27.1408 91.5012C27.5118 91.6144 27.8939 91.6637 28.287 91.6493C28.7467 91.6325 29.1029 91.5227 29.3556 91.32C29.615 91.117 29.7388 90.8523 29.7268 90.5259C29.7187 90.306 29.655 90.1149 29.5357 89.9525C29.423 89.7898 29.2252 89.6703 28.9422 89.594C28.6658 89.5174 28.2878 89.4879 27.8082 89.5054L26.1193 89.5673L26.3396 85.7467L30.4468 85.5962L30.4867 86.6855L26.8592 86.8184L27.516 86.1739L27.3505 89.0319L26.6487 88.4472L28.0577 88.3955C28.7506 88.3702 29.3103 88.4431 29.7368 88.6142C30.1698 88.7785 30.4889 89.0203 30.694 89.3397C30.9056 89.6521 31.019 90.0149 31.0341 90.428C31.049 90.8344 30.9627 91.2111 30.7753 91.5582C30.5879 91.9053 30.2914 92.1897 29.8859 92.4113C29.4871 92.6327 28.9746 92.7549 28.3483 92.7778ZM34.7838 92.5421C34.2309 92.5624 33.7261 92.4408 33.2695 92.1773C32.8195 91.9136 32.4582 91.5199 32.1855 90.9962C31.9126 90.4658 31.7621 89.8176 31.734 89.0514C31.706 88.2853 31.8087 87.6311 32.0424 87.0888C32.2758 86.5399 32.6072 86.1175 33.0367 85.8216C33.4728 85.5254 33.9673 85.3672 34.5203 85.3469C35.0799 85.3265 35.5847 85.4481 36.0347 85.7118C36.4846 85.9755 36.8461 86.3725 37.119 86.9029C37.3983 87.4263 37.552 88.0711 37.5801 88.8373C37.6082 89.6034 37.5022 90.2611 37.2621 90.8102C37.0285 91.3525 36.6969 91.7716 36.2675 92.0675C35.838 92.3634 35.3435 92.5216 34.7838 92.5421ZM34.7425 91.4129C35.0689 91.4009 35.3489 91.3039 35.5824 91.1219C35.8156 90.9333 35.9922 90.6533 36.112 90.282C36.2385 89.9104 36.2915 89.4449 36.271 88.8852C36.2502 88.319 36.1633 87.8585 36.0102 87.5039C35.8636 87.1423 35.6671 86.8793 35.421 86.7149C35.1745 86.5438 34.8881 86.4642 34.5617 86.4762C34.2485 86.4877 33.972 86.5879 33.7321 86.7768C33.4986 86.9588 33.3186 87.2355 33.1921 87.6071C33.0721 87.9717 33.0224 88.4372 33.0431 89.0035C33.0636 89.5631 33.1472 90.0237 33.2939 90.3852C33.4472 90.7465 33.6471 91.0127 33.8935 91.1838C34.1464 91.348 34.4294 91.4244 34.7425 91.4129Z" fill="white"/>
<path d="M21.235 128.062C20.6821 128.082 20.1773 127.96 19.7206 127.697C19.2707 127.433 18.9094 127.04 18.6367 126.516C18.3638 125.986 18.2133 125.337 18.1852 124.571C18.1571 123.805 18.2599 123.151 18.4936 122.608C18.727 122.06 19.0584 121.637 19.4878 121.341C19.924 121.045 20.4185 120.887 20.9715 120.867C21.5311 120.846 22.0359 120.968 22.4858 121.231C22.9358 121.495 23.2972 121.892 23.5702 122.423C23.8495 122.946 24.0032 123.591 24.0313 124.357C24.0593 125.123 23.9533 125.781 23.7133 126.33C23.4796 126.872 23.1481 127.291 22.7186 127.587C22.2892 127.883 21.7946 128.041 21.235 128.062ZM21.1937 126.933C21.5201 126.921 21.8001 126.824 22.0336 126.642C22.2668 126.453 22.4434 126.173 22.5632 125.802C22.6897 125.43 22.7427 124.965 22.7222 124.405C22.7014 123.839 22.6145 123.378 22.4614 123.024C22.3148 122.662 22.1183 122.399 21.8721 122.235C21.6257 122.063 21.3393 121.984 21.0128 121.996C20.6997 122.007 20.4232 122.108 20.1833 122.296C19.9498 122.478 19.7698 122.755 19.6433 123.127C19.5232 123.491 19.4736 123.957 19.4943 124.523C19.5148 125.083 19.5984 125.543 19.7451 125.905C19.8984 126.266 20.0983 126.532 20.3447 126.703C20.5975 126.868 20.8805 126.944 21.1937 126.933Z" fill="white"/>
<path d="M51.9567 59.7914L51.7188 53.2958L52.31 53.8645L50.2614 53.9396L50.2215 52.8503L52.9996 52.7485L53.2559 59.7438L51.9567 59.7914ZM57.5652 59.6861C57.0123 59.7063 56.5075 59.5847 56.0509 59.3212C55.6009 59.0575 55.2396 58.6638 54.9669 58.1401C54.694 57.6098 54.5435 56.9615 54.5154 56.1954C54.4873 55.4292 54.5901 54.775 54.8238 54.2328C55.0572 53.6838 55.3886 53.2614 55.8181 52.9655C56.2542 52.6693 56.7487 52.5111 57.3017 52.4909C57.8613 52.4704 58.3661 52.592 58.816 52.8557C59.266 53.1194 59.6274 53.5164 59.9004 54.0468C60.1797 54.5703 60.3334 55.2151 60.3615 55.9812C60.3896 56.7474 60.2836 57.405 60.0435 57.9542C59.8099 58.4964 59.4783 58.9155 59.0488 59.2114C58.6194 59.5074 58.1249 59.6656 57.5652 59.6861ZM57.5239 58.5568C57.8503 58.5449 58.1303 58.4479 58.3638 58.2659C58.597 58.0772 58.7736 57.7972 58.8934 57.4259C59.0199 57.0544 59.0729 56.5888 59.0524 56.0292C59.0316 55.4629 58.9447 55.0024 58.7916 54.6478C58.645 54.2862 58.4485 54.0233 58.2024 53.8588C57.9559 53.6877 57.6695 53.6082 57.343 53.6201C57.0299 53.6316 56.7534 53.7318 56.5135 53.9207C56.28 54.1027 56.1 54.3795 55.9735 54.751C55.8535 55.1157 55.8038 55.5811 55.8245 56.1474C55.845 56.707 55.9286 57.1676 56.0753 57.5291C56.2286 57.8904 56.4285 58.1566 56.6749 58.3277C56.9278 58.4919 57.2107 58.5683 57.5239 58.5568ZM64.2892 59.4398C63.7363 59.46 63.2315 59.3384 62.7749 59.075C62.3249 58.8112 61.9636 58.4175 61.6909 57.8938C61.418 57.3635 61.2675 56.7152 61.2394 55.9491C61.2114 55.1829 61.3141 54.5287 61.5478 53.9865C61.7812 53.4375 62.1126 53.0151 62.5421 52.7192C62.9782 52.4231 63.4727 52.2648 64.0257 52.2446C64.5853 52.2241 65.0901 52.3457 65.5401 52.6094C65.99 52.8731 66.3515 53.2701 66.6244 53.8005C66.9037 54.324 67.0574 54.9688 67.0855 55.7349C67.1136 56.5011 67.0076 57.1587 66.7675 57.7079C66.5339 58.2501 66.2023 58.6692 65.7729 58.9651C65.3434 59.2611 64.8489 59.4193 64.2892 59.4398ZM64.2479 58.3105C64.5743 58.2986 64.8543 58.2016 65.0878 58.0196C65.321 57.8309 65.4976 57.5509 65.6174 57.1796C65.7439 56.8081 65.7969 56.3425 65.7764 55.7829C65.7556 55.2166 65.6687 54.7561 65.5156 54.4015C65.369 54.04 65.1725 53.777 64.9264 53.6125C64.6799 53.4414 64.3935 53.3619 64.067 53.3738C63.7539 53.3853 63.4774 53.4855 63.2375 53.6744C63.004 53.8564 62.824 54.1332 62.6975 54.5047C62.5775 54.8694 62.5278 55.3348 62.5485 55.9011C62.569 56.4607 62.6526 56.9213 62.7993 57.2829C62.9526 57.6442 63.1525 57.9104 63.3989 58.0814C63.6518 58.2456 63.9347 58.322 64.2479 58.3105Z" fill="white"/>
<path d="M83.1664 37.6342L82.9285 31.1386L83.5197 31.7073L81.4711 31.7823L81.4312 30.6931L84.2094 30.5913L84.4656 37.5866L83.1664 37.6342ZM88.1753 37.5508C87.6823 37.5689 87.1968 37.5166 86.7186 37.394C86.2469 37.2645 85.8465 37.0791 85.5175 36.8376L86.0301 35.8081C86.2909 36.0054 86.6034 36.1607 86.9678 36.2741C87.3389 36.3873 87.7209 36.4367 88.114 36.4223C88.5737 36.4054 88.9299 36.2957 89.1827 36.0929C89.4421 35.89 89.5658 35.6253 89.5538 35.2988C89.5458 35.079 89.4821 34.8878 89.3627 34.7254C89.25 34.5628 89.0522 34.4433 88.7692 34.3669C88.4929 34.2903 88.1149 34.2608 87.6352 34.2784L85.9463 34.3402L86.1666 30.5196L90.2739 30.3692L90.3138 31.4584L86.6862 31.5913L87.3431 30.9468L87.1776 33.8048L86.4757 33.2201L87.8847 33.1685C88.5776 33.1431 89.1373 33.216 89.5639 33.3872C89.9968 33.5514 90.3159 33.7933 90.5211 34.1126C90.7326 34.4251 90.846 34.7879 90.8611 35.2009C90.876 35.6073 90.7898 35.984 90.6023 36.3311C90.4149 36.6782 90.1185 36.9626 89.713 37.1843C89.3141 37.4057 88.8016 37.5279 88.1753 37.5508ZM94.6109 37.3151C94.0579 37.3353 93.5531 37.2137 93.0965 36.9503C92.6466 36.6865 92.2852 36.2928 92.0125 35.7691C91.7396 35.2388 91.5891 34.5905 91.5611 33.8244C91.533 33.0582 91.6358 32.404 91.8694 31.8618C92.1028 31.3129 92.4342 30.8904 92.8637 30.5945C93.2998 30.2984 93.7944 30.1401 94.3473 30.1199C94.907 30.0994 95.4117 30.221 95.8617 30.4847C96.3116 30.7484 96.6731 31.1454 96.946 31.6758C97.2254 32.1993 97.3791 32.8441 97.4071 33.6102C97.4352 34.3764 97.3292 35.034 97.0891 35.5832C96.8555 36.1254 96.524 36.5445 96.0945 36.8404C95.665 37.1364 95.1705 37.2946 94.6109 37.3151ZM94.5695 36.1858C94.896 36.1739 95.1759 36.0769 95.4094 35.8949C95.6427 35.7062 95.8192 35.4262 95.939 35.0549C96.0655 34.6834 96.1185 34.2178 96.098 33.6582C96.0773 33.0919 95.9904 32.6314 95.8373 32.2768C95.6906 31.9153 95.4942 31.6523 95.248 31.4878C95.0016 31.3167 94.7151 31.2372 94.3887 31.2491C94.0756 31.2606 93.799 31.3608 93.5591 31.5497C93.3256 31.7317 93.1457 32.0085 93.0192 32.38C92.8991 32.7447 92.8494 33.2101 92.8702 33.7764C92.8907 34.336 92.9743 34.7966 93.1209 35.1582C93.2743 35.5195 93.4741 35.7857 93.7206 35.9567C93.9734 36.1209 94.2564 36.1973 94.5695 36.1858Z" fill="white"/>
<path d="M115.569 26.4407L115.537 25.5713L118.218 22.8313C118.443 22.6029 118.61 22.4033 118.717 22.2326C118.824 22.0619 118.891 21.906 118.92 21.7649C118.954 21.6169 118.969 21.4796 118.965 21.353C118.953 21.0332 118.834 20.7907 118.608 20.6255C118.381 20.4537 118.055 20.3756 117.629 20.3912C117.289 20.4037 116.981 20.475 116.706 20.6052C116.437 20.7351 116.207 20.927 116.016 21.1808L115.081 20.5146C115.341 20.1381 115.697 19.8416 116.149 19.6249C116.608 19.4013 117.124 19.279 117.697 19.258C118.203 19.2394 118.646 19.3066 119.025 19.4595C119.411 19.6055 119.709 19.8247 119.92 20.1172C120.138 20.4094 120.254 20.7621 120.269 21.1751C120.277 21.4016 120.256 21.6292 120.204 21.8579C120.152 22.08 120.047 22.3173 119.89 22.5699C119.732 22.8225 119.499 23.1079 119.191 23.4261L116.885 25.7821L116.598 25.3023L120.685 25.1526L120.725 26.2518L115.569 26.4407ZM124.397 26.2174C123.844 26.2377 123.339 26.1161 122.882 25.8526C122.432 25.5889 122.071 25.1952 121.798 24.6715C121.525 24.1411 121.375 23.4928 121.347 22.7267C121.319 21.9605 121.422 21.3063 121.655 20.7641C121.889 20.2152 122.22 19.7928 122.649 19.4968C123.086 19.2007 123.58 19.0425 124.133 19.0222C124.693 19.0017 125.198 19.1233 125.647 19.387C126.097 19.6507 126.459 20.0478 126.732 20.5781C127.011 21.1016 127.165 21.7464 127.193 22.5126C127.221 23.2787 127.115 23.9364 126.875 24.4855C126.641 25.0278 126.31 25.4469 125.88 25.7428C125.451 26.0387 124.956 26.1969 124.397 26.2174ZM124.355 25.0882C124.682 25.0762 124.962 24.9792 125.195 24.7972C125.428 24.6086 125.605 24.3286 125.725 23.9573C125.851 23.5857 125.904 23.1201 125.884 22.5605C125.863 21.9942 125.776 21.5338 125.623 21.1791C125.476 20.8176 125.28 20.5546 125.034 20.3902C124.787 20.2191 124.501 20.1395 124.174 20.1515C123.861 20.1629 123.585 20.2631 123.345 20.452C123.111 20.634 122.931 20.9108 122.805 21.2824C122.685 21.647 122.635 22.1125 122.656 22.6787C122.676 23.2384 122.76 23.699 122.907 24.0605C123.06 24.4218 123.26 24.688 123.506 24.8591C123.759 25.0233 124.042 25.0996 124.355 25.0882ZM131.121 25.9711C130.568 25.9914 130.063 25.8698 129.606 25.6063C129.156 25.3426 128.795 24.9489 128.522 24.4252C128.249 23.8948 128.099 23.2466 128.071 22.4804C128.043 21.7143 128.146 21.0601 128.379 20.5178C128.613 19.9689 128.944 19.5465 129.373 19.2506C129.81 18.9544 130.304 18.7962 130.857 18.7759C131.417 18.7554 131.922 18.877 132.371 19.1407C132.821 19.4045 133.183 19.8015 133.456 20.3319C133.735 20.8553 133.889 21.5001 133.917 22.2663C133.945 23.0324 133.839 23.6901 133.599 24.2392C133.365 24.7815 133.034 25.2006 132.604 25.4965C132.175 25.7924 131.68 25.9506 131.121 25.9711ZM131.079 24.8419C131.406 24.8299 131.686 24.7329 131.919 24.5509C132.152 24.3623 132.329 24.0823 132.449 23.711C132.575 23.3394 132.628 22.8738 132.608 22.3142C132.587 21.7479 132.5 21.2875 132.347 20.9328C132.2 20.5713 132.004 20.3083 131.758 20.1439C131.511 19.9728 131.225 19.8932 130.898 19.9052C130.585 19.9166 130.309 20.0168 130.069 20.2057C129.835 20.3877 129.655 20.6645 129.529 21.0361C129.409 21.4007 129.359 21.8662 129.38 22.4325C129.4 22.9921 129.484 23.4527 129.631 23.8142C129.784 24.1755 129.984 24.4417 130.23 24.6128C130.483 24.777 130.766 24.8533 131.079 24.8419Z" fill="white"/>
<path d="M150.911 35.1529L150.879 34.2834L153.561 31.5434C153.786 31.3151 153.952 31.1155 154.059 30.9448C154.166 30.7741 154.234 30.6182 154.262 30.4771C154.297 30.329 154.312 30.1917 154.307 30.0651C154.295 29.7453 154.176 29.5029 153.95 29.3377C153.724 29.1659 153.397 29.0878 152.971 29.1034C152.631 29.1158 152.324 29.1871 152.048 29.3173C151.78 29.4472 151.55 29.6391 151.359 29.8929L150.424 29.2267C150.684 28.8503 151.04 28.5537 151.492 28.337C151.951 28.1134 152.467 27.9911 153.04 27.9701C153.546 27.9516 153.989 28.0188 154.368 28.1716C154.753 28.3176 155.052 28.5369 155.263 28.8293C155.48 29.1216 155.596 29.4742 155.612 29.8873C155.62 30.1138 155.598 30.3414 155.546 30.5701C155.495 30.7922 155.39 31.0295 155.232 31.2821C155.075 31.5347 154.842 31.8201 154.533 32.1382L152.228 34.4942L151.94 34.0144L156.027 33.8647L156.068 34.964L150.911 35.1529ZM159.14 34.9515C158.647 34.9696 158.161 34.9173 157.683 34.7947C157.211 34.6653 156.811 34.4798 156.482 34.2383L156.994 33.2089C157.255 33.4061 157.568 33.5615 157.932 33.6749C158.303 33.788 158.685 33.8374 159.078 33.823C159.538 33.8062 159.894 33.6964 160.147 33.4937C160.406 33.2907 160.53 33.026 160.518 32.6996C160.51 32.4797 160.446 32.2886 160.327 32.1262C160.214 31.9635 160.016 31.844 159.733 31.7676C159.457 31.691 159.079 31.6615 158.599 31.6791L156.911 31.741L157.131 27.9203L161.238 27.7699L161.278 28.8592L157.65 28.992L158.307 28.3476L158.142 31.2055L157.44 30.6208L158.849 30.5692C159.542 30.5438 160.102 30.6167 160.528 30.7879C160.961 30.9522 161.28 31.194 161.485 31.5134C161.697 31.8258 161.81 32.1886 161.825 32.6016C161.84 33.008 161.754 33.3848 161.567 33.7319C161.379 34.079 161.083 34.3633 160.677 34.585C160.278 34.8064 159.766 34.9286 159.14 34.9515ZM165.575 34.7158C165.022 34.7361 164.517 34.6144 164.061 34.351C163.611 34.0873 163.249 33.6936 162.977 33.1699C162.704 32.6395 162.553 31.9912 162.525 31.2251C162.497 30.4589 162.6 29.8047 162.834 29.2625C163.067 28.7136 163.398 28.2912 163.828 27.9952C164.264 27.6991 164.759 27.5409 165.312 27.5206C165.871 27.5001 166.376 27.6217 166.826 27.8854C167.276 28.1491 167.637 28.5462 167.91 29.0765C168.19 29.6 168.343 30.2448 168.371 31.011C168.399 31.7771 168.293 32.4348 168.053 32.9839C167.82 33.5262 167.488 33.9453 167.059 34.2412C166.629 34.5371 166.135 34.6953 165.575 34.7158ZM165.534 33.5866C165.86 33.5746 166.14 33.4776 166.374 33.2956C166.607 33.107 166.783 32.827 166.903 32.4557C167.03 32.0841 167.083 31.6185 167.062 31.0589C167.042 30.4926 166.955 30.0322 166.802 29.6775C166.655 29.316 166.458 29.053 166.212 28.8886C165.966 28.7175 165.679 28.6379 165.353 28.6499C165.04 28.6613 164.763 28.7615 164.523 28.9504C164.29 29.1324 164.11 29.4092 163.983 29.7808C163.863 30.1454 163.814 30.6109 163.834 31.1771C163.855 31.7368 163.938 32.1973 164.085 32.5589C164.238 32.9202 164.438 33.1864 164.685 33.3575C164.938 33.5217 165.221 33.598 165.534 33.5866Z" fill="white"/>
<path d="M185.951 54.9837C185.458 55.0017 184.972 54.9495 184.494 54.8269C184.022 54.6974 183.622 54.5119 183.293 54.2705L183.815 53.2406C184.076 53.4379 184.389 53.5932 184.753 53.7066C185.117 53.82 185.496 53.8695 185.889 53.8551C186.356 53.8381 186.715 53.7315 186.968 53.5354C187.221 53.3327 187.341 53.0681 187.329 52.7417C187.318 52.4219 187.189 52.1731 186.942 51.9954C186.695 51.8176 186.305 51.7385 185.772 51.758L185.133 51.7814L185.1 50.892L187.012 48.4404L187.2 48.9239L183.442 49.0615L183.402 47.9722L188.169 47.7976L188.201 48.6671L186.289 51.1187L185.595 50.7438L185.985 50.7296C186.844 50.6981 187.494 50.8677 187.935 51.2385C188.382 51.6024 188.616 52.0841 188.638 52.6837C188.653 53.0768 188.566 53.4436 188.378 53.784C188.191 54.1244 187.894 54.4055 187.489 54.6271C187.089 54.8419 186.577 54.9607 185.951 54.9837ZM192.486 54.7443C191.934 54.7645 191.429 54.6429 190.972 54.3794C190.522 54.1157 190.161 53.722 189.888 53.1983C189.615 52.668 189.465 52.0197 189.437 51.2536C189.409 50.4874 189.511 49.8332 189.745 49.2909C189.978 48.742 190.31 48.3196 190.739 48.0237C191.175 47.7275 191.67 47.5693 192.223 47.5491C192.783 47.5286 193.287 47.6502 193.737 47.9139C194.187 48.1776 194.549 48.5746 194.822 49.105C195.101 49.6285 195.255 50.2733 195.283 51.0394C195.311 51.8056 195.205 52.4632 194.965 53.0124C194.731 53.5546 194.4 53.9737 193.97 54.2696C193.541 54.5655 193.046 54.7238 192.486 54.7443ZM192.445 53.615C192.772 53.6031 193.052 53.5061 193.285 53.3241C193.518 53.1354 193.695 52.8554 193.815 52.4841C193.941 52.1126 193.994 51.647 193.974 51.0874C193.953 50.5211 193.866 50.0606 193.713 49.706C193.566 49.3444 193.37 49.0815 193.124 48.917C192.877 48.7459 192.591 48.6664 192.264 48.6783C191.951 48.6898 191.675 48.79 191.435 48.9789C191.201 49.1609 191.021 49.4377 190.895 49.8092C190.775 50.1739 190.725 50.6393 190.746 51.2056C190.766 51.7652 190.85 52.2258 190.997 52.5873C191.15 52.9486 191.35 53.2148 191.596 53.3859C191.849 53.5501 192.132 53.6265 192.445 53.615ZM199.21 54.498C198.658 54.5182 198.153 54.3966 197.696 54.1332C197.246 53.8694 196.885 53.4757 196.612 52.952C196.339 52.4217 196.189 51.7734 196.161 51.0073C196.133 50.2411 196.235 49.5869 196.469 49.0447C196.702 48.4957 197.034 48.0733 197.463 47.7774C197.899 47.4813 198.394 47.323 198.947 47.3028C199.507 47.2823 200.011 47.4039 200.461 47.6676C200.911 47.9313 201.273 48.3283 201.546 48.8587C201.825 49.3822 201.979 50.027 202.007 50.7931C202.035 51.5593 201.929 52.2169 201.689 52.7661C201.455 53.3083 201.124 53.7274 200.694 54.0233C200.265 54.3193 199.77 54.4775 199.21 54.498ZM199.169 53.3687C199.496 53.3568 199.776 53.2598 200.009 53.0778C200.242 52.8891 200.419 52.6091 200.539 52.2378C200.665 51.8663 200.718 51.4007 200.698 50.8411C200.677 50.2748 200.59 49.8143 200.437 49.4597C200.29 49.0982 200.094 48.8352 199.848 48.6707C199.601 48.4996 199.315 48.4201 198.988 48.432C198.675 48.4435 198.399 48.5437 198.159 48.7326C197.925 48.9146 197.745 49.1914 197.619 49.5629C197.499 49.9276 197.449 50.393 197.47 50.9593C197.49 51.5189 197.574 51.9795 197.721 52.3411C197.874 52.7024 198.074 52.9686 198.32 53.1396C198.573 53.3038 198.856 53.3802 199.169 53.3687Z" fill="white"/>
<path d="M214.104 85.9739C213.611 85.992 213.125 85.9397 212.647 85.8171C212.175 85.6876 211.775 85.5022 211.446 85.2607L211.968 84.2309C212.229 84.4281 212.542 84.5835 212.906 84.6969C213.27 84.8103 213.649 84.8598 214.042 84.8454C214.509 84.8283 214.868 84.7217 215.121 84.5257C215.374 84.3229 215.494 84.0584 215.482 83.7319C215.471 83.4121 215.342 83.1634 215.095 82.9856C214.848 82.8078 214.458 82.7287 213.925 82.7483L213.286 82.7717L213.253 81.8823L215.165 79.4307L215.353 79.9141L211.595 80.0517L211.555 78.9625L216.322 78.7879L216.354 79.6573L214.442 82.1089L213.748 81.7341L214.138 81.7198C214.997 81.6883 215.647 81.858 216.088 82.2288C216.535 82.5926 216.769 83.0744 216.791 83.674C216.806 84.067 216.719 84.4338 216.531 84.7742C216.344 85.1147 216.047 85.3957 215.642 85.6174C215.243 85.8321 214.73 85.951 214.104 85.9739ZM219.942 85.76C219.449 85.7781 218.964 85.7258 218.486 85.6032C218.014 85.4738 217.614 85.2883 217.284 85.0468L217.797 84.0174C218.058 84.2146 218.37 84.37 218.735 84.4834C219.106 84.5965 219.488 84.6459 219.881 84.6315C220.341 84.6147 220.697 84.5049 220.95 84.3022C221.209 84.0992 221.333 83.8345 221.321 83.5081C221.313 83.2882 221.249 83.0971 221.13 82.9347C221.017 82.772 220.819 82.6525 220.536 82.5762C220.26 82.4996 219.882 82.47 219.402 82.4876L217.713 82.5495L217.934 78.7288L222.041 78.5784L222.081 79.6677L218.453 79.8005L219.11 79.1561L218.945 82.014L218.243 81.4293L219.652 81.3777C220.345 81.3523 220.904 81.4252 221.331 81.5964C221.764 81.7607 222.083 82.0025 222.288 82.3219C222.5 82.6343 222.613 82.9971 222.628 83.4101C222.643 83.8165 222.557 84.1933 222.369 84.5404C222.182 84.8875 221.885 85.1718 221.48 85.3935C221.081 85.6149 220.569 85.7371 219.942 85.76ZM226.378 85.5243C225.825 85.5446 225.32 85.423 224.864 85.1595C224.414 84.8958 224.052 84.5021 223.78 83.9784C223.507 83.448 223.356 82.7998 223.328 82.0336C223.3 81.2674 223.403 80.6132 223.636 80.071C223.87 79.5221 224.201 79.0997 224.631 78.8038C225.067 78.5076 225.561 78.3494 226.114 78.3291C226.674 78.3086 227.179 78.4302 227.629 78.6939C228.079 78.9576 228.44 79.3547 228.713 79.885C228.992 80.4085 229.146 81.0533 229.174 81.8195C229.202 82.5856 229.096 83.2433 228.856 83.7924C228.623 84.3347 228.291 84.7538 227.862 85.0497C227.432 85.3456 226.938 85.5038 226.378 85.5243ZM226.337 84.3951C226.663 84.3831 226.943 84.2861 227.176 84.1041C227.41 83.9155 227.586 83.6355 227.706 83.2642C227.833 82.8926 227.886 82.427 227.865 81.8674C227.844 81.3011 227.757 80.8407 227.604 80.486C227.458 80.1245 227.261 79.8615 227.015 79.6971C226.769 79.526 226.482 79.4464 226.156 79.4584C225.843 79.4698 225.566 79.57 225.326 79.7589C225.093 79.9409 224.913 80.2177 224.786 80.5893C224.666 80.9539 224.616 81.4194 224.637 81.9856C224.658 82.5453 224.741 83.0059 224.888 83.3674C225.041 83.7287 225.241 83.9949 225.488 84.166C225.74 84.3302 226.023 84.4065 226.337 84.3951Z" fill="white"/>
<path d="M220.093 121.088L220.06 120.189L223.343 115.556L224.732 115.505L221.499 120.136L220.842 119.96L226.389 119.757L226.429 120.856L220.093 121.088ZM223.989 122.537L223.931 120.948L223.93 119.847L223.879 118.438L225.098 118.393L225.248 122.49L223.989 122.537ZM229.956 122.418C229.403 122.438 228.898 122.317 228.441 122.053C227.991 121.79 227.63 121.396 227.357 120.872C227.084 120.342 226.934 119.694 226.906 118.927C226.878 118.161 226.98 117.507 227.214 116.965C227.448 116.416 227.779 115.993 228.208 115.698C228.645 115.401 229.139 115.243 229.692 115.223C230.252 115.202 230.756 115.324 231.206 115.588C231.656 115.851 232.018 116.248 232.291 116.779C232.57 117.302 232.724 117.947 232.752 118.713C232.78 119.479 232.674 120.137 232.434 120.686C232.2 121.228 231.869 121.648 231.439 121.943C231.01 122.239 230.515 122.398 229.956 122.418ZM229.914 121.289C230.241 121.277 230.521 121.18 230.754 120.998C230.987 120.809 231.164 120.529 231.284 120.158C231.41 119.786 231.463 119.321 231.443 118.761C231.422 118.195 231.335 117.734 231.182 117.38C231.035 117.018 230.839 116.755 230.593 116.591C230.346 116.42 230.06 116.34 229.733 116.352C229.42 116.364 229.144 116.464 228.904 116.653C228.67 116.835 228.49 117.112 228.364 117.483C228.244 117.848 228.194 118.313 228.215 118.879C228.235 119.439 228.319 119.9 228.466 120.261C228.619 120.622 228.819 120.889 229.065 121.06C229.318 121.224 229.601 121.3 229.914 121.289ZM236.68 122.172C236.127 122.192 235.622 122.07 235.165 121.807C234.715 121.543 234.354 121.15 234.081 120.626C233.808 120.096 233.658 119.447 233.63 118.681C233.602 117.915 233.704 117.261 233.938 116.718C234.172 116.17 234.503 115.747 234.932 115.451C235.369 115.155 235.863 114.997 236.416 114.977C236.976 114.956 237.48 115.078 237.93 115.341C238.38 115.605 238.742 116.002 239.015 116.533C239.294 117.056 239.448 117.701 239.476 118.467C239.504 119.233 239.398 119.891 239.158 120.44C238.924 120.982 238.593 121.401 238.163 121.697C237.734 121.993 237.239 122.151 236.68 122.172ZM236.638 121.043C236.965 121.031 237.245 120.934 237.478 120.752C237.711 120.563 237.888 120.283 238.008 119.912C238.134 119.54 238.187 119.075 238.167 118.515C238.146 117.949 238.059 117.488 237.906 117.134C237.759 116.772 237.563 116.509 237.317 116.345C237.07 116.173 236.784 116.094 236.457 116.106C236.144 116.117 235.868 116.218 235.628 116.406C235.394 116.588 235.214 116.865 235.088 117.237C234.968 117.601 234.918 118.067 234.939 118.633C234.959 119.193 235.043 119.653 235.19 120.015C235.343 120.376 235.543 120.642 235.789 120.813C236.042 120.978 236.325 121.054 236.638 121.043Z" fill="white"/>
</svg>
