<svg width="44" height="45" viewBox="0 0 44 45" fill="none" xmlns="http://www.w3.org/2000/svg">
<path d="M14.8287 43.8829C14.5273 43.7564 14.2769 43.5337 14.1169 43.25C13.9569 42.9663 13.8965 42.6377 13.9451 42.3161L16.6254 24.9645H9.5123C9.28679 24.9706 9.06291 24.925 8.85792 24.8314C8.65292 24.7377 8.47231 24.5985 8.33 24.4245C8.18769 24.2505 8.0875 24.0462 8.03715 23.8276C7.9868 23.609 7.98764 23.3817 8.03961 23.1635L12.4577 4.12801C12.5354 3.80041 12.7243 3.50944 12.9925 3.30409C13.2608 3.09873 13.592 2.99153 13.9304 3.00052H28.6573C28.8773 2.99978 29.0947 3.04806 29.2935 3.14181C29.4923 3.23557 29.6674 3.37242 29.806 3.5423C29.9466 3.71411 30.0461 3.91538 30.0971 4.13096C30.1481 4.34655 30.1493 4.57083 30.1005 4.78693L27.5528 16.1789H34.5481C34.8241 16.1784 35.0947 16.255 35.329 16.3999C35.5634 16.5449 35.752 16.7525 35.8735 16.9989C35.979 17.2355 36.0196 17.4956 35.9912 17.7528C35.9627 18.01 35.8662 18.2551 35.7115 18.4632L16.5665 43.3557C16.4371 43.5464 16.2643 43.7041 16.0622 43.8161C15.8601 43.928 15.6343 43.991 15.4031 44C15.206 43.9963 15.0113 43.9566 14.8287 43.8829Z" fill="#6FCF97"/>
</svg>
