<svg width="82" height="107" viewBox="0 0 82 107" fill="none" xmlns="http://www.w3.org/2000/svg">
<path d="M0.335913 98.8008C0.215871 95.7856 0.300605 92.7634 0.286483 89.7412C0.279421 86.6236 2.26717 83.6261 5.13758 82.4116C7.35482 81.4054 9.84038 81.8043 12.1988 81.7302C15.3658 81.6243 18.4834 83.5414 19.7721 86.4436C20.9089 88.7985 20.4182 91.4783 20.5241 93.9991C20.4358 96.4247 20.8736 98.995 19.7933 101.269C18.5081 104.199 15.3658 106.141 12.1741 106.021C9.86863 105.943 7.44662 106.332 5.26115 105.396C2.58846 104.305 0.607772 101.685 0.335913 98.8008Z" fill="white" fill-opacity="0.15"/>
<path d="M0.325291 66.3184C0.237025 63.2008 0.272332 60.0762 0.304107 56.9551C0.441802 52.8384 4.17722 49.2901 8.29747 49.3501C10.8854 49.4172 13.6676 48.9547 16.0613 50.2116C18.8082 51.5497 20.5982 54.5472 20.5205 57.5977C20.4958 60.5034 20.5841 63.4162 20.4746 66.3219C20.1816 70.3221 16.5133 73.6797 12.506 73.6232C10.0875 73.5491 7.53838 73.9728 5.247 73.0019C2.54959 71.8932 0.565374 69.2311 0.325291 66.3184Z" fill="white" fill-opacity="0.15"/>
<path d="M28.3692 97.8969C26.3285 97.8686 24.542 96.0362 24.5314 94.0061C24.4149 91.9795 26.0601 90.0553 28.0832 89.8753C29.965 89.7517 31.8574 89.8682 33.7428 89.8188C34.5054 88.6184 35.5152 87.6015 36.7156 86.8389C36.7121 80.7239 36.7262 74.6123 36.7085 68.4973C35.5187 67.7382 34.5089 66.739 33.7534 65.5456C31.8539 65.4856 29.9474 65.6163 28.0514 65.4821C25.7141 65.2809 23.9947 62.7317 24.6514 60.4827C25.061 58.7951 26.6603 57.4923 28.3974 57.4605C30.1769 57.3934 31.9563 57.4676 33.7322 57.4322C34.5019 56.2424 35.5011 55.2256 36.705 54.4736C36.7297 42.9637 36.7085 31.4503 36.7156 19.9369C35.5258 19.1637 34.5019 18.161 33.7322 16.9606C31.6844 16.8758 29.619 17.1088 27.5854 16.8229C24.7432 16.2438 23.5216 12.3601 25.5164 10.2559C27.6136 7.85504 31.1478 9.35204 33.7958 8.71652C35.0915 6.8241 37.0404 5.30593 39.3565 4.94581C42.6435 4.2997 46.1036 6.00146 47.7947 8.85069C49.6907 8.90012 51.5937 8.77654 53.4896 8.9107C55.5374 9.10136 57.1756 11.1032 57.0026 13.1439C56.9285 15.054 55.3185 16.7699 53.4084 16.9182C51.5372 17.0171 49.6589 16.9182 47.7877 16.9606C47.0215 18.161 46.0012 19.1601 44.8149 19.9439C44.8184 31.4538 44.8008 42.9672 44.8219 54.4771C46.0153 55.2362 47.0215 56.2424 47.7877 57.4322C49.666 57.4781 51.5478 57.3687 53.4261 57.4817C55.2832 57.637 56.8614 59.2682 56.992 61.1253C57.2357 63.2119 55.5727 65.3056 53.472 65.4856C51.5796 65.6127 49.6836 65.4892 47.7912 65.5456C47.0251 66.7319 46.0188 67.7452 44.8219 68.4973C44.8008 74.6159 44.8184 80.7309 44.8149 86.846C46.0047 87.6192 47.0321 88.6184 47.7947 89.8188C49.8178 89.9 51.862 89.6811 53.8745 89.9353C56.4448 90.426 57.8606 93.6742 56.473 95.8915C55.6892 97.332 54.0087 98.0522 52.4163 97.9286C50.8805 97.9286 49.3447 97.9251 47.8089 97.911C46.4319 100.128 44.0699 101.756 41.4325 101.932C38.3538 102.247 35.3104 100.548 33.7357 97.9287C31.9457 97.8933 30.1557 97.971 28.3692 97.8969Z" fill="white" fill-opacity="0.15"/>
<path d="M61.2833 65.2007C61.2682 61.7432 61.2532 58.2859 61.3101 54.8305C61.3203 54.6999 61.337 54.5703 61.3599 54.4416L69.3069 61.6838L61.5278 68.8423C61.3803 68.4218 61.2987 67.9864 61.2927 67.5433C61.2901 66.7624 61.2867 65.9816 61.2833 65.2007Z" fill="#EB5757"/>
<path d="M63.2035 71.1985L71.5345 63.675L79.5826 70.9797C78.8273 71.7139 77.8507 72.3197 76.7221 72.7146C74.9635 73.3726 73.0079 73.3396 71.076 73.3071C70.4376 73.2964 69.8018 73.2857 69.1765 73.2999C66.8675 73.3248 64.6844 72.4853 63.2035 71.1985Z" fill="#EB5757"/>
<path d="M81.122 68.4478L73.8116 61.7802L81.2491 54.9725C81.2554 55.0652 81.2586 55.1581 81.2586 55.2512C81.276 59.2623 81.2691 63.276 81.2621 67.2872C81.2699 67.6779 81.2215 68.0668 81.122 68.4478Z" fill="#EB5757"/>
<path d="M80.0169 52.1234L71.5345 59.7568L62.7598 51.8603C64.225 50.3422 66.6233 49.3196 69.1661 49.3429C69.8071 49.359 70.459 49.3476 71.1133 49.3361C73.0106 49.3029 74.9283 49.2694 76.6629 49.9047C78.0453 50.3777 79.2072 51.167 80.0169 52.1234Z" fill="#EB5757"/>
<path d="M61.0521 89.0171C60.9638 92.1311 61.0027 95.2522 61.0309 98.3662C61.1686 102.486 64.904 106.035 69.0243 105.971C71.531 105.901 74.2002 106.342 76.5481 105.226C79.2031 104.029 81.0849 101.293 81.2226 98.3803C81.2932 96.382 81.2297 94.3801 81.2509 92.3818C81.2297 90.5812 81.4097 88.7134 80.7495 86.994C79.6903 84.0248 76.7564 81.8252 73.5964 81.7157C71.8346 81.6769 70.0693 81.6451 68.3111 81.7404C64.5615 82.0194 61.3239 85.2711 61.0521 89.0171Z" fill="white" fill-opacity="0.15"/>
<path d="M61.0415 17.6061C60.9638 14.6969 61.0203 11.7841 61.0133 8.87134C60.9638 5.66552 63.0257 2.57622 65.9985 1.38286C68.184 0.450771 70.606 0.832077 72.9115 0.761465C76.0044 0.655546 79.0548 2.47029 80.4 5.26303C81.6675 7.69917 81.1414 10.5131 81.2509 13.1434C81.1662 15.4595 81.5686 17.8992 80.6118 20.0917C79.4644 22.888 76.6363 24.904 73.6106 25.024C71.8559 25.0664 70.0976 25.0876 68.3464 25.0063C64.5439 24.7345 61.2604 21.4157 61.0415 17.6061Z" fill="white" fill-opacity="0.15"/>
<path d="M0.0415161 17.6061C-0.036158 14.6969 0.0203368 11.7841 0.0132754 8.87134C-0.0361537 5.66552 2.02574 2.57622 4.99853 1.38286C7.184 0.450771 9.60601 0.832077 11.9115 0.761465C15.0044 0.655546 18.0548 2.47029 19.4 5.26303C20.6675 7.69917 20.1414 10.5131 20.2509 13.1434C20.1662 15.4595 20.5686 17.8992 19.6118 20.0917C18.4644 22.888 15.6363 24.904 12.6106 25.024C10.8559 25.0664 9.0976 25.0876 7.34641 25.0063C3.54391 24.7345 0.260416 21.4157 0.0415161 17.6061Z" fill="white" fill-opacity="0.15"/>
</svg>
