<svg width="113" height="101" viewBox="0 0 113 101" fill="none" xmlns="http://www.w3.org/2000/svg">
<path d="M8.04838 0.190341C6.73643 0.449883 5.51676 0.966047 4.44384 1.68435L5.00016 2.51531C4.01827 3.17268 3.17268 4.01827 2.51531 5.00016L1.68435 4.44384C0.966046 5.51676 0.449883 6.73643 0.19034 8.04838L1.17133 8.24245C1.05903 8.81008 1 9.39765 1 10V12.0227H0V16.0682H1V20.1136H0V24.1591H1V28.2045H0V32.25H1V36.2955H0V40.3409H1V44.3864H0V48.4318H1V52.4773H0V56.5227H1V60.5682H0V64.6136H1V68.6591H0V72.7046H1V76.75H0V80.7955H1V84.8409H0V88.8864H1V92.9318H0V96.9773H1V99C1 99.1374 1.02717 99.266 1.07549 99.3825L0.151761 99.7656C0.354492 100.254 0.745545 100.646 1.23443 100.848L1.61748 99.9245C1.734 99.9728 1.86257 100 2 100H3.98214V101H7.94643V100H11.9107V101H15.875V100H19.8393V101H23.8036V100H27.7679V101H31.7321V100H35.6964V101H39.6607V100H43.625V101H47.5893V100H51.5536V101H55.5179V100H59.4821V101H63.4464V100H67.4107V101H71.375V100H75.3393V101H79.3036V100H83.2679V101H87.2322V100H91.1964V101H95.1607V100H99.125V101H103.089V100H107.054V101H111.018V100H112V98.9318H113V94.7955H112V90.6591H113V86.5227H112V82.3864H113V78.25H112V74.1136H113V69.9773H112V65.8409H113V61.7045H112V57.5682H113V53.4318H112V49.2954H113V45.1591H112V41.0227H113V36.8864H112V32.75H113V28.6136H112V24.4773H113V20.3409H112V16.2046H113V12.0682H112V10C112 9.39765 111.941 8.81008 111.829 8.24245L112.81 8.04838C112.55 6.73643 112.034 5.51676 111.316 4.44384L110.485 5.00016C109.827 4.01827 108.982 3.17268 108 2.51531L108.556 1.68434C107.483 0.966046 106.264 0.449883 104.952 0.190341L104.758 1.17133C104.19 1.05903 103.602 1 103 1H101.062V0H97.1875V1H93.3125V0H89.4375V1H85.5625V0H81.6875V1H77.8125V0H73.9375V1H70.0625V0H66.1875V1H62.3125V0H58.4375V1H54.5625V0H50.6875V1H46.8125V0H42.9375V1H39.0625V0H35.1875V1H31.3125V0H27.4375V1H23.5625V0H19.6875V1H15.8125V0H11.9375V1H10C9.39765 1 8.81008 1.05903 8.24245 1.17133L8.04838 0.190341Z" fill="#EB5757" fill-opacity="0.5" stroke="#EB5757" stroke-width="2" stroke-dasharray="4 4"/>
</svg>
