<svg width="53" height="21" viewBox="0 0 53 21" fill="none" xmlns="http://www.w3.org/2000/svg">
<path d="M13.3699 19.746C12.6182 19.746 11.8854 19.695 11.1762 19.598L11.0407 20.5887C9.42517 20.3677 7.91887 19.921 6.57032 19.2969L6.99031 18.3894C5.60508 17.7483 4.41181 16.9124 3.46436 15.9499L2.75171 16.6514C1.60874 15.4903 0.776787 14.1458 0.342567 12.7039L1.30009 12.4156C1.10286 11.7606 1.00001 11.0865 1.00001 10.4023C1.00001 9.7181 1.10286 9.04404 1.30008 8.38912L0.342564 8.10077C0.776791 6.65886 1.60877 5.3145 2.75177 4.1535L3.46438 4.85506C4.41184 3.89269 5.60513 3.05688 6.99039 2.4159L6.57045 1.50835C7.91899 0.884359 9.42527 0.437835 11.0407 0.216806L11.1763 1.20758C11.8855 1.11055 12.6182 1.05957 13.3699 1.05957L15.5414 1.05957V0.0595703L19.8844 0.0595703V1.05957L24.2275 1.05957V0.0595703L28.5705 0.0595703V1.05957L32.9135 1.05957V0.0595703L37.2566 0.0595703V1.05957H39.4281C40.1797 1.05957 40.9124 1.11054 41.6216 1.20757L41.7571 0.216798C43.3726 0.437822 44.8788 0.884346 46.2272 1.50833L45.8072 2.41588C47.1924 3.05686 48.3856 3.89269 49.3329 4.85508L50.0456 4.15357C51.1884 5.31458 52.0203 6.65894 52.4544 8.10085L51.4969 8.38915C51.6941 9.04405 51.7969 9.71811 51.7969 10.4023C51.7969 11.0865 51.6941 11.7606 51.4969 12.4155L52.4544 12.7038C52.0203 14.1458 51.1885 15.4902 50.0457 16.6513L49.333 15.9499C48.3856 16.9124 47.1925 17.7483 45.8073 18.3894L46.2273 19.2969C44.8789 19.921 43.3727 20.3677 41.7572 20.5887L41.6216 19.598C40.9125 19.695 40.1797 19.746 39.4281 19.746H37.2566V20.746H32.9135V19.746H28.5705V20.746H24.2275V19.746L19.8844 19.746V20.746H15.5414V19.746H13.3699Z" fill="#EB5757" fill-opacity="0.5" stroke="#EB5757" stroke-width="2" stroke-dasharray="4 4"/>
</svg>
