<svg width="81" height="107" viewBox="0 0 81 107" fill="none" xmlns="http://www.w3.org/2000/svg">
<path d="M80.9336 98.8008C81.0537 95.7856 80.9689 92.7634 80.983 89.7412C80.9901 86.6236 79.0024 83.6261 76.132 82.4116C73.9147 81.4054 71.4291 81.8043 69.0707 81.7302C65.9037 81.6243 62.7861 83.5414 61.4975 86.4436C60.3606 88.7985 60.8514 91.4783 60.7454 93.9991C60.8337 96.4247 60.3959 98.995 61.4763 101.269C62.7614 104.199 65.9037 106.141 69.0954 106.021C71.4009 105.943 73.8229 106.332 76.0084 105.396C78.6811 104.305 80.6618 101.685 80.9336 98.8008Z" fill="white" fill-opacity="0.15"/>
<path d="M80.9442 66.3184C81.0325 63.2008 80.9972 60.0762 80.9654 56.9551C80.8277 52.8384 77.0923 49.2901 72.9721 49.3501C70.3841 49.4172 67.602 48.9547 65.2082 50.2116C62.4614 51.5497 60.6713 54.5472 60.749 57.5977C60.7737 60.5034 60.6854 63.4162 60.7949 66.3219C61.0879 70.3221 64.7563 73.6797 68.7635 73.6232C71.182 73.5491 73.7311 73.9728 76.0225 73.0019C78.7199 71.8932 80.7042 69.2311 80.9442 66.3184Z" fill="white" fill-opacity="0.15"/>
<path d="M80.9551 17.5922C81.0327 14.6936 80.9762 11.7879 80.9833 8.88567C81.0292 5.83873 79.1827 2.88359 76.4323 1.57725C74.0385 0.376835 71.2917 0.839349 68.7179 0.772266C64.6435 0.736961 60.954 4.22876 60.7775 8.29958C60.7104 11.2159 60.7528 14.1357 60.7563 17.052C60.7528 20.166 62.737 23.1459 65.5933 24.3675C67.9305 25.4126 70.5467 24.9642 73.0253 25.0383C77.0678 25.0772 80.7432 21.6313 80.9551 17.5922Z" fill="white" fill-opacity="0.15"/>
<path d="M52.9004 97.8969C54.9411 97.8686 56.7276 96.0362 56.7382 94.0061C56.8547 91.9795 55.2094 90.0553 53.1863 89.8753C51.3045 89.7517 49.4121 89.8682 47.5267 89.8188C46.7641 88.6184 45.7544 87.6015 44.5539 86.8389C44.5575 80.7239 44.5433 74.6123 44.561 68.4973C45.7508 67.7382 46.7606 66.739 47.5161 65.5456C49.4156 65.4856 51.3222 65.6163 53.2181 65.4821C55.5554 65.2809 57.2748 62.7317 56.6181 60.4827C56.2086 58.7951 54.6092 57.4923 52.8721 57.4605C51.0927 57.3934 49.3132 57.4676 47.5373 57.4322C46.7676 56.2424 45.7685 55.2256 44.5645 54.4736C44.5398 42.9637 44.561 31.4503 44.5539 19.9369C45.7438 19.1637 46.7676 18.161 47.5373 16.9606C49.5851 16.8758 51.6505 17.1088 53.6842 16.8229C56.5263 16.2438 57.7479 12.3601 55.7531 10.2559C53.6559 7.85504 50.1218 9.35204 47.4738 8.71652C46.178 6.8241 44.2291 5.30593 41.913 4.94581C38.626 4.2997 35.166 6.00146 33.4748 8.85069C31.5788 8.90012 29.6758 8.77654 27.7799 8.9107C25.7321 9.10136 24.0939 11.1032 24.2669 13.1439C24.341 15.054 25.951 16.7699 27.8611 16.9182C29.7323 17.0171 31.6106 16.9182 33.4819 16.9606C34.248 18.161 35.2684 19.1601 36.4547 19.9439C36.4511 31.4538 36.4688 42.9672 36.4476 54.4771C35.2542 55.2362 34.248 56.2424 33.4819 57.4322C31.6036 57.4781 29.7217 57.3687 27.8434 57.4817C25.9863 57.637 24.4081 59.2682 24.2775 61.1253C24.0339 63.2119 25.6968 65.3056 27.7975 65.4856C29.69 65.6127 31.5859 65.4892 33.4783 65.5456C34.2445 66.7319 35.2507 67.7452 36.4476 68.4973C36.4688 74.6159 36.4511 80.7309 36.4547 86.846C35.2648 87.6192 34.2374 88.6184 33.4748 89.8188C31.4517 89.9 29.4075 89.6811 27.395 89.9353C24.8247 90.426 23.4089 93.6742 24.7965 95.8915C25.5803 97.332 27.2609 98.0522 28.8532 97.9286C30.389 97.9286 31.9248 97.9251 33.4607 97.911C34.8376 100.128 37.1996 101.756 39.837 101.932C42.9157 102.247 45.9591 100.548 47.5338 97.9287C49.3238 97.8933 51.1139 97.971 52.9004 97.8969Z" fill="white" fill-opacity="0.15"/>
<path d="M20.2066 98.7972C20.3266 95.782 20.2419 92.7633 20.256 89.7446C20.2666 86.6271 18.2824 83.6366 15.419 82.415C13.2018 81.4053 10.7127 81.8042 8.35776 81.7301C5.18724 81.6206 2.06262 83.5342 0.770409 86.4399C-0.362926 88.7949 0.124301 91.4676 0.0183816 93.9849C0.110178 96.4175 -0.334676 99.002 0.75276 101.283C2.04497 104.203 5.17665 106.137 8.36481 106.021C10.6703 105.943 13.0959 106.335 15.2813 105.396C17.9576 104.305 19.9347 101.682 20.2066 98.7972Z" fill="#6FCF97"/>
<path d="M20.2174 66.3042C20.3057 63.1902 20.2669 60.0691 20.2386 56.9551C20.1009 52.8348 16.3655 49.2865 12.2453 49.3501C9.73852 49.4207 7.06935 48.9794 4.72148 50.0951C2.06644 51.2919 0.184615 54.0282 0.0469196 56.941C-0.0236924 58.9393 0.0398527 60.9412 0.0186696 62.9395C0.0398525 64.7401 -0.140205 66.6078 0.520024 68.3273C1.57921 71.2965 4.51318 73.4961 7.6731 73.6056C9.43489 73.6444 11.2002 73.6762 12.9585 73.5809C16.708 73.3019 19.9456 70.0502 20.2174 66.3042Z" fill="white" fill-opacity="0.15"/>
<path d="M20.228 17.6061C20.3057 14.6969 20.2492 11.7841 20.2563 8.87134C20.3057 5.66552 18.2438 2.57622 15.271 1.38286C13.0855 0.450771 10.6635 0.832077 8.35802 0.761465C5.26518 0.655546 2.2147 2.47029 0.869527 5.26303C-0.397971 7.69917 0.128092 10.5131 0.0186429 13.1434C0.103377 15.4595 -0.299106 17.8992 0.657698 20.0917C1.80515 22.888 4.63319 24.904 7.65895 25.024C9.41367 25.0664 11.1719 25.0876 12.9231 25.0063C16.7256 24.7345 20.0091 21.4157 20.228 17.6061Z" fill="white" fill-opacity="0.15"/>
</svg>
