<svg width="74" height="47" viewBox="0 0 74 47" fill="none" xmlns="http://www.w3.org/2000/svg">
<path d="M15.3601 46.8595H12.1353V45.8595H8.91055V46.8595H5.68578V45.8595H5.07339V44.0145H4.07339V38.3244H5.07339V35.4793V34.4793H4.07339H3.05505V35.4793H1.01835V34.4793H1V33.5548H0V29.7056H1V25.8564H0V22.0072H1V18.1581H0V14.3089H1V10.4597H0V6.61053H1V5.68595H1.01835V4.68595H3.05505V5.68595H4.07339H5.07339V4.68595V3.51447H4.07339V1.1852L5.29047 1.95944L5.82722 1.1157L9.33486 3.34711L8.79811 4.19085L12.3058 6.42225L12.8425 5.57851L16.3502 7.80992L15.8134 8.65366L19.321 10.8851L19.8578 10.0413L23.3654 12.2727L22.8287 13.1165L24.5825 14.2322L24.8281 14.3884H25.1193H26.9862V13.3884H30.7202V14.3884H34.4541V13.3884H38.1881V14.3884H39.055V14.3926H40.055V16.4008H39.055V17.405V18.405H40.055H42.1766V17.405H46.4197V18.405H50.6628V17.405H54.906V18.405H59.1491V17.405H63.3922V18.405H67.6353V17.405H71.8784V18.405H73V20.0826H74V25.438H73V27.1157H71.8784V28.1157H67.6353V27.1157H63.3922V28.1157H59.1491V27.1157H54.906V28.1157H50.6628V27.1157H46.4197V28.1157H42.1766V27.1157H40.055H39.055V28.1157V29.7055H40.055V32.8852H39.055V36.0649H40.055V39.2445H39.055V40.0619L37.8789 40.3689L38.1315 41.3365L34.2844 42.3407L34.0318 41.3731L30.1847 42.3773L30.4373 43.3448L26.5902 44.349L26.3377 43.3815L22.4906 44.3856L22.7431 45.3532L18.896 46.3574L18.6435 45.3898L16.8441 45.8595H15.3601V46.8595Z" fill="#EB5757" fill-opacity="0.5" stroke="#EB5757" stroke-width="2" stroke-dasharray="4 4"/>
</svg>
