<svg width="81" height="104" viewBox="0 0 81 104" fill="none" xmlns="http://www.w3.org/2000/svg">
<path d="M80.61 96.8521C80.7355 91.3111 80.6309 85.7667 80.6658 80.2223C80.739 77.6314 79.4907 75.0406 77.3775 73.5307C75.8641 72.3974 73.9532 71.9197 72.0807 71.9894C69.8978 72.0591 67.5998 71.707 65.5425 72.6345C62.6761 73.8096 60.6815 76.7841 60.6815 79.8806C60.6641 85.2437 60.6711 90.6102 60.678 95.9733C60.6397 99.0663 62.582 102.058 65.4169 103.286C67.7219 104.339 70.3162 103.889 72.7641 103.969C76.6871 104.018 80.2752 100.758 80.61 96.8521Z" fill="white" fill-opacity="0.15"/>
<path d="M80.6311 24.6737C80.7008 19.0212 80.6625 13.3652 80.6485 7.70923C80.6067 3.58405 76.886 -0.0320245 72.7643 0.0272557C70.2466 0.103971 67.5581 -0.359799 65.2183 0.808362C62.4775 2.08811 60.6328 5.02769 60.6782 8.05096C60.6712 13.4036 60.6642 18.7597 60.6817 24.1123C60.6817 27.1147 62.5507 30.0019 65.2776 31.2468C67.6104 32.3871 70.2745 31.9128 72.7747 31.9965C76.7639 32.0453 80.3974 28.6594 80.6311 24.6737Z" fill="#F2C94C"/>
<path d="M53.1877 91.9433C55.1649 91.776 56.7933 89.9104 56.7166 87.9298C56.7306 86.0084 55.1579 84.2265 53.24 84.0417C51.357 83.9022 49.4636 84.0487 47.5806 83.965C46.8866 82.7585 45.8475 81.803 44.6828 81.0603C44.6759 61.6862 44.6724 42.3157 44.6863 22.9416C45.851 22.2128 46.8657 21.2434 47.5527 20.0474C49.746 19.8416 52.0056 20.3124 54.1467 19.744C56.8178 18.8548 57.6023 15.0086 55.4997 13.1395C53.3481 11.2077 50.2203 12.3061 47.6189 12.0097C46.123 9.49556 43.2427 7.85315 40.2996 8.03796C37.6181 8.13909 35.1213 9.7257 33.7509 12.0097C31.9202 12.0446 30.0826 11.9644 28.2519 12.0446C26.3688 12.1736 24.7543 13.8265 24.6462 15.706C24.437 17.7564 26.0759 19.7754 28.1298 19.9672C30.0128 20.0892 31.8993 19.9462 33.7823 20.0404C34.4902 21.2295 35.5049 22.1989 36.6731 22.9312C36.687 42.3052 36.687 61.6792 36.6731 81.0533C35.5084 81.796 34.4867 82.7654 33.7858 83.965C31.8958 84.0452 30.0024 83.9127 28.1124 84.0312C26.062 84.237 24.43 86.2595 24.6497 88.3064C24.7648 90.1754 26.3654 91.8248 28.2414 91.9573C30.0721 92.0305 31.9063 91.9538 33.7405 91.9887C35.1841 94.3843 37.8587 96.0127 40.6797 95.9709C43.5007 96.0127 46.1718 94.3808 47.6085 91.9887C49.4705 91.9503 51.3291 92.0445 53.1877 91.9433Z" fill="white" fill-opacity="0.15"/>
<path d="M20.6362 96.8427C20.7548 91.3088 20.6536 85.7714 20.6885 80.2374C20.8036 77.113 18.9241 74.0235 16.0647 72.7437C13.84 71.6523 11.3049 72.0707 8.92321 71.994C5.89645 71.8964 2.90456 73.6504 1.56554 76.3737C0.822793 77.7686 0.641473 79.3691 0.690293 80.9278C0.70424 85.9352 0.683318 90.9461 0.700753 95.957C0.655421 99.0535 2.59422 102.049 5.43268 103.283C7.74111 104.343 10.3424 103.89 12.7938 103.97C16.7203 104.016 20.3049 100.748 20.6362 96.8427Z" fill="white" fill-opacity="0.15"/>
<path d="M20.6501 24.6921C20.7338 19.1407 20.671 13.5859 20.6815 8.03449C20.7094 5.38434 19.3111 2.77951 17.0863 1.34284C15.6183 0.342062 13.8155 -0.0450023 12.058 0.014278C9.95185 0.0875068 7.74454 -0.243764 5.74298 0.589641C2.73714 1.74037 0.641422 4.85081 0.697215 8.06935C0.704188 13.5161 0.669324 18.9629 0.714655 24.4062C0.808806 28.4965 4.50508 32.0533 8.5919 31.9975C10.998 31.9138 13.5365 32.3601 15.8101 31.3698C18.4916 30.2609 20.4444 27.5934 20.6501 24.6921Z" fill="white" fill-opacity="0.15"/>
</svg>
