<svg width="74" height="81" viewBox="0 0 74 81" fill="none" xmlns="http://www.w3.org/2000/svg">
<path d="M4.07339 45.5207H1C0.447715 45.5207 0 45.9684 0 46.5207V75.314C0 75.8663 0.447715 76.314 1 76.314H4.07339V80C4.07339 80.5523 4.52111 81 5.07339 81H24.1193C24.6716 81 25.1193 80.5523 25.1193 80V67.6116H39.055C39.6073 67.6116 40.055 67.1639 40.055 66.6116V63.595H73C73.5523 63.595 74 63.1473 74 62.595V53.8843C74 53.332 73.5523 52.8843 73 52.8843H40.055V40.1653H43.8073C44.3596 40.1653 44.8073 39.7176 44.8073 39.1653V22.0909L55.6265 11.4228C56.0237 11.0312 56.0237 10.3903 55.6265 9.99868L46.1884 0.692317C45.799 0.308397 45.1735 0.308397 44.7841 0.692317L32.0969 13.2025C31.9733 13.3243 31.8835 13.4763 31.8364 13.6434L28.5138 25.438L16.9725 34.1405H5.07339C4.52111 34.1405 4.07339 34.5882 4.07339 35.1405V45.5207Z" fill="white" fill-opacity="0.35"/>
</svg>
