<svg width="76" height="83" viewBox="0 0 76 83" fill="none" xmlns="http://www.w3.org/2000/svg">
<path d="M5.07339 46.5207H2C1.44772 46.5207 1 46.9684 1 47.5207V76.314C1 76.8663 1.44772 77.314 2 77.314H5.07339V81C5.07339 81.5523 5.52111 82 6.07339 82H25.1193C25.6716 82 26.1193 81.5523 26.1193 81V68.6116H40.055C40.6073 68.6116 41.055 68.1639 41.055 67.6116V64.595H74C74.5523 64.595 75 64.1473 75 63.595V54.8843C75 54.332 74.5523 53.8843 74 53.8843H41.055V41.1653H44.8073C45.3596 41.1653 45.8073 40.7176 45.8073 40.1653V23.0909L56.6265 12.4228C57.0237 12.0312 57.0237 11.3903 56.6265 10.9987L47.1884 1.69232C46.799 1.3084 46.1735 1.3084 45.7841 1.69232L33.0969 14.2025C32.9733 14.3243 32.8835 14.4763 32.8364 14.6434L29.5138 26.438L17.9725 35.1405H6.07339C5.52111 35.1405 5.07339 35.5882 5.07339 36.1405V46.5207Z" fill="#EB5757" fill-opacity="0.5" stroke="#EB5757" stroke-width="2"/>
</svg>
