<svg width="33" height="98" viewBox="0 0 33 98" fill="none" xmlns="http://www.w3.org/2000/svg">
<path d="M28.9004 93.8969C30.9411 93.8686 32.7276 92.0362 32.7382 90.0061C32.8547 87.9795 31.2094 86.0553 29.1863 85.8753C27.3045 85.7517 25.4121 85.8682 23.5267 85.8188C22.7641 84.6184 21.7544 83.6015 20.5539 82.8389C20.5575 76.7239 20.5433 70.6123 20.561 64.4973C21.7508 63.7382 22.7606 62.739 23.5161 61.5456C25.4156 61.4856 27.3222 61.6163 29.2181 61.4821C31.5554 61.2809 33.2748 58.7317 32.6181 56.4827C32.2086 54.7951 30.6092 53.4923 28.8721 53.4605C27.0927 53.3934 25.3132 53.4676 23.5373 53.4322C22.7676 52.2424 21.7685 51.2256 20.5645 50.4736C20.5398 38.9637 20.561 27.4503 20.5539 15.9369C21.7438 15.1637 22.7676 14.161 23.5373 12.9606C25.5851 12.8758 27.6505 13.1088 29.6842 12.8229C32.5263 12.2438 33.7479 8.36014 31.7531 6.25587C29.6559 3.85504 26.1218 5.35204 23.4738 4.71652C22.178 2.8241 20.2291 1.30593 17.913 0.945808C14.626 0.299697 11.166 2.00146 9.4748 4.85069C7.57884 4.90012 5.67583 4.77654 3.77988 4.9107C1.73211 5.10136 0.0938913 7.10323 0.266895 9.14394C0.341038 11.054 1.95101 12.7699 3.86109 12.9182C5.73232 13.0171 7.61062 12.9182 9.48186 12.9606C10.248 14.161 11.2684 15.1601 12.4547 15.9439C12.4511 27.4538 12.4688 38.9672 12.4476 50.4771C11.2542 51.2362 10.248 52.2424 9.48186 53.4322C7.60356 53.4781 5.72173 53.3687 3.84343 53.4817C1.98631 53.637 0.408117 55.2682 0.277483 57.1253C0.0338686 59.2119 1.6968 61.3056 3.79753 61.4856C5.68995 61.6127 7.58591 61.4892 9.47833 61.5456C10.2445 62.7319 11.2507 63.7452 12.4476 64.4973C12.4688 70.6159 12.4511 76.7309 12.4547 82.846C11.2648 83.6192 10.2374 84.6184 9.47479 85.8188C7.45174 85.9 5.4075 85.6811 3.39504 85.9353C0.82473 86.426 -0.591056 89.6742 0.796486 91.8915C1.58029 93.332 3.26087 94.0522 4.85319 93.9286C6.38902 93.9286 7.92484 93.9251 9.46067 93.911C10.8376 96.1282 13.1996 97.7559 15.837 97.9324C18.9157 98.2466 21.9591 96.5484 23.5338 93.9287C25.3238 93.8933 27.1139 93.971 28.9004 93.8969Z" fill="white" fill-opacity="0.15"/>
</svg>
