<svg width="22" height="12" viewBox="0 0 22 12" fill="none" xmlns="http://www.w3.org/2000/svg">
<path d="M2.5 5C1.94772 5 1.5 5.44772 1.5 6C1.5 6.55228 1.94772 7 2.5 7H20.5C21.0523 7 21.5 6.55228 21.5 6C21.5 5.44772 21.0523 5 20.5 5H2.5Z" fill="white" stroke="white" stroke-miterlimit="90" stroke-linecap="round"/>
<path d="M7.24329 0.83104C7.61275 1.24155 7.57947 1.87384 7.16896 2.2433L2.99485 6L7.16896 9.75671C7.57947 10.1262 7.61275 10.7585 7.24329 11.169C6.87384 11.5795 6.24154 11.6128 5.83104 11.2433L0.831035 6.7433M7.24329 0.83104L0.831035 6.7433M7.24329 0.83104C6.87384 0.420529 6.24155 0.387251 5.83104 0.75671L0.831036 5.25671C0.620321 5.44635 0.5 5.71652 0.5 6C0.5 6.28349 0.620321 6.55366 0.831035 6.7433M7.24329 0.83104L0.831035 6.7433" fill="white" stroke="white" stroke-miterlimit="1" stroke-linecap="round" stroke-linejoin="round"/>
</svg>
