<svg width="40" height="188" viewBox="0 0 40 188" fill="none" xmlns="http://www.w3.org/2000/svg">
<path d="M31.1299 7.55276L31.13 7.55294C33.4168 11.3033 35.3707 16.5998 36.7537 21.8029C38.1374 27.0086 38.9199 32.0083 38.9199 35.14L38.9199 169.452C38.9199 179.136 31.9556 186.661 23.7773 186.661H16.1406C7.96433 186.661 0.999977 179.136 0.999977 169.452L0.999977 34.1423C0.999977 31.006 1.78392 26.1245 3.16973 21.0756C4.555 16.0288 6.51138 10.9264 8.79847 7.32163C11.1357 3.6392 13.7811 1.77344 16.1406 1.77344L23.7773 1.77344C26.1193 1.77344 28.7867 3.70792 31.1299 7.55276Z" fill="#F2C94C" fill-opacity="0.5" stroke="#F2C94C" stroke-width="2"/>
</svg>
