<svg width="40" height="188" viewBox="0 0 40 188" fill="none" xmlns="http://www.w3.org/2000/svg">
<path d="M31.1299 7.43948L31.13 7.43966C33.4168 11.1901 35.3707 16.4865 36.7537 21.6896C38.1374 26.8954 38.9199 31.895 38.9199 35.0268L38.9199 169.338C38.9199 179.023 31.9556 186.547 23.7773 186.547H16.1406C7.96433 186.547 0.999977 179.023 0.999977 169.338L0.999977 34.029C0.999977 30.8928 1.78392 26.0112 3.16973 20.9623C4.555 15.9155 6.51138 10.8131 8.79847 7.20835C11.1357 3.52591 13.7811 1.66016 16.1406 1.66016L23.7773 1.66016C26.1193 1.66016 28.7867 3.59464 31.1299 7.43948Z" fill="#EB5757" fill-opacity="0.5" stroke="#EB5757" stroke-width="2"/>
</svg>
