<svg width="40" height="188" viewBox="0 0 40 188" fill="none" xmlns="http://www.w3.org/2000/svg">
<path d="M31.1299 7.43948L31.13 7.43966C31.4286 7.92932 31.7222 8.44662 32.0103 8.9882L32.8932 8.51855C33.4454 9.55664 33.9735 10.6733 34.4744 11.8439L33.555 12.2373C34.0177 13.3186 34.4577 14.4493 34.8723 15.6091L35.8139 15.2726C36.2238 16.4194 36.6081 17.5919 36.9646 18.771L36.0074 19.0604C36.3604 20.228 36.6859 21.4026 36.9813 22.5651L37.9505 22.3188C38.2597 23.5359 38.5363 24.7396 38.7776 25.9084L37.7982 26.1105C38.0544 27.3519 38.2697 28.5514 38.4411 29.6828L39.4298 29.5331C39.6299 30.8538 39.7714 32.0865 39.8494 33.1908L38.8519 33.2612C38.8972 33.9031 38.9199 34.4941 38.9199 35.0268V37.0019H39.9199V40.9523H38.9199V44.9026H39.9199V48.8529H38.9199V52.8033H39.9199V56.7536H38.9199L38.9199 60.704H39.9199V64.6543H38.9199V68.6046H39.9199V72.555H38.9199V76.5053H39.9199V80.4557H38.9199V84.406H39.9199V88.3563H38.9199V92.3067H39.9199V96.257H38.9199V100.207H39.9199V104.158H38.9199V108.108H39.9199V112.058H38.9199V116.009H39.9199V119.959H38.9199V123.909H39.9199V127.86H38.9199V131.81H39.9199V135.76H38.9199V139.711H39.9199V143.661H38.9199V147.611H39.9199V151.562H38.9199V155.512H39.9199V159.462H38.9199V163.413H39.9199V167.363H38.9199V169.338C38.9199 170.064 38.8806 170.777 38.8043 171.477L39.7984 171.585C39.6318 173.115 39.2972 174.583 38.8168 175.967L37.872 175.64C37.3956 177.013 36.7686 178.296 36.0161 179.466L36.8571 180.007C36.0313 181.291 35.0611 182.447 33.9745 183.446L33.2975 182.711C32.247 183.677 31.0845 184.484 29.8401 185.105L30.2863 186C28.9468 186.668 27.514 187.136 26.019 187.372L25.8632 186.384C25.1809 186.492 24.4845 186.547 23.7773 186.547H21.8681V187.547H18.0498V186.547H16.1406C15.4335 186.547 14.7372 186.492 14.0549 186.384L13.899 187.372C12.4042 187.136 10.9715 186.668 9.6321 185.999L10.0785 185.105C8.83422 184.484 7.67191 183.677 6.6215 182.71L5.94439 183.446C4.85803 182.446 3.88794 181.29 3.06228 180.006L3.90332 179.465C3.15096 178.296 2.52411 177.012 2.0477 175.639L1.10297 175.967C0.622627 174.583 0.288101 173.115 0.12146 171.585L1.11557 171.477C1.03933 170.777 0.999977 170.063 0.999977 169.338V167.348H-2.28882e-05V163.369H0.999977V159.389H-2.28882e-05V155.409H0.999977V151.43H-2.28882e-05V147.45H0.999977V143.47H-2.28882e-05V139.491H0.999977V135.511H-2.28882e-05V131.531H0.999977V127.552H-2.28882e-05V123.572H0.999977V119.592H-2.28882e-05V115.613H0.999977V111.633H-2.28882e-05V107.653H0.999977V103.674H-2.28882e-05V99.6938H0.999977V95.7141H-2.28882e-05V91.7345H0.999977V87.7548H-2.28882e-05V83.7751H0.999977V79.7954H-2.28882e-05V75.8157H0.999977V71.836H-2.28882e-05V67.8564H0.999977V63.8767H-2.28882e-05V59.897H0.999977L0.999977 55.9173H-2.28882e-05V51.9376H0.999977V47.9579H-2.28882e-05V43.9783H0.999977V39.9986H-2.28882e-05V36.0189H0.999977V34.029C0.999977 33.5054 1.02191 32.9292 1.06561 32.3072L0.0680695 32.2371C0.144272 31.1525 0.283428 29.9498 0.480484 28.6663L1.4689 28.818C1.63859 27.7127 1.85238 26.544 2.1071 25.3369L1.12865 25.1304C1.36945 23.9892 1.64596 22.816 1.95541 21.6311L2.92296 21.8838C3.2187 20.7514 3.54485 19.6085 3.89885 18.4735L2.9442 18.1758C3.30233 17.0275 3.68872 15.8869 4.10087 14.7722L5.03881 15.1189C5.45538 13.9923 5.89774 12.8951 6.36296 11.8468L5.44893 11.4412C5.95281 10.3058 6.48425 9.22362 7.04002 8.21855L7.91513 8.70245C8.20425 8.1796 8.49891 7.6805 8.79847 7.20835C9.27401 6.4591 9.76719 5.7784 10.2725 5.17081L9.5036 4.5314C10.7855 2.98999 12.1659 1.86226 13.5796 1.23377L13.9858 2.14754C14.7205 1.82092 15.441 1.66016 16.1406 1.66016L18.0498 1.66016V0.660156L21.8681 0.660156V1.66016L23.7773 1.66016C24.4789 1.66016 25.2059 1.83002 25.9509 2.1779L26.374 1.27181C27.7873 1.93175 29.1692 3.10768 30.4494 4.71129L29.6679 5.33521C30.1697 5.96366 30.6589 6.66664 31.1299 7.43948Z" fill="#EB5757" fill-opacity="0.5" stroke="#EB5757" stroke-width="2" stroke-dasharray="4 4"/>
</svg>
