<svg width="40" height="188" viewBox="0 0 40 188" fill="none" xmlns="http://www.w3.org/2000/svg">
<path d="M31.1299 7.66605L31.13 7.66622C33.4168 11.4166 35.3707 16.7131 36.7537 21.9162C38.1374 27.1219 38.9199 32.1216 38.9199 35.2533L38.9199 169.565C38.9199 179.249 31.9556 186.774 23.7773 186.774H16.1406C7.96433 186.774 0.999977 179.249 0.999977 169.565L0.999977 34.2556C0.999977 31.1193 1.78392 26.2377 3.16973 21.1889C4.555 16.1421 6.51138 11.0397 8.79847 7.43491C11.1357 3.75248 13.7811 1.88672 16.1406 1.88672L23.7773 1.88672C26.1193 1.88672 28.7867 3.8212 31.1299 7.66605Z" fill="#6FCF97" fill-opacity="0.5" stroke="#6FCF97" stroke-width="2"/>
</svg>
